<svg width="43" height="46" viewBox="0 0 43 46" fill="none" xmlns="http://www.w3.org/2000/svg">
<path d="M37.896 9.54048C39.9493 10.4636 40.9876 11.5828 40.9876 12.852C40.9861 13.1785 40.9145 13.501 40.7776 13.7982V18.3328C40.7776 19.2789 39.9376 20.0982 38.2809 20.7559V39.5405C38.2809 43.452 29.4843 45.4943 20.7809 45.4943C12.0893 45.4943 3.28093 43.452 3.28093 39.5405V20.7559C1.6476 20.0982 0.795929 19.2789 0.795929 18.3328V13.7982C0.659371 13.5009 0.587819 13.1785 0.585938 12.852C0.585938 11.1674 2.48762 9.71355 6.10428 8.65201C5.75887 8.05975 5.47732 7.43324 5.26428 6.78279L5.14761 6.43663L5.56759 5.60586L5.91761 5.49048C8.93928 4.49818 12.7659 5.1097 15.9743 7.08278C18.3929 6.91064 20.8191 6.86442 23.2426 6.94432C26.9526 2.97509 32.4243 0.505859 37.5576 0.505859C39.0276 0.505859 40.4393 0.702018 41.7576 1.10586L42.1076 1.22124L42.5743 2.1097L42.4809 2.45586C41.7109 5.00586 40.136 7.44048 37.896 9.54048ZM36.4959 39.5405V21.3328C32.4593 22.4059 26.5793 22.7174 23.8143 22.8097C25.9143 27.5174 28.7609 29.8943 33.5793 31.002C34.0576 31.1059 34.3609 31.5789 34.2559 32.0636C34.2325 32.1789 34.1859 32.2885 34.1187 32.3856C34.0516 32.4828 33.9654 32.5656 33.8653 32.6291C33.7651 32.6926 33.6531 32.7355 33.5358 32.7553C33.4185 32.7751 33.2984 32.7714 33.1826 32.7443C27.5826 31.4636 24.3043 28.5905 21.9126 22.8559H21.3876V43.7059C30.7559 43.602 36.5076 41.2251 36.5076 39.552L36.4959 39.5405ZM38.9926 15.5982C36.0293 17.3982 29.636 18.6328 22.3326 18.7943C22.601 19.6136 22.8459 20.3636 23.1026 21.0443C33.7426 20.8136 38.8526 18.9905 38.9926 18.3328V15.5982ZM39.2026 12.852C39.2026 12.3905 38.4559 11.6289 36.3559 10.8328C32.9573 13.4686 28.7856 14.9424 24.4676 15.0328C23.8843 15.0328 23.2776 14.9982 22.6709 14.9174C22.3209 15.2751 21.8893 15.5289 21.4226 15.6789L21.8076 17.0174C33.2409 16.8674 39.2026 14.2366 39.2026 12.8636V12.852ZM40.5443 2.62893C39.5993 2.39816 38.5959 2.28277 37.5576 2.28277C34.5834 2.35965 31.6735 3.15603 29.0825 4.60226C26.4914 6.04849 24.2981 8.10053 22.6943 10.5789C23.0335 10.9216 23.2871 11.3379 23.435 11.7946C23.5828 12.2513 23.6208 12.7359 23.5459 13.2097L24.4793 13.2443C31.246 13.2443 38.3743 8.51355 40.5443 2.62893ZM5.07761 39.552C5.07761 41.1674 10.5959 43.5097 19.6026 43.7059V22.8559L18.646 22.8328C17.4793 24.9097 15.741 26.7905 13.0343 28.9251C12.9431 28.9981 12.838 29.0523 12.7253 29.0843C12.6125 29.1164 12.4944 29.1257 12.378 29.1117C12.2615 29.0977 12.1491 29.0607 12.0474 29.0029C11.9457 28.945 11.8568 28.8676 11.7859 28.7751C11.6379 28.5861 11.5708 28.3472 11.5992 28.1098C11.6276 27.8724 11.7491 27.6555 11.9376 27.5059C13.7395 26.1864 15.3151 24.5892 16.6043 22.7751C13.6176 22.6366 8.6476 22.2789 5.06593 21.3328L5.07761 39.552ZM17.9809 11.0982C16.8889 9.79163 15.5259 8.73228 13.9841 7.99176C12.4423 7.25124 10.7577 6.84683 9.04427 6.80587C8.42594 6.80587 7.81926 6.86355 7.24759 6.99047C8.84593 10.5674 13.2793 13.3136 17.4909 13.3136H17.5493C17.4001 12.5491 17.5502 11.7572 17.9693 11.0982H17.9809ZM2.35926 12.852C2.35926 14.1559 8.01761 16.7174 18.8209 17.0059C18.9259 16.5328 19.0193 16.0251 19.1243 15.4597C18.9139 15.3446 18.7181 15.2052 18.541 15.0443C18.1676 15.0905 17.8293 15.102 17.4909 15.102C13.6759 15.102 9.65093 13.1866 7.1776 10.2097C3.8526 11.1097 2.35926 12.1828 2.35926 12.8636V12.852ZM2.58093 18.3328C2.72093 18.9559 7.55092 20.6982 17.5609 21.0212C17.8759 20.3289 18.1443 19.5905 18.3776 18.7712C12.7776 18.5866 5.92926 17.652 2.58093 15.5982V18.3328ZM21.7959 8.69817C20.6526 8.6751 19.4859 8.69817 18.1793 8.74432C18.5876 9.12509 18.9609 9.52893 19.3109 9.94431C19.8943 9.67893 20.4426 9.59817 21.1193 9.73663C21.3293 9.37894 21.5626 9.03279 21.7959 8.69817ZM19.2759 12.7366C19.2759 13.4405 19.8359 14.0174 20.5476 14.0174C21.2476 14.0174 21.8193 13.4405 21.8193 12.7482C21.8224 12.5796 21.7915 12.412 21.7284 12.2554C21.6653 12.0987 21.5712 11.956 21.4517 11.8357C21.3323 11.7154 21.1898 11.6199 21.0325 11.5546C20.8753 11.4894 20.7065 11.4558 20.5359 11.4559C19.8359 11.4559 19.2759 12.0328 19.2759 12.7366ZM19.486 21.0674H19.6026V20.7443L19.486 21.0674Z" fill="#2C2A2B"/>
</svg>
