<svg width="44" height="48" viewBox="0 0 44 48" fill="none" xmlns="http://www.w3.org/2000/svg">
<g clip-path="url(#clip0_2294_81913)">
<path d="M20.7849 48L6.23106 35.453L6.16498 35.2967L0.585938 21.5888L7.67548 11.8772L7.76364 11.8102L23.4641 0L36.9374 11.5312L43.5859 24.9042L36.1767 35.174L20.7849 48ZM18.8554 44.4279L13.8277 32.9637L10.9611 30.586L7.488 34.627L18.8554 44.4279ZM3.15486 24.0893L7.2565 34.1581L10.5861 30.2735L3.15486 24.0893ZM27.8634 21.1088L24.3792 18.2512L15.1949 25.7302L18.4364 28.4651L27.8634 21.1088ZM15.5257 10.9954L10.0129 15.5386L14.8972 25.3507L24.0044 17.9386L15.5257 10.9954ZM2.5375 21.6893L11.5345 29.1684L14.4672 25.7526L14.4342 25.7191L14.5113 25.6633L9.63795 15.84L2.5375 21.6893ZM14.4232 31.5795L18.0395 28.7665L14.8422 26.0651L11.8983 29.4809L14.4232 31.5795ZM34.8206 34.426L33.707 32.1712L27.8413 36.7256L22.7806 44.4614L34.8206 34.426ZM19.1641 29.7153L15.3051 32.7405L21.0715 45.8791L21.5126 45.5107L27.3452 36.6028L19.1641 29.7153ZM28.7565 22.2363L19.561 29.414L27.665 36.2456L33.4864 31.7247L28.7565 22.2363ZM41.91 24.7702L41.6896 24.3237L32.869 17.4809L29.8701 21.2205L34.6442 30.8205L41.2264 25.7079L41.91 24.7702ZM36.2207 13.3284L33.1778 17.1014L41.1823 23.3191L36.2207 13.3284ZM35.8349 33.2205L40.2451 27.0809L34.8646 31.267L35.8349 33.2205ZM5.35999 17.4921L8.97643 14.5228L8.39204 13.3395L5.35999 17.4921ZM15.0295 9.53302L18.4474 5.5814L8.71183 12.9154L9.35127 14.2102L15.0295 9.53302ZM28.9218 20.1042L31.7334 16.5879L29.0211 14.4781L25.5259 17.3247L28.9218 20.1042ZM35.3609 12.0893L24.4675 2.76837L29.2085 14.0205L32.0421 16.2195L35.3609 12.0893ZM23.5083 1.94233L16.5621 9.96836L25.1511 17.0121L28.7234 14.1098L23.6516 2.06512L23.5083 1.94233Z" fill="#2C2A2B"/>
</g>
<defs>
<clipPath id="clip0_2294_81913">
<rect width="43" height="48" fill="white" transform="translate(0.585938)"/>
</clipPath>
</defs>
</svg>
