<svg width="52" height="41" viewBox="0 0 52 41" fill="none" xmlns="http://www.w3.org/2000/svg">
<path d="M18.5581 25.6559C18.5586 24.4449 18.8511 23.2517 19.4107 22.1769C19.9704 21.1021 20.781 20.1771 21.7742 19.4799C22.7673 18.7826 23.914 18.3336 25.1176 18.1704C26.3212 18.0073 27.5466 18.135 28.6904 18.5426C29.8342 18.9502 30.8631 19.6259 31.6902 20.5128C32.5174 21.3996 33.1186 22.4717 33.4434 23.6386C33.7681 24.8055 33.8069 26.0332 33.5563 27.2182C33.3058 28.4031 32.7733 29.5107 32.0037 30.4477L30.7017 29.3801C31.3998 28.5168 31.8395 27.4746 31.9703 26.3734C32.1011 25.2721 31.9178 24.1564 31.4413 23.1544C30.9648 22.1523 30.2145 21.3046 29.2765 20.7085C28.3386 20.1124 27.251 19.7921 26.1387 19.7844C25.1966 19.7803 24.2673 20.0012 23.4283 20.4285C22.5894 20.8558 21.8653 21.4771 21.3165 22.2405C20.7676 23.0039 20.4101 23.8872 20.2738 24.8165C20.1375 25.7459 20.2262 26.6943 20.5328 27.5824C20.8393 28.4705 21.3547 29.2725 22.0358 29.9215C22.7169 30.5704 23.5439 31.0473 24.4476 31.3124C25.3514 31.5774 26.3057 31.6229 27.2307 31.4451C28.1558 31.2672 29.0247 30.8711 29.7648 30.29L30.7991 31.6244C29.6796 32.4943 28.3375 33.0335 26.9258 33.1804C25.5141 33.3273 24.0893 33.0762 22.8137 32.4555C21.5381 31.8348 20.4629 30.8695 19.7106 29.6695C18.9582 28.4696 18.5589 27.0831 18.5581 25.668V25.6559ZM30.3488 25.6559C30.3488 26.7707 29.9046 27.8398 29.1139 28.6281C28.3233 29.4164 27.2508 29.8593 26.1326 29.8593C25.0144 29.8593 23.942 29.4164 23.1513 28.6281C22.3606 27.8398 21.9164 26.7707 21.9164 25.6559C21.9164 24.5411 22.3606 23.4719 23.1513 22.6836C23.942 21.8953 25.0144 21.4524 26.1326 21.4524C27.2508 21.4524 28.3233 21.8953 29.1139 22.6836C29.9046 23.4719 30.3488 24.5411 30.3488 25.6559ZM28.6575 25.6559C28.6816 25.3106 28.6341 24.9641 28.5181 24.6379C28.4021 24.3117 28.22 24.0128 27.9832 23.7597C27.7464 23.5067 27.4599 23.3049 27.1416 23.1669C26.8232 23.0289 26.4798 22.9577 26.1326 22.9577C25.7855 22.9577 25.4421 23.0289 25.1237 23.1669C24.8053 23.3049 24.5188 23.5067 24.282 23.7597C24.0452 24.0128 23.8631 24.3117 23.7472 24.6379C23.6312 24.9641 23.5837 25.3106 23.6078 25.6559C23.6522 26.2933 23.9375 26.8902 24.4061 27.326C24.8747 27.7619 25.4917 28.0043 26.1326 28.0043C26.7735 28.0043 27.3905 27.7619 27.8591 27.326C28.3277 26.8902 28.6131 26.2933 28.6575 25.6559ZM51.6793 25.6559L51.1683 26.226C47.6614 29.6891 43.4741 32.3918 38.8694 34.1642C34.2647 35.9366 29.3421 36.7405 24.4109 36.5254C20.5658 36.489 11.1113 36.7922 7.3757 40.5286L6.18318 39.3398C8.56811 36.9621 12.7783 35.8218 16.7329 35.288C10.83 33.657 5.44877 30.5359 1.10915 26.226L0.585938 25.6559L1.03615 25.1706C1.36468 24.5519 3.16551 21.4221 6.7794 18.2923V11.3775C6.7794 9.9946 5.64783 8.86641 4.24851 8.86641H3.40892V7.19231H4.26069C6.57261 7.19231 8.45859 9.07264 8.45859 11.3897V16.9336C10.5209 15.4019 12.7853 14.161 15.1875 13.2457V6.35526C15.1875 4.96018 14.0559 3.83199 12.6687 3.83199H11.817V2.1579H12.6687C14.9807 2.1579 16.8789 4.03822 16.8789 6.35526V12.6634C19.6089 11.8251 22.4431 11.3719 25.2991 11.3169V4.66904C25.2991 2.36412 27.1852 0.47168 29.4971 0.47168H30.3488V2.1579H29.4971C28.1099 2.1579 26.9783 3.28609 26.9783 4.66904V11.3169C30.1177 11.3897 32.9163 11.8871 35.3985 12.6513V6.34314C35.3985 4.03822 37.2846 2.1579 39.5965 2.1579H40.4483V3.83199H39.5965C38.2094 3.83199 37.0777 4.96018 37.0777 6.35526V13.2457C39.7182 14.2526 41.945 15.5506 43.8067 16.9336V11.4018C43.8067 9.0969 45.6927 7.20444 48.0167 7.20444H48.8685V8.87854H48.0167C46.6296 8.87854 45.498 10.0067 45.498 11.4018V18.3044C47.7868 20.2556 49.725 22.5817 51.2291 25.1828L51.6793 25.6559ZM26.1265 16.4362C23.7728 16.5852 21.5646 17.6228 19.9512 19.3378C18.3378 21.0528 17.4405 23.3163 17.4421 25.6676C17.4436 28.0189 18.3439 30.2813 19.9595 31.9941C21.5752 33.707 23.7848 34.7417 26.1387 34.8877C28.5125 34.7663 30.7488 33.7407 32.386 32.0227C34.0231 30.3047 34.9359 28.0256 34.9359 25.6559C34.9359 23.2862 34.0231 21.007 32.386 19.289C30.7488 17.571 28.5125 16.5455 26.1387 16.4241L26.1265 16.4362ZM44.3542 19.4811C39.3653 15.1625 33.2205 12.9789 26.1387 12.9789C19.0448 12.9789 12.9121 15.1625 7.91109 19.4811L6.7673 20.5244C12.5285 16.7725 19.2573 14.7666 26.1387 14.75C34.5833 14.75 41.1905 17.7585 45.498 20.5244C45.1329 20.1847 44.7679 19.8329 44.3542 19.4811ZM2.92217 25.668C7.53231 29.8859 13.178 32.8153 19.2881 34.1598C18.0095 33.1391 16.9774 31.845 16.2681 30.373C15.5589 28.901 15.1906 27.2889 15.1906 25.6559C15.1906 24.0229 15.5589 22.4107 16.2681 20.9388C16.9774 19.4668 18.0095 18.1726 19.2881 17.152C13.1747 18.4945 7.52759 21.4288 2.92217 25.6559V25.668ZM49.3431 25.668C44.7357 21.4413 39.0898 18.5034 32.9771 17.152C34.2558 18.1726 35.2879 19.4668 35.9971 20.9388C36.7064 22.4107 37.0747 24.0229 37.0747 25.6559C37.0747 27.2889 36.7064 28.901 35.9971 30.373C35.2879 31.845 34.2558 33.1391 32.9771 34.1598C39.0893 32.8208 44.7363 29.8907 49.3431 25.668Z" fill="#2C2A2B"/>
</svg>
