<svg width="32" height="18" viewBox="0 0 32 18" fill="none" xmlns="http://www.w3.org/2000/svg">
<g id="Group">
<path id="Vector" d="M31.7885 8.46434L24.5159 1.19172C24.2547 0.886666 23.7956 0.851104 23.4905 1.11241C23.1855 1.37366 23.1499 1.83277 23.4112 2.13783C23.4356 2.16627 23.4621 2.19283 23.4905 2.21714L29.5195 8.25341H0.727237C0.325619 8.25341 0 8.57903 0 8.98071C0 9.38239 0.325619 9.70795 0.727237 9.70795H29.5195L23.4905 15.7369C23.1855 15.9982 23.1499 16.4573 23.4112 16.7623C23.6725 17.0674 24.1316 17.1029 24.4366 16.8416C24.4651 16.8173 24.4916 16.7908 24.5159 16.7623L31.7886 9.4897C32.0705 9.20615 32.0705 8.74803 31.7885 8.46434Z" fill="#616161"/>
</g>
</svg>
