<svg width="32" height="32" viewBox="0 0 32 32" fill="none" xmlns="http://www.w3.org/2000/svg">
<path d="M31.7885 15.4643L24.5159 8.19172C24.2547 7.88667 23.7956 7.8511 23.4905 8.11241C23.1855 8.37366 23.1499 8.83277 23.4112 9.13783C23.4356 9.16627 23.4621 9.19283 23.4905 9.21714L29.5195 15.2534H0.727237C0.325619 15.2534 0 15.579 0 15.9807C0 16.3824 0.325619 16.7079 0.727237 16.7079H29.5195L23.4905 22.7369C23.1855 22.9982 23.1499 23.4573 23.4112 23.7623C23.6725 24.0674 24.1316 24.1029 24.4366 23.8416C24.4651 23.8173 24.4916 23.7908 24.5159 23.7623L31.7886 16.4897C32.0705 16.2061 32.0705 15.748 31.7885 15.4643Z" fill="#DEDEDE"/>
</svg>
