<svg width="24" height="18" viewBox="-4.5 0 24 18" fill="none" xmlns="http://www.w3.org/2000/svg">
<path fill-rule="evenodd" clip-rule="evenodd" d="M5.32452 3.88955C5.32452 2.83039 6.16965 1.98828 7.19194 1.98828C8.21423 1.98828 9.05936 2.83039 9.05936 3.88955V4.02263H5.32452V3.88955ZM3.82452 5.52263V6.54081C3.82452 6.95502 4.16031 7.29081 4.57452 7.29081C4.98874 7.29081 5.32452 6.95502 5.32452 6.54081V5.52263H9.05936V6.54081C9.05936 6.95502 9.39515 7.29081 9.80936 7.29081C10.2236 7.29081 10.5594 6.95502 10.5594 6.54081V5.52263H11.7329L12.4914 15.5114H1.89505L2.65362 5.52263H3.82452ZM3.82452 4.02263V3.88955C3.82452 2.02019 5.32311 0.488281 7.19194 0.488281C9.06077 0.488281 10.5594 2.02019 10.5594 3.88955V4.02263H12.4281C12.8203 4.02263 13.1462 4.32478 13.1759 4.71584L14.0484 16.2047C14.0642 16.4128 13.9925 16.6182 13.8506 16.7713C13.7087 16.9244 13.5093 17.0114 13.3006 17.0114H1.08594C0.877159 17.0114 0.677827 16.9244 0.535897 16.7713C0.393966 16.6182 0.322283 16.4128 0.338093 16.2047L1.21057 4.71584C1.24026 4.32478 1.56623 4.02263 1.95841 4.02263H3.82452Z" fill="#423232"/>
</svg>
