<svg width="32" height="25" viewBox="-5.5 0 32 25" fill="none" xmlns="http://www.w3.org/2000/svg">
<g id="Group 21271">
<path id="Union" fill-rule="evenodd" clip-rule="evenodd" d="M7.59668 4.82303C7.59668 2.97866 9.07023 1.5 10.8677 1.5C12.6652 1.5 14.1388 2.97866 14.1388 4.82303V5.43036H7.59668V4.82303ZM6.09668 6.93036V8.89607C6.09668 9.31028 6.43247 9.64607 6.84668 9.64607C7.2609 9.64607 7.59668 9.31028 7.59668 8.89607V6.93036H14.1388V8.89607C14.1388 9.31028 14.4745 9.64607 14.8888 9.64607C15.303 9.64607 15.6388 9.31028 15.6388 8.89607V6.93036H18.2137L19.4401 23.0802H2.29349L3.51993 6.93036H6.09668ZM6.09668 5.43036V4.82303C6.09668 2.16846 8.22369 0 10.8677 0C13.5117 0 15.6388 2.16846 15.6388 4.82303V5.43036H18.9089C19.3011 5.43036 19.627 5.73251 19.6567 6.12357L20.9971 23.7734C21.0129 23.9816 20.9412 24.1869 20.7993 24.34C20.6573 24.4932 20.458 24.5802 20.2492 24.5802H1.48438C1.2756 24.5802 1.07626 24.4932 0.934334 24.34C0.792404 24.1869 0.720721 23.9816 0.73653 23.7734L2.07688 6.12357C2.10657 5.73251 2.43254 5.43036 2.82472 5.43036H6.09668Z" fill="#252423"/>
</g>
</svg>
