<svg width="28" height="25" viewBox="-3.5 0 28 25" fill="none" xmlns="http://www.w3.org/2000/svg">
<g id="Group 21271">
<path id="Union" fill-rule="evenodd" clip-rule="evenodd" d="M6.93653 4.99979C6.93653 3.15542 8.41007 1.67676 10.2076 1.67676C12.0051 1.67676 13.4786 3.15542 13.4786 4.99979V5.60712H6.93653V4.99979ZM5.43653 7.10712V9.07283C5.43653 9.48704 5.77231 9.82283 6.18653 9.82283C6.60074 9.82283 6.93653 9.48704 6.93653 9.07283V7.10712H13.4786V9.07283C13.4786 9.48704 13.8144 9.82283 14.2286 9.82283C14.6428 9.82283 14.9786 9.48704 14.9786 9.07283V7.10712H17.5535L18.7799 23.2569H1.63334L2.85977 7.10712H5.43653ZM5.43653 5.60712V4.99979C5.43653 2.34522 7.56354 0.176758 10.2076 0.176758C12.8516 0.176758 14.9786 2.34522 14.9786 4.99979V5.60712H18.2487C18.6409 5.60712 18.9669 5.90927 18.9966 6.30033L20.3369 23.9501C20.3527 24.1583 20.281 24.3637 20.1391 24.5168C19.9972 24.6699 19.7978 24.7569 19.5891 24.7569H0.824221C0.61544 24.7569 0.416109 24.6699 0.274178 24.5168C0.132247 24.3637 0.0605647 24.1583 0.0763742 23.9501L1.41672 6.30033C1.44642 5.90927 1.77238 5.60712 2.16457 5.60712H5.43653Z" fill="#DEDEDE"/>
</g>
</svg>
