<svg width="32" height="26" viewBox="-5.5 0 32 26" fill="none" xmlns="http://www.w3.org/2000/svg">
<g id="Group 21271">
<path id="Union" fill-rule="evenodd" clip-rule="evenodd" d="M7.59766 5.53299C7.59766 3.68862 9.07121 2.20996 10.8687 2.20996C12.6662 2.20996 14.1397 3.68862 14.1397 5.53299V6.14033H7.59766V5.53299ZM6.09766 7.64033V9.60603C6.09766 10.0202 6.43344 10.356 6.84766 10.356C7.26187 10.356 7.59766 10.0202 7.59766 9.60603V7.64033H14.1397V9.60603C14.1397 10.0202 14.4755 10.356 14.8897 10.356C15.3039 10.356 15.6397 10.0202 15.6397 9.60603V7.64033H18.2146L19.4411 23.7901H2.29447L3.5209 7.64033H6.09766ZM6.09766 6.14033V5.53299C6.09766 2.87842 8.22467 0.709961 10.8687 0.709961C13.5127 0.709961 15.6397 2.87842 15.6397 5.53299V6.14033H18.9099C19.302 6.14033 19.628 6.44247 19.6577 6.83353L20.998 24.4833C21.0139 24.6915 20.9422 24.8969 20.8002 25.05C20.6583 25.2031 20.459 25.2901 20.2502 25.2901H1.48535C1.27657 25.2901 1.07724 25.2031 0.935311 25.05C0.79338 24.8969 0.721698 24.6915 0.737507 24.4833L2.07785 6.83353C2.10755 6.44247 2.43352 6.14033 2.8257 6.14033H6.09766Z" fill="#E8AB74"/>
</g>
</svg>
