<svg width="16" height="16" viewBox="0 0 16 16" fill="none" xmlns="http://www.w3.org/2000/svg">
<g id="grid">
<path id="Vector" d="M2 4.33333C2 5.622 3.04467 6.66667 4.33333 6.66667C5.622 6.66667 6.66667 5.622 6.66667 4.33333C6.66667 3.04467 5.622 2 4.33333 2C3.04467 2 2 3.04467 2 4.33333Z" fill="white"/>
<path id="Vector_2" d="M9.33203 4.33333C9.33203 5.622 10.3767 6.66667 11.6654 6.66667C12.954 6.66667 13.9987 5.622 13.9987 4.33333C13.9987 3.04467 12.954 2 11.6654 2C10.3767 2 9.33203 3.04467 9.33203 4.33333Z" fill="white"/>
<path id="Vector_3" d="M9.33203 11.6663C9.33203 12.955 10.3767 13.9997 11.6654 13.9997C12.954 13.9997 13.9987 12.955 13.9987 11.6663C13.9987 10.3777 12.954 9.33301 11.6654 9.33301C10.3767 9.33301 9.33203 10.3777 9.33203 11.6663Z" fill="white"/>
<path id="Vector_4" d="M2 11.6663C2 12.955 3.04467 13.9997 4.33333 13.9997C5.622 13.9997 6.66667 12.955 6.66667 11.6663C6.66667 10.3777 5.622 9.33301 4.33333 9.33301C3.04467 9.33301 2 10.3777 2 11.6663Z" fill="white"/>
</g>
</svg>
