<svg width="46" height="46" viewBox="0 0 46 46" fill="none" xmlns="http://www.w3.org/2000/svg">
<g clip-path="url(#clip0_2294_85684)">
<path d="M35.2781 20.0736C34.7314 19.8395 32.3889 20.0995 31.7374 19.511C31.2787 19.0874 31.2495 18.3204 31.0692 17.2983C30.7696 15.5851 30.6444 15.1974 30.3322 14.5226C29.1966 12.1208 26.4723 10.0625 23.9979 10.0625H18.262C13.7497 10.0625 10.0625 13.7451 10.0625 18.2407V27.7764C10.0625 32.2624 13.7497 35.9375 18.262 35.9375H27.6855C32.1977 35.9375 35.8595 32.2624 35.8857 27.776L35.9375 21.1716C35.9375 21.1716 35.9375 20.3549 35.2781 20.0736ZM18.3659 16.7399H22.9132C23.7808 16.7399 24.4845 17.3405 24.4845 18.1956C24.4845 19.0524 23.7808 19.6613 22.9132 19.6613H18.3659C17.4982 19.6613 16.7954 19.0524 16.7954 18.1956C16.7958 17.3405 17.4982 16.7399 18.3659 16.7399ZM27.6074 29.2601H18.3659C17.4982 29.2601 16.7954 28.4375 16.7954 27.5916C16.7954 26.7356 17.4982 25.9214 18.3659 25.9214H27.6074C28.4667 25.9214 29.1695 26.7356 29.1695 27.5916C29.1695 28.4375 28.4667 29.2601 27.6074 29.2601Z" fill="#FB6620"/>
<path d="M35.2782 20.0734C34.7315 19.8393 32.3889 20.0993 31.7375 19.5108C31.5922 19.3764 31.4929 19.2037 31.4149 19.0029C31.028 21.7486 29.9195 24.0878 28.1129 26.0176C28.7648 26.2667 29.17 26.9549 29.17 27.6798C29.17 28.5258 28.4668 29.2594 27.6079 29.2594H23.6853C22.0556 30.0941 20.254 30.3591 18.358 30.3591C15.2146 30.3591 12.3296 29.2327 10.063 27.3969V27.7754C10.0626 32.2622 13.7498 35.9373 18.262 35.9373H27.6855C32.1978 35.9373 35.8595 32.2622 35.8858 27.7758L35.9376 21.1714C35.9376 21.1714 35.9376 20.3547 35.2782 20.0734Z" fill="#EF5830"/>
<path d="M18.3658 20.9133H22.9131C23.7808 20.9133 24.4982 19.443 24.4982 18.587C24.4982 18.4092 24.4898 18.4927 24.3922 18.7143C24.128 19.3027 23.6009 19.6617 22.9131 19.6617H18.3658C17.6785 19.6617 17.118 19.2702 16.888 18.7055C16.797 18.4643 16.7908 18.4259 16.7908 18.6037C16.7908 19.4597 17.4982 20.9133 18.3658 20.9133Z" fill="#F9A121"/>
<path d="M18.262 10.8972H23.9974C26.4723 10.8972 29.1962 13.0436 30.3322 15.4453C30.6444 16.1202 30.7696 16.5517 31.0692 18.2653C31.2495 19.2874 31.2787 20.0765 31.7374 20.4997C32.3893 21.0878 34.7318 20.839 35.2781 21.0731C35.8019 21.2964 35.9083 21.8569 35.9304 22.0785L35.9375 21.1687C35.9375 21.1687 35.9375 20.3537 35.2781 20.0724C34.7314 19.8382 32.3889 20.0982 31.7374 19.5102C31.2787 19.0866 31.2495 18.32 31.0692 17.2979C30.7696 15.5847 30.6444 15.1974 30.3322 14.5226C29.1966 12.1208 26.4723 10.0625 23.9979 10.0625H18.262C13.7497 10.0625 10.0625 13.7451 10.0625 18.2407V19.2515C10.0625 14.7559 13.7497 10.8972 18.262 10.8972Z" fill="#F9A121"/>
<path d="M18.3659 30.0947H27.6074C28.4667 30.0947 29.2067 28.8356 29.2067 27.9888C29.2067 27.8102 29.215 27.7505 29.0765 28.152C28.8035 28.7383 28.2873 29.26 27.6074 29.26H18.3659C17.6789 29.26 17.1898 28.7642 16.929 28.2167C16.7988 27.8511 16.7783 27.8377 16.7783 28.0155C16.7783 28.8623 17.4982 30.0947 18.3659 30.0947Z" fill="#F9A121"/>
</g>
<defs>
<clipPath id="clip0_2294_85684">
<rect width="25.875" height="25.875" fill="white" transform="translate(10.0625 10.0625)"/>
</clipPath>
</defs>
</svg>
