<svg width="46" height="46" viewBox="0 0 46 46" fill="none" xmlns="http://www.w3.org/2000/svg">
<g id="mailru-icon">
<path id="Vector" d="M26.8918 23C26.8918 25.146 25.146 26.8918 23 26.8918C20.854 26.8918 19.1082 25.146 19.1082 23C19.1082 20.854 20.854 19.1082 23 19.1082C25.146 19.1082 26.8918 20.854 26.8918 23ZM23 10.0625C15.8666 10.0625 10.0625 15.8666 10.0625 23C10.0625 30.1334 15.8666 35.9375 23 35.9375C25.6134 35.9375 28.1338 35.1596 30.2879 33.6872L30.3251 33.6613L28.5817 31.635L28.5526 31.6544C26.8942 32.7209 24.9738 33.2853 23 33.2853C17.3285 33.2853 12.7147 28.6715 12.7147 23C12.7147 17.3285 17.3285 12.7147 23 12.7147C28.6715 12.7147 33.2853 17.3285 33.2853 23C33.2853 23.735 33.2036 24.4789 33.0427 25.2107C32.7177 26.5457 31.7829 26.9548 31.0811 26.9007C30.3752 26.8432 29.5496 26.3403 29.5439 25.1096V24.1717V23C29.5439 19.3912 26.6088 16.4561 23 16.4561C19.3912 16.4561 16.4561 19.3912 16.4561 23C16.4561 26.6088 19.3912 29.5439 23 29.5439C24.753 29.5439 26.3969 28.8583 27.6365 27.6122C28.3569 28.7337 29.5318 29.4372 30.8684 29.5439C30.9832 29.5537 31.1005 29.5585 31.2169 29.5585C32.1573 29.5585 33.0904 29.244 33.8424 28.6723C34.6179 28.0836 35.1968 27.2322 35.517 26.2093C35.568 26.0444 35.6618 25.6659 35.6626 25.6635L35.665 25.6498C35.8534 24.829 35.9375 24.0107 35.9375 23C35.9375 15.8666 30.1334 10.0625 23 10.0625Z" fill="#FF9E00"/>
</g>
</svg>
