<svg width="32" height="25" viewBox="0 0 32 25" fill="none" xmlns="http://www.w3.org/2000/svg">
<mask id="path-1-inside-1_4022_21539" fill="white">
<path d="M11.3299 15.7177C11.3302 14.9619 11.5128 14.2173 11.8621 13.5465C12.2114 12.8757 12.7173 12.2984 13.3371 11.8632C13.9569 11.4281 14.6726 11.1478 15.4238 11.046C16.175 10.9442 16.9397 11.0239 17.6536 11.2783C18.3675 11.5327 19.0096 11.9544 19.5258 12.5079C20.0421 13.0614 20.4173 13.7305 20.62 14.4587C20.8227 15.187 20.8469 15.9532 20.6905 16.6928C20.5341 17.4323 20.2018 18.1236 19.7215 18.7084L18.9089 18.0421C19.3446 17.5033 19.619 16.8529 19.7006 16.1656C19.7823 15.4783 19.6678 14.7819 19.3705 14.1565C19.0731 13.5312 18.6048 13.0021 18.0194 12.63C17.434 12.258 16.7553 12.0581 16.0611 12.0533C15.4731 12.0508 14.8931 12.1886 14.3695 12.4553C13.8459 12.7219 13.394 13.1097 13.0514 13.5862C12.7089 14.0626 12.4858 14.6139 12.4007 15.1939C12.3156 15.7739 12.371 16.3658 12.5623 16.9201C12.7537 17.4744 13.0753 17.975 13.5004 18.3799C13.9255 18.7849 14.4416 19.0826 15.0057 19.248C15.5697 19.4135 16.1653 19.4419 16.7426 19.3309C17.3199 19.2198 17.8622 18.9727 18.3241 18.6099L18.9697 19.4428C18.271 19.9857 17.4334 20.3222 16.5523 20.4139C15.6712 20.5056 14.782 20.3488 13.9859 19.9615C13.1898 19.5741 12.5187 18.9716 12.0492 18.2227C11.5796 17.4738 11.3304 16.6085 11.3299 15.7253V15.7177ZM18.6886 15.7177C18.6886 16.4135 18.4114 17.0808 17.9179 17.5728C17.4245 18.0648 16.7552 18.3412 16.0573 18.3412C15.3594 18.3412 14.6901 18.0648 14.1966 17.5728C13.7031 17.0808 13.4259 16.4135 13.4259 15.7177C13.4259 15.022 13.7031 14.3547 14.1966 13.8627C14.6901 13.3707 15.3594 13.0943 16.0573 13.0943C16.7552 13.0943 17.4245 13.3707 17.9179 13.8627C18.4114 14.3547 18.6886 15.022 18.6886 15.7177ZM17.6331 15.7177C17.6481 15.5023 17.6185 15.286 17.5461 15.0824C17.4737 14.8788 17.36 14.6923 17.2122 14.5343C17.0645 14.3764 16.8856 14.2505 16.6869 14.1644C16.4883 14.0783 16.2739 14.0338 16.0573 14.0338C15.8406 14.0338 15.6263 14.0783 15.4276 14.1644C15.2289 14.2505 15.0501 14.3764 14.9023 14.5343C14.7545 14.6923 14.6409 14.8788 14.5685 15.0824C14.4961 15.286 14.4665 15.5023 14.4815 15.7177C14.5092 16.1156 14.6873 16.4881 14.9797 16.7601C15.2722 17.0321 15.6573 17.1834 16.0573 17.1834C16.4573 17.1834 16.8423 17.0321 17.1348 16.7601C17.4273 16.4881 17.6054 16.1156 17.6331 15.7177ZM32.0013 15.7177L31.6823 16.0736C29.4937 18.2349 26.8803 19.9217 24.0065 21.0279C21.1326 22.1341 18.0604 22.6358 14.9827 22.5015C12.5829 22.4788 6.68226 22.6681 4.35085 25L3.60659 24.258C5.09505 22.7741 7.72267 22.0624 10.1908 21.7293C6.50672 20.7114 3.14823 18.7634 0.439826 16.0736L0.113281 15.7177L0.394262 15.4149C0.599305 15.0288 1.72322 13.0754 3.9787 11.122V6.80648C3.9787 5.94336 3.27247 5.23925 2.39914 5.23925H1.87514V4.19442H2.40674C3.84963 4.19442 5.0267 5.36796 5.0267 6.81405V10.2741C6.31384 9.31814 7.72702 8.54364 9.2263 7.97244V3.67201C9.2263 2.80133 8.52004 2.09721 7.6543 2.09721H7.1227V1.05239H7.6543C9.0972 1.05239 10.2819 2.22592 10.2819 3.67201V7.60902C11.9857 7.08583 13.7546 6.80295 15.5371 6.76862V2.61962C15.5371 1.1811 16.7142 0 18.1571 0H18.6886V1.05239H18.1571C17.2913 1.05239 16.5851 1.75651 16.5851 2.61962V6.76862C18.5444 6.81404 20.291 7.12447 21.8402 7.60145V3.66444C21.8402 2.22592 23.0173 1.05239 24.4602 1.05239H24.9918V2.09721H24.4602C23.5945 2.09721 22.8882 2.80133 22.8882 3.67201V7.97244C24.5362 8.60085 25.9259 9.41096 27.0878 10.2741V6.82162C27.0878 5.3831 28.2649 4.20199 29.7154 4.20199H30.247V5.24682H29.7154C28.8497 5.24682 28.1434 5.95094 28.1434 6.82162V11.1296C29.5719 12.3474 30.7815 13.7991 31.7203 15.4225L32.0013 15.7177ZM16.0535 9.96365C14.5845 10.0566 13.2063 10.7042 12.1994 11.7746C11.1924 12.8449 10.6324 14.2576 10.6334 15.7251C10.6344 17.1925 11.1962 18.6045 12.2046 19.6735C13.2129 20.7426 14.592 21.3883 16.0611 21.4794C17.5426 21.4037 18.9383 20.7636 19.96 19.6914C20.9818 18.6192 21.5515 17.1967 21.5515 15.7177C21.5515 14.2388 20.9818 12.8163 19.96 11.7441C18.9383 10.6719 17.5426 10.0318 16.0611 9.95609L16.0535 9.96365ZM27.4295 11.864C24.3159 9.16869 20.4809 7.80588 16.0611 7.80588C11.6337 7.80588 7.8062 9.16869 4.685 11.864L3.97114 12.5151C7.56675 10.1735 11.7663 8.92165 16.0611 8.91126C21.3314 8.91126 25.4551 10.7889 28.1434 12.5151C27.9156 12.3032 27.6877 12.0836 27.4295 11.864ZM1.57135 15.7253C4.44859 18.3578 7.97212 20.186 11.7855 21.0251C10.9875 20.3881 10.3434 19.5804 9.90071 18.6618C9.45805 17.7431 9.2282 16.7369 9.2282 15.7177C9.2282 14.6986 9.45805 13.6924 9.90071 12.7737C10.3434 11.8551 10.9875 11.0474 11.7855 10.4104C7.9701 11.2482 4.44565 13.0796 1.57135 15.7177V15.7253ZM30.5432 15.7253C27.6677 13.0874 24.144 11.2538 20.329 10.4104C21.127 11.0474 21.7712 11.8551 22.2138 12.7737C22.6565 13.6924 22.8863 14.6986 22.8863 15.7177C22.8863 16.7369 22.6565 17.7431 22.2138 18.6618C21.7712 19.5804 21.127 20.3881 20.329 21.0251C24.1437 20.1894 27.668 18.3607 30.5432 15.7253Z"/>
</mask>
<path d="M11.3299 15.7177C11.3302 14.9619 11.5128 14.2173 11.8621 13.5465C12.2114 12.8757 12.7173 12.2984 13.3371 11.8632C13.9569 11.4281 14.6726 11.1478 15.4238 11.046C16.175 10.9442 16.9397 11.0239 17.6536 11.2783C18.3675 11.5327 19.0096 11.9544 19.5258 12.5079C20.0421 13.0614 20.4173 13.7305 20.62 14.4587C20.8227 15.187 20.8469 15.9532 20.6905 16.6928C20.5341 17.4323 20.2018 18.1236 19.7215 18.7084L18.9089 18.0421C19.3446 17.5033 19.619 16.8529 19.7006 16.1656C19.7823 15.4783 19.6678 14.7819 19.3705 14.1565C19.0731 13.5312 18.6048 13.0021 18.0194 12.63C17.434 12.258 16.7553 12.0581 16.0611 12.0533C15.4731 12.0508 14.8931 12.1886 14.3695 12.4553C13.8459 12.7219 13.394 13.1097 13.0514 13.5862C12.7089 14.0626 12.4858 14.6139 12.4007 15.1939C12.3156 15.7739 12.371 16.3658 12.5623 16.9201C12.7537 17.4744 13.0753 17.975 13.5004 18.3799C13.9255 18.7849 14.4416 19.0826 15.0057 19.248C15.5697 19.4135 16.1653 19.4419 16.7426 19.3309C17.3199 19.2198 17.8622 18.9727 18.3241 18.6099L18.9697 19.4428C18.271 19.9857 17.4334 20.3222 16.5523 20.4139C15.6712 20.5056 14.782 20.3488 13.9859 19.9615C13.1898 19.5741 12.5187 18.9716 12.0492 18.2227C11.5796 17.4738 11.3304 16.6085 11.3299 15.7253V15.7177ZM18.6886 15.7177C18.6886 16.4135 18.4114 17.0808 17.9179 17.5728C17.4245 18.0648 16.7552 18.3412 16.0573 18.3412C15.3594 18.3412 14.6901 18.0648 14.1966 17.5728C13.7031 17.0808 13.4259 16.4135 13.4259 15.7177C13.4259 15.022 13.7031 14.3547 14.1966 13.8627C14.6901 13.3707 15.3594 13.0943 16.0573 13.0943C16.7552 13.0943 17.4245 13.3707 17.9179 13.8627C18.4114 14.3547 18.6886 15.022 18.6886 15.7177ZM17.6331 15.7177C17.6481 15.5023 17.6185 15.286 17.5461 15.0824C17.4737 14.8788 17.36 14.6923 17.2122 14.5343C17.0645 14.3764 16.8856 14.2505 16.6869 14.1644C16.4883 14.0783 16.2739 14.0338 16.0573 14.0338C15.8406 14.0338 15.6263 14.0783 15.4276 14.1644C15.2289 14.2505 15.0501 14.3764 14.9023 14.5343C14.7545 14.6923 14.6409 14.8788 14.5685 15.0824C14.4961 15.286 14.4665 15.5023 14.4815 15.7177C14.5092 16.1156 14.6873 16.4881 14.9797 16.7601C15.2722 17.0321 15.6573 17.1834 16.0573 17.1834C16.4573 17.1834 16.8423 17.0321 17.1348 16.7601C17.4273 16.4881 17.6054 16.1156 17.6331 15.7177ZM32.0013 15.7177L31.6823 16.0736C29.4937 18.2349 26.8803 19.9217 24.0065 21.0279C21.1326 22.1341 18.0604 22.6358 14.9827 22.5015C12.5829 22.4788 6.68226 22.6681 4.35085 25L3.60659 24.258C5.09505 22.7741 7.72267 22.0624 10.1908 21.7293C6.50672 20.7114 3.14823 18.7634 0.439826 16.0736L0.113281 15.7177L0.394262 15.4149C0.599305 15.0288 1.72322 13.0754 3.9787 11.122V6.80648C3.9787 5.94336 3.27247 5.23925 2.39914 5.23925H1.87514V4.19442H2.40674C3.84963 4.19442 5.0267 5.36796 5.0267 6.81405V10.2741C6.31384 9.31814 7.72702 8.54364 9.2263 7.97244V3.67201C9.2263 2.80133 8.52004 2.09721 7.6543 2.09721H7.1227V1.05239H7.6543C9.0972 1.05239 10.2819 2.22592 10.2819 3.67201V7.60902C11.9857 7.08583 13.7546 6.80295 15.5371 6.76862V2.61962C15.5371 1.1811 16.7142 0 18.1571 0H18.6886V1.05239H18.1571C17.2913 1.05239 16.5851 1.75651 16.5851 2.61962V6.76862C18.5444 6.81404 20.291 7.12447 21.8402 7.60145V3.66444C21.8402 2.22592 23.0173 1.05239 24.4602 1.05239H24.9918V2.09721H24.4602C23.5945 2.09721 22.8882 2.80133 22.8882 3.67201V7.97244C24.5362 8.60085 25.9259 9.41096 27.0878 10.2741V6.82162C27.0878 5.3831 28.2649 4.20199 29.7154 4.20199H30.247V5.24682H29.7154C28.8497 5.24682 28.1434 5.95094 28.1434 6.82162V11.1296C29.5719 12.3474 30.7815 13.7991 31.7203 15.4225L32.0013 15.7177ZM16.0535 9.96365C14.5845 10.0566 13.2063 10.7042 12.1994 11.7746C11.1924 12.8449 10.6324 14.2576 10.6334 15.7251C10.6344 17.1925 11.1962 18.6045 12.2046 19.6735C13.2129 20.7426 14.592 21.3883 16.0611 21.4794C17.5426 21.4037 18.9383 20.7636 19.96 19.6914C20.9818 18.6192 21.5515 17.1967 21.5515 15.7177C21.5515 14.2388 20.9818 12.8163 19.96 11.7441C18.9383 10.6719 17.5426 10.0318 16.0611 9.95609L16.0535 9.96365ZM27.4295 11.864C24.3159 9.16869 20.4809 7.80588 16.0611 7.80588C11.6337 7.80588 7.8062 9.16869 4.685 11.864L3.97114 12.5151C7.56675 10.1735 11.7663 8.92165 16.0611 8.91126C21.3314 8.91126 25.4551 10.7889 28.1434 12.5151C27.9156 12.3032 27.6877 12.0836 27.4295 11.864ZM1.57135 15.7253C4.44859 18.3578 7.97212 20.186 11.7855 21.0251C10.9875 20.3881 10.3434 19.5804 9.90071 18.6618C9.45805 17.7431 9.2282 16.7369 9.2282 15.7177C9.2282 14.6986 9.45805 13.6924 9.90071 12.7737C10.3434 11.8551 10.9875 11.0474 11.7855 10.4104C7.9701 11.2482 4.44565 13.0796 1.57135 15.7177V15.7253ZM30.5432 15.7253C27.6677 13.0874 24.144 11.2538 20.329 10.4104C21.127 11.0474 21.7712 11.8551 22.2138 12.7737C22.6565 13.6924 22.8863 14.6986 22.8863 15.7177C22.8863 16.7369 22.6565 17.7431 22.2138 18.6618C21.7712 19.5804 21.127 20.3881 20.329 21.0251C24.1437 20.1894 27.668 18.3607 30.5432 15.7253Z" fill="#CABDB2" stroke="#CABDB2" stroke-width="2" mask="url(#path-1-inside-1_4022_21539)"/>
<path d="M1.02018 15.2175C1.03228 15.2024 1.06167 15.1903 1.10752 15.1808C1.97677 14.4769 7.59119 9.40447 12.1796 8.26171C17.3591 6.9717 19.9784 7.87142 21.5 8.50293C23.0216 9.13444 29.4239 12.6875 30.9455 15.8491C32.4309 18.9354 2.98438 14.7924 1.10752 15.1808C0.995518 15.2715 0.962291 15.2896 1.02018 15.2175Z" fill="#CABDB2" stroke="#CABDB2"/>
</svg>
