<svg width="24" height="21" viewBox="-2 0 24 21" fill="none" xmlns="http://www.w3.org/2000/svg">
<g id="map-pin">
<path id="Vector (Stroke)" fill-rule="evenodd" clip-rule="evenodd" d="M10.0009 3.36025C8.45989 3.36025 6.982 3.96271 5.89234 5.03508C4.80269 6.10746 4.19052 7.56191 4.19052 9.07848C4.19052 11.2934 5.65399 13.438 7.25184 15.0979C8.03663 15.9132 8.82377 16.5805 9.41549 17.0442C9.64471 17.2238 9.84376 17.3722 10.0009 17.4862C10.158 17.3722 10.3571 17.2238 10.5863 17.0442C11.178 16.5805 11.9652 15.9132 12.75 15.0979C14.3478 13.438 15.8113 11.2934 15.8113 9.07848C15.8113 7.56191 15.1991 6.10746 14.1095 5.03508C13.0198 3.96271 11.5419 3.36025 10.0009 3.36025ZM10.0009 18.3204C9.61762 18.8862 9.61725 18.8859 9.61725 18.8859L9.61522 18.8846L9.61047 18.8814L9.59402 18.8705C9.58004 18.8611 9.56005 18.8477 9.53448 18.8303C9.48333 18.7954 9.40977 18.7446 9.31699 18.6786C9.13152 18.5468 8.86884 18.3543 8.55465 18.1081C7.92736 17.6165 7.08917 16.9064 6.24862 16.0332C4.5958 14.3163 2.80859 11.84 2.80859 9.07848C2.80859 7.20121 3.56635 5.40084 4.91517 4.07341C6.26399 2.74598 8.09338 2.00024 10.0009 2.00024C11.9084 2.00024 13.7378 2.74598 15.0866 4.07341C16.4355 5.40084 17.1932 7.20121 17.1932 9.07848C17.1932 11.84 15.406 14.3163 13.7532 16.0332C12.9126 16.9064 12.0744 17.6165 11.4472 18.1081C11.133 18.3543 10.8703 18.5468 10.6848 18.6786C10.592 18.7446 10.5185 18.7954 10.4673 18.8303C10.4418 18.8477 10.4218 18.8611 10.4078 18.8705L10.3913 18.8814L10.3866 18.8846L10.3851 18.8856C10.3851 18.8856 10.3842 18.8862 10.0009 18.3204ZM10.0009 18.3204L10.3842 18.8862C10.1521 19.0384 9.84934 19.0382 9.61725 18.8859L10.0009 18.3204Z" fill="#1E1D1B"/>
<path id="Vector" d="M10.0001 9.12008C10.9278 9.12008 11.6799 8.36801 11.6799 7.44029C11.6799 6.51257 10.9278 5.7605 10.0001 5.7605C9.07238 5.7605 8.32031 6.51257 8.32031 7.44029C8.32031 8.36801 9.07238 9.12008 10.0001 9.12008Z" stroke="#1E1D1B" stroke-width="1.11986" stroke-linecap="round" stroke-linejoin="round"/>
</g>
</svg>
