<svg width="28" height="29" viewBox="0 0 28 29" fill="none" xmlns="http://www.w3.org/2000/svg">
<g id="carbon:ibm-watson-knowledge-catalog">
<path id="Vector" d="M20.125 23.9309L17.85 21.6559L16.625 22.8809L20.125 26.3809L26.25 20.2559L25.025 19.0309L20.125 23.9309ZM10.5 15.8809H17.5V17.6309H10.5V15.8809ZM10.5 11.5059H17.5V13.2559H10.5V11.5059ZM10.5 7.13086H17.5V8.88086H10.5V7.13086Z" fill="#1E1D1B"/>
<path id="Vector_2" d="M14 24.6309H5.25V21.1309H7V19.3809H5.25V15.0059H7V13.2559H5.25V8.88086H7V7.13086H5.25V3.63086H21V17.6309H22.75V3.63086C22.75 2.66836 21.9625 1.88086 21 1.88086H5.25C4.2875 1.88086 3.5 2.66836 3.5 3.63086V7.13086H1.75V8.88086H3.5V13.2559H1.75V15.0059H3.5V19.3809H1.75V21.1309H3.5V24.6309C3.5 25.5934 4.2875 26.3809 5.25 26.3809H14V24.6309Z" fill="#1E1D1B"/>
</g>
</svg>
