<svg width="28" height="29" viewBox="0 0 28 29" fill="none" xmlns="http://www.w3.org/2000/svg">
<g id="cart">
<path id="Union" fill-rule="evenodd" clip-rule="evenodd" d="M7.37297 5.66058C7.37297 2.61765 10.3279 0.130859 14.0026 0.130859C17.6774 0.130859 20.6322 2.61765 20.6322 5.66058V6.29032H25.0555C25.6317 6.29032 26.1106 6.65663 26.1542 7.13073L27.9968 27.1528C28.0201 27.4051 27.9147 27.6541 27.7062 27.8397C27.4977 28.0254 27.2049 28.1309 26.8981 28.1309H1.10187C0.795141 28.1309 0.502291 28.0254 0.293772 27.8397C0.0852533 27.6541 -0.02006 27.4051 0.00316666 27.1528L1.84576 7.13073C1.88939 6.65663 2.36828 6.29032 2.94446 6.29032H7.37297V5.66058ZM9.57671 5.66058C9.57671 3.59989 11.5716 1.94937 14.0026 1.94937C16.4337 1.94937 18.4285 3.59989 18.4285 5.66058V6.29032H9.57671V5.66058ZM7.37297 10.281C7.37297 10.7832 7.86629 11.1903 8.47484 11.1903C9.08339 11.1903 9.57671 10.7832 9.57671 10.281V8.10883H18.4285V10.281C18.4285 10.7832 18.9218 11.1903 19.5304 11.1903C20.1389 11.1903 20.6322 10.7832 20.6322 10.281V8.10883H24.0342L25.7094 26.3123H2.29059L3.96583 8.10883H7.37297V10.281Z" fill="#1E1D1B"/>
</g>
</svg>
