<svg width="24" height="26" viewBox="0 0 24 26" fill="none" xmlns="http://www.w3.org/2000/svg">
<g id="elements">
<path id="Vector 7302" d="M2.66675 11.9639V16.6305C2.66675 20.4803 2.66675 22.4052 3.86273 23.6012C5.05871 24.7972 6.98361 24.7972 10.8334 24.7972H13.1667C17.0166 24.7972 18.9415 24.7972 20.1374 23.6012C21.3334 22.4052 21.3334 20.4803 21.3334 16.6305V11.9639" stroke="#1E1D1B" stroke-width="1.5" stroke-linecap="round" stroke-linejoin="round"/>
<path id="Rectangle 1184" d="M1.5 9.63021C1.5 8.7579 1.5 8.32175 1.73446 7.99687C1.88805 7.78405 2.10897 7.60732 2.375 7.48444C2.78109 7.29688 3.32628 7.29688 4.41667 7.29688H19.5833C20.6737 7.29688 21.2189 7.29688 21.625 7.48444C21.891 7.60732 22.1119 7.78405 22.2655 7.99687C22.5 8.32175 22.5 8.7579 22.5 9.63021C22.5 10.5025 22.5 10.9387 22.2655 11.2635C22.1119 11.4764 21.891 11.6531 21.625 11.776C21.2189 11.9635 20.6737 11.9635 19.5833 11.9635H4.41667C3.32628 11.9635 2.78109 11.9635 2.375 11.776C2.10897 11.6531 1.88805 11.4764 1.73446 11.2635C1.5 10.9387 1.5 10.5025 1.5 9.63021Z" stroke="#1E1D1B" stroke-width="1.5" stroke-linejoin="round"/>
<path id="Rectangle 2365" d="M5 3.5472C5 2.39661 5.93274 1.46387 7.08333 1.46387H7.5C9.98528 1.46387 12 3.47859 12 5.96387V7.2972H8.75C6.67893 7.2972 5 5.61827 5 3.5472Z" stroke="#1E1D1B" stroke-width="1.5" stroke-linejoin="round"/>
<path id="Rectangle 2366" d="M19 3.5472C19 2.39661 18.0673 1.46387 16.9167 1.46387H16.5C14.0147 1.46387 12 3.47859 12 5.96387V7.2972H15.25C17.3211 7.2972 19 5.61827 19 3.5472Z" stroke="#1E1D1B" stroke-width="1.5" stroke-linejoin="round"/>
<path id="Vector 4639" d="M12 11.9639L12 24.7972" stroke="#1E1D1B" stroke-width="1.5" stroke-linecap="round" stroke-linejoin="round"/>
</g>
</svg>
