<svg width="24" height="26" viewBox="0 0 24 26" fill="none" xmlns="http://www.w3.org/2000/svg">
<g id="elements">
<path id="Vector" d="M5.67384 17.1924C4.02327 18.1752 -0.304408 20.182 2.33144 22.6932C3.61903 23.9199 5.05307 24.7972 6.85601 24.7972H17.144C18.9469 24.7972 20.381 23.9199 21.6686 22.6932C24.3044 20.182 19.9767 18.1752 18.3262 17.1924C14.4556 14.8877 9.54438 14.8877 5.67384 17.1924Z" stroke="#1E1D1B" stroke-width="1.5" stroke-linecap="round" stroke-linejoin="round"/>
<path id="Ellipse 1381" d="M17.25 6.71387C17.25 9.61336 14.8995 11.9639 12 11.9639C9.10051 11.9639 6.75 9.61336 6.75 6.71387C6.75 3.81437 9.10051 1.46387 12 1.46387C14.8995 1.46387 17.25 3.81437 17.25 6.71387Z" stroke="#1E1D1B" stroke-width="1.5"/>
</g>
</svg>
