<svg width="28" height="29" viewBox="0 0 28 29" fill="none" xmlns="http://www.w3.org/2000/svg">
<g id="bubble-chat-question">
<g id="Union">
<path d="M12.5416 11.6177C12.5416 10.9761 13.1272 10.3389 13.9999 10.3389C14.8726 10.3389 15.4583 10.9761 15.4583 11.6177C15.4583 11.8575 15.3833 12.084 15.2457 12.2813C15.1011 12.4887 14.9192 12.7046 14.703 12.9526L14.597 13.0738C14.416 13.2805 14.2158 13.5091 14.0331 13.7409C13.6053 14.2835 13.1249 15.0197 13.1249 15.9254V16.4639C13.1249 16.9471 13.5167 17.3389 13.9999 17.3389C14.4832 17.3389 14.8749 16.9471 14.8749 16.4639V15.9254C14.8749 15.6416 15.0277 15.306 15.4074 14.8242C15.5594 14.6314 15.7239 14.4435 15.9042 14.2374L16.0221 14.1025C16.2395 13.8532 16.4773 13.5747 16.6814 13.282C17.0118 12.808 17.2083 12.2354 17.2083 11.6177C17.2083 9.8803 15.7046 8.58887 13.9999 8.58887C12.2953 8.58887 10.7916 9.8803 10.7916 11.6177C10.7916 12.101 11.1833 12.4927 11.6666 12.4927C12.1498 12.4927 12.5416 12.101 12.5416 11.6177Z" fill="#1E1D1B"/>
<path d="M13.1249 19.3805C13.1249 18.8973 13.5167 18.5055 13.9999 18.5055H14.0104C14.4936 18.5055 14.8854 18.8973 14.8854 19.3805C14.8854 19.8638 14.4936 20.2555 14.0104 20.2555H13.9999C13.5167 20.2555 13.1249 19.8638 13.1249 19.3805Z" fill="#1E1D1B"/>
<path fill-rule="evenodd" clip-rule="evenodd" d="M13.9999 1.58887C7.11102 1.58887 1.45825 6.94198 1.45825 13.625C1.45825 16.8306 2.76459 19.7382 4.88185 21.8881C5.19423 22.2054 5.29585 22.5305 5.25095 22.7699C5.08499 23.6404 4.70972 24.4491 4.16395 25.1204C3.9692 25.3599 3.91509 25.6843 4.02157 25.9741C4.12805 26.2639 4.37936 26.4761 4.68288 26.5326C6.56247 26.8822 8.51124 26.5672 10.1816 25.6789C10.454 25.534 10.632 25.4396 10.7656 25.3761C10.8288 25.3461 10.8673 25.3304 10.8871 25.3229C10.9063 25.324 10.9414 25.3269 10.998 25.3347C11.1289 25.3526 11.3047 25.3854 11.5814 25.4374C12.3787 25.5871 13.1881 25.6622 13.9999 25.6612C20.8888 25.6612 26.5416 20.3081 26.5416 13.625C26.5416 6.94198 20.8888 1.58887 13.9999 1.58887ZM3.20825 13.625C3.20825 7.98075 8.00363 3.33887 13.9999 3.33887C19.9962 3.33887 24.7916 7.98075 24.7916 13.625C24.7916 19.2693 19.9962 23.9112 13.9999 23.9112C13.2971 23.9121 12.595 23.8471 11.9044 23.7174L11.8839 23.7136C11.6336 23.6666 11.4148 23.6255 11.2359 23.6009C11.0569 23.5764 10.8418 23.5563 10.6204 23.5901C10.393 23.6248 10.1831 23.7155 10.0148 23.7953C9.84094 23.8779 9.62759 23.9914 9.37795 24.1242L9.35989 24.1338C8.4341 24.6261 7.40165 24.8957 6.35882 24.9203C6.64274 24.3466 6.84899 23.7329 6.97021 23.0965L6.97048 23.095C7.15863 22.0979 6.68202 21.2221 6.12875 20.6602C4.31305 18.8165 3.20825 16.3423 3.20825 13.625ZM10.8871 25.3229L10.8743 25.3222L10.8684 25.322L10.8777 25.321L10.8846 25.32L10.8889 25.3194C10.8946 25.3184 10.8988 25.3175 10.9013 25.317L10.9039 25.3166L10.9004 25.3179L10.8871 25.3229Z" fill="#1E1D1B"/>
</g>
</g>
</svg>
