<svg width="26" height="23" viewBox="0 0 26 23" fill="none" xmlns="http://www.w3.org/2000/svg">
<g id="elements">
<path id="Vector" d="M20.7187 20.4639H21.2906C22.6321 20.4639 23.6991 19.8526 24.6571 18.998C27.091 16.8269 21.3697 14.6305 19.4166 14.6305M17.0833 3.0441C17.3482 2.99155 17.6233 2.96387 17.9055 2.96387C20.0287 2.96387 21.7499 4.53087 21.7499 6.46387C21.7499 8.39686 20.0287 9.96387 17.9055 9.96387C17.6233 9.96387 17.3482 9.93618 17.0833 9.88364" stroke="#1E1D1B" stroke-width="1.5" stroke-linecap="round"/>
<g id="Vector_2">
<path d="M4.2282 15.9269C2.85273 16.664 -0.753673 18.1691 1.44287 20.0525C2.51586 20.9725 3.71089 21.6305 5.21334 21.6305H13.7867C15.2891 21.6305 16.4841 20.9725 17.5571 20.0525C19.7537 18.1691 16.1473 16.664 14.7718 15.9269C11.5463 14.1984 7.45365 14.1984 4.2282 15.9269Z" stroke="#1E1D1B" stroke-width="1.5"/>
<path d="M14.1667 5.88053C14.1667 8.45786 12.0773 10.5472 9.5 10.5472C6.92267 10.5472 4.83333 8.45786 4.83333 5.88053C4.83333 3.3032 6.92267 1.21387 9.5 1.21387C12.0773 1.21387 14.1667 3.3032 14.1667 5.88053Z" stroke="#1E1D1B" stroke-width="1.5"/>
</g>
</g>
</svg>
