<svg width="24" height="24" viewBox="0 0 24 24" fill="none" xmlns="http://www.w3.org/2000/svg">
<g id="elements">
<path id="Vector" d="M10.8333 5.13086L22.4999 5.13086" stroke="#1E1D1B" stroke-width="1.5" stroke-linecap="round"/>
<path id="Vector_2" d="M10.8333 12.1309L22.4999 12.1309" stroke="#1E1D1B" stroke-width="1.5" stroke-linecap="round"/>
<path id="Vector_3" d="M10.8333 19.1309L22.4999 19.1309" stroke="#1E1D1B" stroke-width="1.5" stroke-linecap="round"/>
<path id="vector" d="M1.5 15.6309H3.25C3.57526 15.6309 3.73789 15.6309 3.87313 15.6578C4.42849 15.7682 4.86263 16.2024 4.9731 16.7577C5 16.893 5 17.0556 5 17.3809C5 17.7061 5 17.8687 4.9731 18.004C4.86263 18.5594 4.42849 18.9935 3.87313 19.104C3.73789 19.1309 3.57526 19.1309 3.25 19.1309C2.92474 19.1309 2.76211 19.1309 2.62687 19.1578C2.07151 19.2682 1.63737 19.7024 1.5269 20.2577C1.5 20.393 1.5 20.5556 1.5 20.8809V21.9309C1.5 22.2608 1.5 22.4258 1.60251 22.5283C1.70503 22.6309 1.87002 22.6309 2.2 22.6309H5" stroke="#1E1D1B" stroke-width="1.5" stroke-linecap="round" stroke-linejoin="round"/>
<path id="vector_2" d="M1.5 1.63086H2.9C3.0933 1.63086 3.25 1.78756 3.25 1.98086V8.63086M3.25 8.63086H1.5M3.25 8.63086H5" stroke="#1E1D1B" stroke-width="1.5" stroke-linecap="round" stroke-linejoin="round"/>
</g>
</svg>
