<svg width="28" height="29" viewBox="0 0 28 29" fill="none" xmlns="http://www.w3.org/2000/svg">
<g id="mail-01">
<path id="Union" fill-rule="evenodd" clip-rule="evenodd" d="M17.4066 3.38181C15.1281 3.32456 12.8718 3.32455 10.5932 3.3818L10.5254 3.3835C8.74641 3.42817 7.31494 3.46411 6.16773 3.6639C4.96665 3.87308 3.99048 4.27427 3.16581 5.10208C2.34459 5.92642 1.9455 6.88856 1.7403 8.07017C1.54492 9.19527 1.51517 10.5918 1.4783 12.3218L1.47684 12.3903C1.45205 13.5527 1.45206 14.7083 1.47684 15.8707L1.4783 15.9393C1.51517 17.6693 1.54493 19.0658 1.74031 20.1909C1.9455 21.3725 2.34459 22.3346 3.16581 23.159C3.99048 23.9868 4.96665 24.388 6.16774 24.5972C7.31493 24.797 8.74638 24.8329 10.5253 24.8776L10.5932 24.8793C12.8718 24.9365 15.1281 24.9365 17.4066 24.8793L17.4745 24.8776C19.2535 24.8329 20.6849 24.797 21.8321 24.5972C23.0332 24.388 24.0094 23.9868 24.834 23.159C25.6553 22.3346 26.0543 21.3725 26.2595 20.1909C26.4549 19.0658 26.4847 17.6693 26.5215 15.9393L26.523 15.8707C26.5478 14.7083 26.5478 13.5527 26.523 12.3903L26.5215 12.3218C26.4847 10.5918 26.4549 9.19529 26.2595 8.07019C26.0543 6.88858 25.6553 5.92644 24.834 5.1021C24.0094 4.27429 23.0332 3.87309 21.8321 3.66392C20.6849 3.46413 19.2534 3.42818 17.4745 3.38351L17.4066 3.38181ZM10.6372 5.13125C12.8864 5.07474 15.1134 5.07474 17.3626 5.13125C19.2254 5.17806 20.5271 5.21298 21.5319 5.38797C22.4973 5.55611 23.0993 5.84032 23.5943 6.33718C23.7972 6.54088 23.9639 6.76015 24.1012 7.01183L17.17 10.9391C15.7055 11.7689 14.8168 12.0889 13.9999 12.0889C13.183 12.0889 12.2943 11.7689 10.8298 10.9391L3.89866 7.01183C4.03597 6.76014 4.20266 6.54086 4.40559 6.33716C4.90056 5.84031 5.50253 5.55609 6.46798 5.38795C7.47276 5.21297 8.77441 5.17805 10.6372 5.13125ZM3.40776 8.74507C3.28705 9.66885 3.26038 10.8365 3.22644 12.4276C3.20219 13.5652 3.20219 14.6959 3.22645 15.8334C3.26515 17.6482 3.29441 18.912 3.4645 19.8915C3.62736 20.8293 3.90716 21.4236 4.40559 21.9239C4.90057 22.4208 5.50253 22.705 6.46799 22.8731C7.47276 23.0481 8.77442 23.083 10.6372 23.1298C12.8864 23.1863 15.1134 23.1863 17.3626 23.1298C19.2254 23.083 20.5271 23.0481 21.5319 22.8731C22.4973 22.705 23.0993 22.4208 23.5943 21.9239C24.0927 21.4236 24.3725 20.8293 24.5353 19.8915C24.7054 18.912 24.7347 17.6482 24.7734 15.8334C24.7977 14.6959 24.7977 13.5652 24.7734 12.4276C24.7395 10.8365 24.7128 9.66885 24.5921 8.74507L18.0327 12.4616C16.5239 13.3166 15.2978 13.8389 13.9999 13.8389C12.702 13.8389 11.4759 13.3166 9.9671 12.4616L3.40776 8.74507Z" fill="#1E1D1B"/>
</g>
</svg>
