<svg width="24" height="20" viewBox="-2.5 0 24 20" fill="none" xmlns="http://www.w3.org/2000/svg">
<g id="Group 21276">
<path id="Union" fill-rule="evenodd" clip-rule="evenodd" d="M5.66288 6.05129C5.66288 3.97267 7.37199 2.27148 9.50031 2.27148C11.6286 2.27148 13.3377 3.97267 13.3377 6.05129C13.3377 8.12992 11.6286 9.8311 9.50031 9.8311C7.37199 9.8311 5.66288 8.12992 5.66288 6.05129ZM9.50031 0.771484C6.56149 0.771484 4.16288 3.12643 4.16288 6.05129C4.16288 8.97616 6.56149 11.3311 9.50031 11.3311C12.4391 11.3311 14.8377 8.97616 14.8377 6.05129C14.8377 3.12643 12.4391 0.771484 9.50031 0.771484ZM2.22266 17.2898C2.22266 15.6102 3.56457 14.2649 5.19995 14.2649H13.8014C15.4368 14.2649 16.7787 15.6102 16.7787 17.2898V18.4272H2.22266V17.2898ZM5.19995 12.7649C2.71827 12.7649 0.722656 14.7997 0.722656 17.2898V19.1772C0.722656 19.5914 1.05844 19.9272 1.47266 19.9272H17.5287C17.9429 19.9272 18.2787 19.5914 18.2787 19.1772V17.2898C18.2787 14.7997 16.2831 12.7649 13.8014 12.7649H5.19995Z" fill="#423232"/>
</g>
</svg>
