<svg width="24" height="23" viewBox="-2.5 0 24 23" fill="none" xmlns="http://www.w3.org/2000/svg">
<g id="Group 21271">
<path id="Union" fill-rule="evenodd" clip-rule="evenodd" d="M6.33528 4.45006C6.33528 2.85266 7.61117 1.57422 9.16483 1.57422C10.7185 1.57422 11.9944 2.85266 11.9944 4.45006V4.91186H6.33528V4.45006ZM4.83528 6.41186V8.07589C4.83528 8.49011 5.17107 8.82589 5.58528 8.82589C5.99949 8.82589 6.33528 8.49011 6.33528 8.07589V6.41186H11.9944V8.07589C11.9944 8.49011 12.3302 8.82589 12.7444 8.82589C13.1586 8.82589 13.4944 8.49011 13.4944 8.07589V6.41186H15.6287L16.708 20.6238H1.62162L2.70089 6.41186H4.83528ZM4.83528 4.91186V4.45006C4.83528 2.04246 6.76463 0.0742188 9.16483 0.0742188C11.565 0.0742188 13.4944 2.04246 13.4944 4.45006V4.91186H16.3239C16.7161 4.91186 17.042 5.21401 17.0717 5.60507L18.2649 21.317C18.2807 21.5252 18.209 21.7306 18.0671 21.8837C17.9252 22.0368 17.7258 22.1238 17.5171 22.1238H0.812502C0.603721 22.1238 0.40439 22.0368 0.262459 21.8837C0.120529 21.7306 0.0488459 21.5252 0.0646554 21.317L1.25784 5.60507C1.28754 5.21401 1.6135 4.91186 2.00569 4.91186H4.83528Z" fill="#423232"/>
</g>
</svg>
