<svg width="25" height="25" viewBox="0 0 25 25" fill="none" xmlns="http://www.w3.org/2000/svg">
<g id="grid">
<g id="Group 1000006599">
<path id="Vector" d="M4 7.50368C4 9.20302 5.37759 10.5806 7.07692 10.5806C8.77626 10.5806 10.1538 9.20302 10.1538 7.50368C10.1538 5.80434 8.77626 4.42676 7.07692 4.42676C5.37759 4.42676 4 5.80434 4 7.50368Z" fill="#423232"/>
<path id="Vector_2" d="M15.0781 7.50368C15.0781 9.20302 16.4557 10.5806 18.155 10.5806C19.8544 10.5806 21.232 9.20302 21.232 7.50368C21.232 5.80434 19.8544 4.42676 18.155 4.42676C16.4557 4.42676 15.0781 5.80434 15.0781 7.50368Z" fill="#423232"/>
<path id="Vector_3" d="M15.0781 17.3494C15.0781 19.0487 16.4557 20.4263 18.155 20.4263C19.8544 20.4263 21.232 19.0487 21.232 17.3494C21.232 15.65 19.8544 14.2725 18.155 14.2725C16.4557 14.2725 15.0781 15.65 15.0781 17.3494Z" fill="#423232"/>
<path id="Vector_4" d="M4 17.3494C4 19.0487 5.37759 20.4263 7.07692 20.4263C8.77626 20.4263 10.1538 19.0487 10.1538 17.3494C10.1538 15.65 8.77626 14.2725 7.07692 14.2725C5.37759 14.2725 4 15.65 4 17.3494Z" fill="#423232"/>
</g>
</g>
</svg>
