<svg width="15" height="16" viewBox="0 0 15 16" fill="none" xmlns="http://www.w3.org/2000/svg">
<g id="Group">
<path id="Vector" d="M14.375 7.375H8.125V1.125C8.125 0.95924 8.05915 0.800269 7.94194 0.683058C7.82473 0.565848 7.66576 0.5 7.5 0.5C7.33424 0.5 7.17527 0.565848 7.05806 0.683058C6.94085 0.800269 6.875 0.95924 6.875 1.125V7.375H0.625C0.45924 7.375 0.300269 7.44085 0.183058 7.55806C0.065848 7.67527 0 7.83424 0 8C0 8.16576 0.065848 8.32473 0.183058 8.44194C0.300269 8.55915 0.45924 8.625 0.625 8.625H6.875V14.875C6.875 15.0408 6.94085 15.1997 7.05806 15.3169C7.17527 15.4342 7.33424 15.5 7.5 15.5C7.66576 15.5 7.82473 15.4342 7.94194 15.3169C8.05915 15.1997 8.125 15.0408 8.125 14.875V8.625H14.375C14.5408 8.625 14.6997 8.55915 14.8169 8.44194C14.9342 8.32473 15 8.16576 15 8C15 7.83424 14.9342 7.67527 14.8169 7.55806C14.6997 7.44085 14.5408 7.375 14.375 7.375Z" fill="#1E1D1B"/>
</g>
</svg>
