<svg width="32" height="26" viewBox="0 0 32 26" fill="none" xmlns="http://www.w3.org/2000/svg">
<path d="M11.3299 16.2177C11.3302 15.4619 11.5128 14.7173 11.8621 14.0465C12.2114 13.3757 12.7173 12.7984 13.3371 12.3632C13.9569 11.9281 14.6726 11.6478 15.4238 11.546C16.175 11.4442 16.9397 11.5239 17.6536 11.7783C18.3675 12.0327 19.0096 12.4544 19.5258 13.0079C20.0421 13.5614 20.4173 14.2305 20.62 14.9587C20.8227 15.687 20.8469 16.4532 20.6905 17.1928C20.5341 17.9323 20.2018 18.6236 19.7215 19.2084L18.9089 18.5421C19.3446 18.0033 19.619 17.3529 19.7006 16.6656C19.7823 15.9783 19.6678 15.2819 19.3705 14.6565C19.0731 14.0312 18.6048 13.5021 18.0194 13.13C17.434 12.758 16.7553 12.5581 16.0611 12.5533C15.4731 12.5508 14.8931 12.6886 14.3695 12.9553C13.8459 13.2219 13.394 13.6097 13.0514 14.0862C12.7089 14.5626 12.4858 15.1139 12.4007 15.6939C12.3156 16.2739 12.371 16.8658 12.5623 17.4201C12.7537 17.9744 13.0753 18.475 13.5004 18.8799C13.9255 19.2849 14.4416 19.5826 15.0057 19.748C15.5697 19.9135 16.1653 19.9419 16.7426 19.8309C17.3199 19.7198 17.8622 19.4727 18.3241 19.1099L18.9697 19.9428C18.271 20.4857 17.4334 20.8222 16.5523 20.9139C15.6712 21.0056 14.782 20.8488 13.9859 20.4615C13.1898 20.0741 12.5187 19.4716 12.0492 18.7227C11.5796 17.9738 11.3304 17.1085 11.3299 16.2253V16.2177ZM18.6886 16.2177C18.6886 16.9135 18.4114 17.5808 17.9179 18.0728C17.4245 18.5648 16.7552 18.8412 16.0573 18.8412C15.3594 18.8412 14.6901 18.5648 14.1966 18.0728C13.7031 17.5808 13.4259 16.9135 13.4259 16.2177C13.4259 15.522 13.7031 14.8547 14.1966 14.3627C14.6901 13.8707 15.3594 13.5943 16.0573 13.5943C16.7552 13.5943 17.4245 13.8707 17.9179 14.3627C18.4114 14.8547 18.6886 15.522 18.6886 16.2177ZM17.6331 16.2177C17.6481 16.0023 17.6185 15.786 17.5461 15.5824C17.4737 15.3788 17.36 15.1923 17.2122 15.0343C17.0645 14.8764 16.8856 14.7505 16.6869 14.6644C16.4883 14.5783 16.2739 14.5338 16.0573 14.5338C15.8406 14.5338 15.6263 14.5783 15.4276 14.6644C15.2289 14.7505 15.0501 14.8764 14.9023 15.0343C14.7545 15.1923 14.6409 15.3788 14.5685 15.5824C14.4961 15.786 14.4665 16.0023 14.4815 16.2177C14.5092 16.6156 14.6873 16.9881 14.9797 17.2601C15.2722 17.5321 15.6573 17.6834 16.0573 17.6834C16.4573 17.6834 16.8423 17.5321 17.1348 17.2601C17.4273 16.9881 17.6054 16.6156 17.6331 16.2177ZM32.0013 16.2177L31.6823 16.5736C29.4937 18.7349 26.8803 20.4217 24.0065 21.5279C21.1326 22.6341 18.0604 23.1358 14.9827 23.0015C12.5829 22.9788 6.68226 23.1681 4.35085 25.5L3.60659 24.758C5.09505 23.2741 7.72267 22.5624 10.1908 22.2293C6.50672 21.2114 3.14823 19.2634 0.439826 16.5736L0.113281 16.2177L0.394262 15.9149C0.599305 15.5288 1.72322 13.5754 3.9787 11.622V7.30648C3.9787 6.44336 3.27247 5.73925 2.39914 5.73925H1.87514V4.69442H2.40674C3.84963 4.69442 5.0267 5.86796 5.0267 7.31405V10.7741C6.31384 9.81814 7.72702 9.04364 9.2263 8.47244V4.17201C9.2263 3.30133 8.52004 2.59721 7.6543 2.59721H7.1227V1.55239H7.6543C9.0972 1.55239 10.2819 2.72592 10.2819 4.17201V8.10902C11.9857 7.58583 13.7546 7.30295 15.5371 7.26862V3.11962C15.5371 1.6811 16.7142 0.5 18.1571 0.5H18.6886V1.55239H18.1571C17.2913 1.55239 16.5851 2.25651 16.5851 3.11962V7.26862C18.5444 7.31404 20.291 7.62447 21.8402 8.10145V4.16444C21.8402 2.72592 23.0173 1.55239 24.4602 1.55239H24.9918V2.59721H24.4602C23.5945 2.59721 22.8882 3.30133 22.8882 4.17201V8.47244C24.5362 9.10085 25.9259 9.91096 27.0878 10.7741V7.32162C27.0878 5.8831 28.2649 4.70199 29.7154 4.70199H30.247V5.74682H29.7154C28.8497 5.74682 28.1434 6.45094 28.1434 7.32162V11.6296C29.5719 12.8474 30.7815 14.2991 31.7203 15.9225L32.0013 16.2177ZM16.0535 10.4637C14.5845 10.5566 13.2063 11.2042 12.1994 12.2746C11.1924 13.3449 10.6324 14.7576 10.6334 16.2251C10.6344 17.6925 11.1962 19.1045 12.2046 20.1735C13.2129 21.2426 14.592 21.8883 16.0611 21.9794C17.5426 21.9037 18.9383 21.2636 19.96 20.1914C20.9818 19.1192 21.5515 17.6967 21.5515 16.2177C21.5515 14.7388 20.9818 13.3163 19.96 12.2441C18.9383 11.1719 17.5426 10.5318 16.0611 10.4561L16.0535 10.4637ZM27.4295 12.364C24.3159 9.66869 20.4809 8.30588 16.0611 8.30588C11.6337 8.30588 7.8062 9.66869 4.685 12.364L3.97114 13.0151C7.56675 10.6735 11.7663 9.42165 16.0611 9.41126C21.3314 9.41126 25.4551 11.2889 28.1434 13.0151C27.9156 12.8032 27.6877 12.5836 27.4295 12.364ZM1.57135 16.2253C4.44859 18.8578 7.97212 20.686 11.7855 21.5251C10.9875 20.8881 10.3434 20.0804 9.90071 19.1618C9.45805 18.2431 9.2282 17.2369 9.2282 16.2177C9.2282 15.1986 9.45805 14.1924 9.90071 13.2737C10.3434 12.3551 10.9875 11.5474 11.7855 10.9104C7.9701 11.7482 4.44565 13.5796 1.57135 16.2177V16.2253ZM30.5432 16.2253C27.6677 13.5874 24.144 11.7538 20.329 10.9104C21.127 11.5474 21.7712 12.3551 22.2138 13.2737C22.6565 14.1924 22.8863 15.1986 22.8863 16.2177C22.8863 17.2369 22.6565 18.2431 22.2138 19.1618C21.7712 20.0804 21.127 20.8881 20.329 21.5251C24.1437 20.6894 27.668 18.8607 30.5432 16.2253Z" fill="#f9f9f9"/>
</svg>
