<svg width="36" height="36" viewBox="0 0 36 36" fill="none" xmlns="http://www.w3.org/2000/svg">
<path d="M18.2755 19.9042C19.7113 19.9042 20.8753 18.7419 20.8753 17.3081C20.8753 15.8743 19.7113 14.7119 18.2755 14.7119C16.8397 14.7119 15.6758 15.8743 15.6758 17.3081C15.6758 18.7419 16.8397 19.9042 18.2755 19.9042Z" fill="url(#paint0_linear_2294_87885)"/>
<path d="M21.8474 9.19531H14.698C13.4918 9.19668 12.3354 9.67578 11.4825 10.5275C10.6296 11.3792 10.1498 12.534 10.1484 13.7386V20.878C10.1498 22.0825 10.6296 23.2373 11.4825 24.0891C12.3354 24.9408 13.4918 25.4199 14.698 25.4213H21.8474C23.0536 25.4199 24.21 24.9408 25.0629 24.0891C25.9158 23.2373 26.3956 22.0825 26.3969 20.878V13.7386C26.3956 12.534 25.9158 11.3792 25.0629 10.5275C24.21 9.67578 23.0536 9.19668 21.8474 9.19531ZM18.2727 21.2025C17.5014 21.2025 16.7475 20.9741 16.1062 20.5462C15.4649 20.1183 14.965 19.5101 14.6699 18.7985C14.3747 18.087 14.2975 17.304 14.448 16.5486C14.5984 15.7932 14.9699 15.0993 15.5152 14.5547C16.0606 14.01 16.7554 13.6391 17.5119 13.4889C18.2684 13.3386 19.0524 13.4157 19.765 13.7105C20.4776 14.0052 21.0866 14.5044 21.5151 15.1448C21.9436 15.7852 22.1723 16.5381 22.1723 17.3083C22.1712 18.3407 21.7599 19.3306 21.0289 20.0606C20.2978 20.7907 19.3066 21.2014 18.2727 21.2025ZM22.4973 14.0631C22.3045 14.0631 22.116 14.006 21.9557 13.899C21.7953 13.7921 21.6704 13.64 21.5966 13.4621C21.5228 13.2842 21.5035 13.0885 21.5411 12.8996C21.5787 12.7108 21.6716 12.5373 21.8079 12.4011C21.9443 12.265 22.118 12.1723 22.3071 12.1347C22.4962 12.0971 22.6922 12.1164 22.8704 12.1901C23.0485 12.2638 23.2008 12.3886 23.3079 12.5487C23.415 12.7088 23.4722 12.897 23.4722 13.0895C23.4722 13.3477 23.3695 13.5954 23.1867 13.778C23.0038 13.9605 22.7559 14.0631 22.4973 14.0631Z" fill="url(#paint1_linear_2294_87885)"/>
<defs>
<linearGradient id="paint0_linear_2294_87885" x1="16.9614" y1="14.4637" x2="18.4523" y2="19.8553" gradientUnits="userSpaceOnUse">
<stop stop-color="#6C4A29"/>
<stop offset="0.485" stop-color="#CDA073"/>
<stop offset="0.97" stop-color="#FFEEC1"/>
</linearGradient>
<linearGradient id="paint1_linear_2294_87885" x1="14.1659" y1="8.4195" x2="18.825" y2="25.2685" gradientUnits="userSpaceOnUse">
<stop stop-color="#6C4A29"/>
<stop offset="0.485" stop-color="#CDA073"/>
<stop offset="0.97" stop-color="#FFEEC1"/>
</linearGradient>
</defs>
</svg>
