<svg width="36" height="36" viewBox="0 0 36 36" fill="none" xmlns="http://www.w3.org/2000/svg">
<g id="vk">
<path id="Vector" d="M26.8281 22.6009C26.8281 22.5262 26.7534 22.5262 26.7534 22.4515C26.4545 21.8537 25.782 21.1065 24.8854 20.2846C24.437 19.911 24.2129 19.6121 24.0634 19.4626C23.8393 19.1638 23.8393 18.9396 23.914 18.6407C23.9887 18.4166 24.2876 18.0429 24.8106 17.3705C25.1095 16.9968 25.259 16.7727 25.4831 16.5485C26.6039 15.0541 27.127 14.0827 26.9775 13.6344L26.9028 13.5597C26.8281 13.485 26.7534 13.4103 26.6039 13.4103C26.4545 13.3355 26.2303 13.3355 26.0062 13.4103H23.1668C23.0921 13.4103 23.0921 13.4103 22.9426 13.4103C22.8679 13.4103 22.7932 13.4103 22.7932 13.4103H22.7185H22.6437L22.569 13.485C22.4943 13.5597 22.4943 13.5597 22.4943 13.6344C22.1954 14.4563 21.8218 15.1288 21.4482 15.876C21.224 16.2496 20.9999 16.6233 20.7757 16.9221C20.5516 17.221 20.4021 17.4452 20.2527 17.5946C20.1032 17.7441 19.9538 17.8188 19.8791 17.9682C19.8043 18.0429 19.6549 18.1177 19.6549 18.0429C19.5802 18.0429 19.5055 18.0429 19.5055 17.9682C19.4307 17.8935 19.356 17.8188 19.2813 17.7441C19.2066 17.6693 19.2066 17.5199 19.1319 17.3705C19.1319 17.221 19.1319 17.0716 19.1319 16.9968C19.1319 16.9221 19.1319 16.698 19.1319 16.5485C19.1319 16.3244 19.1319 16.1749 19.1319 16.1002C19.1319 15.876 19.1319 15.5772 19.1319 15.2783C19.1319 14.9794 19.1319 14.7552 19.1319 14.6058C19.1319 14.4563 19.1319 14.2322 19.1319 14.0827C19.1319 13.8586 19.1319 13.7091 19.1319 13.6344C19.1319 13.5597 19.0572 13.4103 19.0572 13.3355C18.9824 13.2608 18.9077 13.1861 18.833 13.1114C18.7583 13.0367 18.6088 13.0367 18.5341 12.9619C18.1605 12.8872 17.7122 12.8125 17.1891 12.8125C15.9936 12.8125 15.1717 12.8872 14.8728 13.0367C14.7234 13.1114 14.5739 13.1861 14.4992 13.3355C14.3498 13.485 14.3498 13.5597 14.4245 13.5597C14.7981 13.6344 15.097 13.7839 15.2464 14.008L15.3211 14.1575C15.3958 14.2322 15.3958 14.3816 15.4706 14.6058C15.5453 14.83 15.5453 15.0541 15.5453 15.353C15.5453 15.8013 15.5453 16.2496 15.5453 16.5485C15.5453 16.9221 15.4706 17.1463 15.4706 17.3705C15.4706 17.5946 15.3958 17.7441 15.3211 17.8188C15.2464 17.9682 15.2464 18.0429 15.1717 18.0429C15.1717 18.0429 15.1717 18.1177 15.097 18.1177C15.0222 18.1177 14.9475 18.1924 14.7981 18.1924C14.7234 18.1924 14.5739 18.1177 14.4992 18.0429C14.3498 17.9682 14.2003 17.8188 14.1256 17.6693C13.9762 17.5199 13.8267 17.2957 13.6773 16.9968C13.5278 16.698 13.3037 16.3991 13.1542 15.9508L13.0048 15.6519C12.9301 15.5024 12.7806 15.2036 12.6312 14.83C12.4817 14.4564 12.3323 14.1575 12.1829 13.7839C12.1081 13.6344 12.0334 13.5597 11.9587 13.485H11.884C11.884 13.485 11.8092 13.4103 11.7345 13.4103C11.6598 13.4103 11.5851 13.3355 11.5104 13.3355H8.82042C8.52154 13.3355 8.3721 13.4103 8.29738 13.485L8.22266 13.5597C8.22266 13.5597 8.22266 13.6344 8.22266 13.7091C8.22266 13.7839 8.22266 13.8586 8.29738 14.008C8.67098 14.9047 9.11931 15.8013 9.56763 16.698C10.016 17.5199 10.4643 18.2671 10.7632 18.7902C11.1368 19.3132 11.4356 19.8362 11.8092 20.2846C12.1829 20.7329 12.407 21.0318 12.4817 21.1812C12.6312 21.3307 12.7059 21.4054 12.7806 21.4801L13.0048 21.7043C13.1542 21.8537 13.3784 22.0779 13.6773 22.302C13.9761 22.5262 14.3497 22.7503 14.7233 22.9745C15.097 23.1987 15.5453 23.3481 15.9936 23.4976C16.5167 23.647 16.965 23.7217 17.4133 23.647H18.5341C18.7583 23.647 18.9077 23.5723 19.0572 23.4228L19.1319 23.3481C19.1319 23.2734 19.2066 23.2734 19.2066 23.1987C19.2066 23.1239 19.2066 23.0492 19.2066 22.8998C19.2066 22.6009 19.2066 22.3767 19.2813 22.1526C19.356 21.9284 19.356 21.779 19.4308 21.6295C19.5055 21.4801 19.5802 21.4054 19.6549 21.3306C19.7296 21.2559 19.8044 21.1812 19.8044 21.1812H19.8791C20.0285 21.1065 20.2527 21.1812 20.4021 21.3306C20.6263 21.4801 20.8504 21.7043 20.9999 21.9284C21.1493 22.1526 21.3735 22.3767 21.6724 22.6756C21.9713 22.9745 22.1954 23.1987 22.3449 23.2734L22.569 23.4228C22.7185 23.4975 22.8679 23.5723 23.0921 23.647C23.3162 23.7217 23.4657 23.7217 23.6151 23.7217L26.1556 23.647C26.3798 23.647 26.6039 23.5723 26.7534 23.4976C26.9028 23.4228 26.9775 23.3481 26.9775 23.1987C26.9775 23.1239 26.9775 22.9745 26.9775 22.8998C26.8281 22.7503 26.8281 22.6756 26.8281 22.6009Z" fill="url(#paint0_linear_2294_87882)"/>
</g>
<defs>
<linearGradient id="paint0_linear_2294_87882" x1="12.8661" y1="12.2909" x2="14.7781" y2="24.1776" gradientUnits="userSpaceOnUse">
<stop stop-color="#6C4A29"/>
<stop offset="0.485" stop-color="#CDA073"/>
<stop offset="0.97" stop-color="#FFEEC1"/>
</linearGradient>
</defs>
</svg>
