<svg width="36" height="36" viewBox="0 0 36 36" fill="none" xmlns="http://www.w3.org/2000/svg">
<g id="watsapp">
<path id="Vector" d="M25.1341 10.8578C23.3561 9.08594 20.9854 8.10156 18.4829 8.10156C13.2805 8.10156 9.06585 12.3016 9.06585 17.4859C9.06585 19.1266 9.52683 20.7672 10.3171 22.1453L9 27.0016L14.0049 25.6891C15.3878 26.4109 16.9024 26.8047 18.4829 26.8047C23.6854 26.8047 27.9 22.6047 27.9 17.4203C27.8341 14.9922 26.9122 12.6297 25.1341 10.8578ZM23.0268 20.8328C22.8293 21.3578 21.9073 21.8828 21.4463 21.9484C21.0512 22.0141 20.5244 22.0141 19.9976 21.8828C19.6683 21.7516 19.2073 21.6203 18.6805 21.3578C16.3098 20.3734 14.7951 18.0109 14.6634 17.8141C14.5317 17.6828 13.6756 16.5672 13.6756 15.3859C13.6756 14.2047 14.2683 13.6797 14.4659 13.4172C14.6634 13.1547 14.9268 13.1547 15.1244 13.1547C15.2561 13.1547 15.4537 13.1547 15.5854 13.1547C15.7171 13.1547 15.9146 13.0891 16.1122 13.5484C16.3098 14.0078 16.7707 15.1891 16.8366 15.2547C16.9024 15.3859 16.9024 15.5172 16.8366 15.6484C16.7707 15.7797 16.7049 15.9109 16.5732 16.0422C16.4415 16.1734 16.3098 16.3703 16.2439 16.4359C16.1122 16.5672 15.9805 16.6984 16.1122 16.8953C16.2439 17.1578 16.7049 17.8797 17.4293 18.5359C18.3512 19.3234 19.0756 19.5859 19.339 19.7172C19.6024 19.8484 19.7341 19.7828 19.8659 19.6516C19.9976 19.5203 20.4585 18.9953 20.5902 18.7328C20.722 18.4703 20.9195 18.5359 21.1171 18.6016C21.3146 18.6672 22.5 19.2578 22.6976 19.3891C22.961 19.5203 23.0927 19.5859 23.1585 19.6516C23.2244 19.8484 23.2244 20.3078 23.0268 20.8328Z" fill="url(#paint0_linear_2294_87876)"/>
</g>
<defs>
<linearGradient id="paint0_linear_2294_87876" x1="13.6731" y1="7.1979" x2="19.1065" y2="26.8198" gradientUnits="userSpaceOnUse">
<stop stop-color="#6C4A29"/>
<stop offset="0.485" stop-color="#CDA073"/>
<stop offset="0.97" stop-color="#FFEEC1"/>
</linearGradient>
</defs>
</svg>
