<svg width="36" height="36" viewBox="0 0 36 36" fill="none" xmlns="http://www.w3.org/2000/svg">
<g id="logos:telegram" clip-path="url(#clip0_2294_87879)">
<path id="Vector_2" d="M8.14825 17.813C13.3964 15.527 16.8951 14.0198 18.6445 13.2916C23.6451 11.2123 24.6829 10.8512 25.3608 10.839C25.5098 10.8366 25.8417 10.8734 26.0583 11.0485C26.2383 11.1962 26.2889 11.3958 26.3142 11.5361C26.3367 11.6761 26.3676 11.9953 26.3423 12.2445C26.0723 15.0908 24.8995 21.9977 24.3033 25.1857C24.0529 26.5346 23.5551 26.9868 23.0742 27.031C22.0279 27.1271 21.2348 26.3402 20.2223 25.6767C18.6389 24.6381 17.7445 23.9918 16.2061 22.9784C14.4286 21.8073 15.5817 21.1635 16.5942 20.1116C16.8586 19.8363 21.4654 15.6471 21.5526 15.2671C21.5639 15.2196 21.5751 15.0424 21.4683 14.949C21.3642 14.8554 21.2095 14.8874 21.097 14.9127C20.9367 14.9487 18.4083 16.6216 13.5033 19.9311C12.7861 20.4244 12.1364 20.6649 11.5514 20.6522C10.9101 20.6384 9.67263 20.2888 8.75294 19.9901C7.62794 19.6237 6.73075 19.4299 6.8095 18.8075C6.84888 18.4835 7.29607 18.1519 8.14825 17.813Z" fill="url(#paint0_linear_2294_87879)"/>
</g>
<defs>
<linearGradient id="paint0_linear_2294_87879" x1="11.6378" y1="10.0643" x2="15.5856" y2="27.2668" gradientUnits="userSpaceOnUse">
<stop stop-color="#6C4A29"/>
<stop offset="0.485" stop-color="#CDA073"/>
<stop offset="0.97" stop-color="#FFEEC1"/>
</linearGradient>
<clipPath id="clip0_2294_87879">
<rect width="36" height="36" fill="white"/>
</clipPath>
</defs>
</svg>
