<svg width="30" height="33" viewBox="0 0 30 33" fill="none" xmlns="http://www.w3.org/2000/svg">
<g id="Group">
<g id="Group_2">
<path id="Vector" d="M13.9757 32.5115L4.26615 24.1408L4.22206 24.0365L0.5 14.8913L5.2298 8.41218L5.28861 8.36749L15.7632 0.488281L24.7519 8.18131L29.1875 17.1031L24.2444 23.9546L13.9757 32.5115ZM12.6885 30.1284L9.33429 22.4801L7.4218 20.8938L5.10472 23.5897L12.6885 30.1284ZM2.21386 16.5595L4.95028 23.2769L7.17164 20.6853L2.21386 16.5595ZM18.6982 14.5711L16.3737 12.6646L10.2464 17.6542L12.4089 19.4788L18.6982 14.5711ZM10.4671 7.82385L6.78922 10.8549L10.0478 17.401L16.1236 12.456L10.4671 7.82385ZM1.80199 14.9583L7.80432 19.948L9.76089 17.6691L9.73889 17.6468L9.79034 17.6096L6.53906 11.056L1.80199 14.9583ZM9.73153 21.5566L12.1442 19.6799L10.011 17.8777L8.04703 20.1565L9.73153 21.5566ZM23.3397 23.4557L22.5968 21.9513L18.6834 24.9898L15.3072 30.1508L23.3397 23.4557ZM12.8945 20.3129L10.3199 22.3311L14.167 31.0966L14.4612 30.8508L18.3525 24.9079L12.8945 20.3129ZM19.294 15.3232L13.1593 20.1118L18.5658 24.6696L22.4496 21.6534L19.294 15.3232ZM28.0694 17.0138L27.9223 16.7159L22.0377 12.1507L20.037 14.6455L23.222 21.0502L27.6134 17.6393L28.0694 17.0138ZM24.2738 9.38032L22.2437 11.8975L27.5839 16.0456L24.2738 9.38032ZM24.0164 22.6514L26.9587 18.5554L23.3691 21.3481L24.0164 22.6514ZM3.68502 12.1582L6.09773 10.1772L5.70785 9.38777L3.68502 12.1582ZM10.136 6.84824L12.4163 4.21192L5.9212 9.10478L6.3478 9.96865L10.136 6.84824ZM19.4043 13.9008L21.28 11.5549L19.4706 10.1474L17.1387 12.0464L19.4043 13.9008ZM23.7001 8.55368L16.4326 2.3352L19.5955 9.84205L21.486 11.3092L23.7001 8.55368ZM15.7927 1.78411L11.1585 7.13869L16.8887 11.8379L19.2719 9.90163L15.8883 1.86603L15.7927 1.78411Z" fill="#CABDB2"/>
</g>
</g>
</svg>
