<svg width="28" height="24" viewBox="-2.5 0 28 24" fill="none" xmlns="http://www.w3.org/2000/svg">
<g id="Group 21276">
<path id="Union" fill-rule="evenodd" clip-rule="evenodd" d="M6.50098 6.79545C6.50098 4.08256 8.73081 1.86719 11.5015 1.86719C14.2721 1.86719 16.502 4.08256 16.502 6.79545C16.502 9.50835 14.2721 11.7237 11.5015 11.7237C8.73081 11.7237 6.50098 9.50835 6.50098 6.79545ZM11.5015 0.367188C7.92032 0.367188 5.00098 3.23631 5.00098 6.79545C5.00098 10.3546 7.92032 13.2237 11.5015 13.2237C15.0826 13.2237 18.002 10.3546 18.002 6.79545C18.002 3.23631 15.0826 0.367188 11.5015 0.367188ZM2.1875 20.8839C2.1875 18.6758 3.9525 16.902 6.10978 16.902H16.892C19.0492 16.902 20.8143 18.6758 20.8143 20.8839V22.4998H2.1875V20.8839ZM6.10978 15.402C3.1062 15.402 0.6875 17.8653 0.6875 20.8839V23.2498C0.6875 23.664 1.02329 23.9998 1.4375 23.9998H21.5643C21.9785 23.9998 22.3143 23.664 22.3143 23.2498V20.8839C22.3143 17.8653 19.8955 15.402 16.892 15.402H6.10978Z" fill="#DEDEDE"/>
</g>
</svg>
