<svg width="241" height="48" viewBox="0 0 241 48" fill="none" xmlns="http://www.w3.org/2000/svg">
<g id="Group 1000006639">
<g id="SIGIL INSPIRED">
<path id="Vector" d="M223.869 23.5164V0.748047H226.439V22.9635V23.5164H223.869ZM221.495 1.33352L221.332 0.748047H226.439V2.69962C226.439 2.89478 226.298 3.02488 226.016 3.08994C225.756 3.1333 225.463 3.14415 225.138 3.12246C224.834 3.07909 224.541 3.01404 224.259 2.9273C223.999 2.84057 223.869 2.75383 223.869 2.66709C223.869 2.14668 223.75 1.74552 223.511 1.46362C223.273 1.16005 222.937 1.00826 222.503 1.00826C222.308 1.00826 222.134 1.04078 221.983 1.10584C221.831 1.1492 221.668 1.2251 221.495 1.33352ZM221.332 23.5164L221.495 22.9309C221.668 23.0394 221.831 23.1261 221.983 23.1911C222.134 23.2345 222.308 23.2562 222.503 23.2562C222.958 23.2562 223.294 23.0827 223.511 22.7358C223.75 22.3671 223.869 21.9877 223.869 21.5974C223.869 21.2938 224.01 21.1203 224.292 21.0769C224.574 21.0336 224.899 21.0119 225.268 21.0119C225.636 21.0119 225.918 21.0336 226.113 21.0769C226.33 21.1203 226.439 21.2938 226.439 21.5974C226.439 22.2045 226.569 22.6382 226.829 22.8984C227.111 23.1369 227.436 23.2562 227.805 23.2562C228 23.2562 228.173 23.2345 228.325 23.1911C228.477 23.1261 228.64 23.0394 228.813 22.9309L228.976 23.5164H221.332ZM228.748 0.748047L227.805 1.30099C227.371 1.30099 227.035 1.40941 226.796 1.62626C226.558 1.82141 226.439 2.1792 226.439 2.69962C226.33 2.67794 226.211 2.56952 226.081 2.37436C225.951 2.15752 225.886 1.96236 225.886 1.78889C225.886 1.61541 225.918 1.39857 225.983 1.13836C226.048 0.878152 226.2 0.748047 226.439 0.748047H226.829H228.748ZM228.748 0.748047C230.179 0.748047 231.567 1.05162 232.911 1.65878C234.277 2.24425 235.492 3.05741 236.554 4.09825C237.617 5.1174 238.463 6.32087 239.091 7.70866C239.742 9.07476 240.067 10.5384 240.067 12.0997C240.067 12.8803 239.926 13.5309 239.644 14.0513C239.384 14.55 239.081 14.8427 238.734 14.9295C238.408 14.9945 238.105 14.8102 237.823 14.3765C237.563 13.9212 237.433 13.1297 237.433 12.0021C237.433 10.636 237.205 9.31329 236.749 8.03392C236.294 6.73287 235.644 5.58361 234.798 4.58614C233.974 3.58867 232.966 2.7972 231.773 2.21173C230.602 1.60457 229.279 1.30099 227.805 1.30099C227.957 1.19257 228.097 1.09499 228.228 1.00826C228.336 0.943204 228.434 0.888994 228.52 0.845626C228.629 0.780573 228.705 0.748047 228.748 0.748047ZM228.748 23.5164H226.829H226.439C226.2 23.5164 226.048 23.3863 225.983 23.1261C225.918 22.8659 225.886 22.649 225.886 22.4756C225.886 22.3021 225.951 22.1178 226.081 21.9226C226.211 21.7058 226.33 21.5865 226.439 21.5648C226.439 22.0853 226.558 22.4539 226.796 22.6707C227.035 22.8659 227.371 22.9635 227.805 22.9635L228.748 23.5164ZM228.748 23.5164C228.705 23.5164 228.629 23.4947 228.52 23.4514C228.434 23.3863 228.336 23.3104 228.228 23.2237C228.097 23.1586 227.957 23.0719 227.805 22.9635C229.279 22.9635 230.602 22.6707 231.773 22.0853C232.966 21.4781 233.974 20.6758 234.798 19.6783C235.644 18.6808 236.294 17.5424 236.749 16.2631C237.205 14.962 237.433 13.6284 237.433 12.2623C237.433 11.1131 237.563 10.3216 237.823 9.88792C238.105 9.45424 238.408 9.28076 238.734 9.3675C239.081 9.43255 239.384 9.72529 239.644 10.2457C239.926 10.7444 240.067 11.3841 240.067 12.1648C240.067 13.726 239.742 15.2005 239.091 16.5883C238.463 17.9544 237.617 19.1579 236.554 20.1987C235.492 21.2179 234.277 22.031 232.911 22.6382C231.567 23.2237 230.179 23.5164 228.748 23.5164Z" fill="white"/>
<path id="Vector_2" d="M204.365 23.5164V0.748047H206.935V22.9635V23.5164H204.365ZM204.365 1.4311V0.748047H216.14V1.4311H204.365ZM213.993 0.748047H216.53L214.774 8.42424L214.058 8.09897C214.188 7.96887 214.307 7.78455 214.416 7.54603C214.524 7.28582 214.622 7.02561 214.709 6.7654C214.817 6.48351 214.904 6.21245 214.969 5.95224C215.034 5.67035 215.077 5.45351 215.099 5.30172C215.272 4.41267 215.24 3.71878 215.001 3.22004C214.763 2.69962 214.427 2.30931 213.993 2.0491C213.581 1.78889 213.115 1.62625 212.594 1.5612C212.074 1.47447 211.608 1.4311 211.196 1.4311L213.993 0.748047ZM201.828 0.748047H203.519H203.975H209.472L209.342 1.4311H208.398C208.051 1.4311 207.715 1.48531 207.39 1.59373C207.087 1.70215 206.935 2.05994 206.935 2.66709C206.935 2.97067 206.805 3.10078 206.544 3.05741C206.306 3.01404 206.002 2.93815 205.634 2.82973C205.287 2.93815 204.983 3.01404 204.723 3.05741C204.484 3.10078 204.365 2.97067 204.365 2.66709C204.365 2.3852 204.333 2.14667 204.268 1.95152C204.203 1.75636 204.116 1.59373 204.007 1.46362C203.856 1.29015 203.693 1.17089 203.519 1.10584C203.368 1.04078 203.194 1.00826 202.999 1.00826C202.804 1.00826 202.63 1.04078 202.479 1.10584C202.327 1.1492 202.164 1.2251 201.991 1.33352L201.828 0.748047ZM205.894 10.9288H210.935V11.6443L205.894 11.4817V10.9288ZM211.228 6.99308L213.895 15.2222H213.245C213.201 14.4633 213.104 13.8453 212.952 13.3682C212.822 12.8912 212.627 12.5225 212.367 12.2623C212.106 12.0021 211.77 11.8286 211.358 11.7419C210.946 11.6552 210.448 11.6118 209.862 11.6118V10.9288C210.838 10.9288 211.423 10.6143 211.619 9.9855C211.814 9.35666 211.478 8.52182 210.61 7.48098L211.228 6.99308ZM204.365 22.8334H217.701V23.5164H204.365V22.8334ZM215.554 23.5164L212.757 22.8334C213.169 22.8334 213.635 22.8008 214.156 22.7358C214.676 22.649 215.142 22.4756 215.554 22.2154C215.988 21.9551 216.324 21.5648 216.563 21.0444C216.801 20.524 216.834 19.8301 216.66 18.9627C216.638 18.8109 216.595 18.6049 216.53 18.3447C216.465 18.0628 216.378 17.7918 216.27 17.5316C216.183 17.2497 216.085 16.9895 215.977 16.751C215.869 16.4907 215.749 16.2956 215.619 16.1655L216.335 15.8402L218.091 23.5164H215.554ZM201.828 23.5164L201.991 22.9309C202.164 23.0394 202.327 23.1261 202.479 23.1911C202.63 23.2345 202.804 23.2562 202.999 23.2562C203.194 23.2562 203.368 23.2237 203.519 23.1586C203.693 23.0936 203.856 22.9743 204.007 22.8008C204.116 22.6707 204.203 22.5081 204.268 22.3129C204.333 22.1178 204.365 21.8793 204.365 21.5974C204.365 21.2938 204.484 21.1637 204.723 21.207C204.983 21.2504 205.287 21.3263 205.634 21.4347C206.002 21.3263 206.306 21.2504 206.544 21.207C206.805 21.1637 206.935 21.2938 206.935 21.5974C206.935 22.2045 207.087 22.5623 207.39 22.6707C207.715 22.7791 208.051 22.8334 208.398 22.8334H209.342L209.472 23.5164H203.975H203.519H201.828Z" fill="white"/>
<path id="Vector_3" d="M181.24 23.5164V0.748047H183.81V22.9635V23.5164H181.24ZM178.866 1.33352L178.703 0.748047H183.81V2.69962C183.81 2.89478 183.669 3.02488 183.387 3.08994C183.127 3.1333 182.834 3.14415 182.509 3.12246C182.205 3.07909 181.912 3.01404 181.63 2.9273C181.37 2.84057 181.24 2.75383 181.24 2.66709C181.24 2.14668 181.121 1.74552 180.882 1.46362C180.644 1.16005 180.308 1.00826 179.874 1.00826C179.679 1.00826 179.505 1.04078 179.354 1.10584C179.202 1.1492 179.039 1.2251 178.866 1.33352ZM178.703 23.5164L178.866 22.9309C179.039 23.0394 179.202 23.1261 179.354 23.1911C179.505 23.2345 179.679 23.2562 179.874 23.2562C180.329 23.2562 180.666 23.0827 180.882 22.7358C181.121 22.3671 181.24 21.9877 181.24 21.5974C181.24 21.2938 181.381 21.1203 181.663 21.0769C181.945 21.0336 182.27 21.0119 182.639 21.0119C183.007 21.0119 183.289 21.0336 183.484 21.0769C183.701 21.1203 183.81 21.2938 183.81 21.5974C183.81 22.2045 183.94 22.6382 184.2 22.8984C184.482 23.1369 184.807 23.2562 185.176 23.2562C185.371 23.2562 185.544 23.2345 185.696 23.1911C185.848 23.1261 186.011 23.0394 186.184 22.9309L186.347 23.5164H178.703ZM186.119 0.748047L185.176 1.30099C184.742 1.30099 184.406 1.40941 184.168 1.62626C183.929 1.82141 183.81 2.1792 183.81 2.69962C183.701 2.67794 183.582 2.56952 183.452 2.37436C183.322 2.15752 183.257 1.96236 183.257 1.78889C183.257 1.61541 183.289 1.39857 183.354 1.13836C183.419 0.878152 183.571 0.748047 183.81 0.748047H186.119ZM195.584 6.0173C195.584 7.20992 195.292 8.15318 194.706 8.84708C194.121 9.54097 193.394 10.0939 192.527 10.5059C191.659 10.8962 190.716 11.2215 189.697 11.4817C188.678 11.7202 187.735 12.013 186.867 12.3599C186 12.6852 185.273 13.1189 184.688 13.661C184.102 14.1814 183.81 14.9403 183.81 15.9378C183.81 16.0679 183.799 16.0679 183.777 15.9378C183.756 15.786 183.734 15.6017 183.712 15.3848C183.69 15.1463 183.68 14.9186 183.68 14.7018C183.701 14.4633 183.745 14.3115 183.81 14.2464C184.048 13.5959 184.428 13.0863 184.948 12.7177C185.469 12.3274 186.054 11.9913 186.705 11.7094C187.355 11.4058 188.027 11.1239 188.721 10.8637C189.415 10.6035 190.044 10.2782 190.608 9.88792C191.193 9.4976 191.67 8.99887 192.039 8.39171C192.408 7.78455 192.592 6.99308 192.592 6.0173C192.592 4.34762 192.028 3.14415 190.9 2.40688C189.773 1.66962 187.865 1.30099 185.176 1.30099C185.328 1.19257 185.469 1.09499 185.599 1.00826C185.707 0.943204 185.805 0.888994 185.891 0.845626C186 0.780573 186.076 0.748047 186.119 0.748047C187.832 0.748047 189.285 0.856468 190.478 1.07331C191.67 1.26847 192.646 1.58289 193.405 2.01657C194.164 2.42857 194.717 2.97067 195.064 3.64288C195.411 4.29341 195.584 5.08488 195.584 6.0173ZM198.577 23.5164H196.853H193.568L192.82 21.825L195.031 21.6624C195.443 22.3563 195.812 22.79 196.137 22.9635C196.462 23.1152 196.809 23.1911 197.178 23.1911C197.373 23.1911 197.568 23.1695 197.763 23.1261C197.959 23.0827 198.143 23.0068 198.316 22.8984L198.577 23.5164ZM193.568 23.5164L188.071 11.2865L188.754 11.0914L196.137 23.5164H193.568ZM190.575 23.5164L190.738 22.9309C190.825 22.9743 190.955 23.0394 191.128 23.1261C191.302 23.2128 191.508 23.2562 191.746 23.2562C191.92 23.2562 192.104 23.2454 192.299 23.2237C192.516 23.202 192.689 23.1478 192.82 23.061C192.95 22.9526 193.026 22.8008 193.047 22.6057C193.069 22.4105 192.993 22.1503 192.82 21.825L195.031 21.6624L196.137 23.5164H190.575Z" fill="white"/>
<path id="Vector_4" d="M170.342 23.5164V3.12246V0.748047H172.911V22.9635V23.5164H170.342ZM167.967 1.33352L167.805 0.748047H172.911C172.846 0.878153 172.803 0.975731 172.781 1.04078C172.781 1.10584 172.781 1.20341 172.781 1.33352C172.803 1.44194 172.825 1.59373 172.846 1.78889C172.89 1.98404 172.911 2.27678 172.911 2.66709C172.911 2.75383 172.77 2.81888 172.488 2.86225C172.228 2.90562 171.936 2.9273 171.61 2.9273C171.307 2.9273 171.014 2.90562 170.732 2.86225C170.472 2.81888 170.342 2.75383 170.342 2.66709C170.342 2.14668 170.222 1.74552 169.984 1.46362C169.745 1.16005 169.409 1.00826 168.976 1.00826C168.78 1.00826 168.607 1.04078 168.455 1.10584C168.303 1.1492 168.141 1.2251 167.967 1.33352ZM167.805 23.5164L167.967 22.9309C168.141 23.0394 168.303 23.1261 168.455 23.1911C168.607 23.2345 168.78 23.2562 168.976 23.2562C169.171 23.2562 169.355 23.2237 169.529 23.1586C169.702 23.0936 169.854 22.9743 169.984 22.8008C170.092 22.6707 170.179 22.5081 170.244 22.3129C170.309 22.1178 170.342 21.8793 170.342 21.5974C170.342 21.2938 170.461 21.1637 170.7 21.207C170.96 21.2504 171.263 21.3263 171.61 21.4347C171.979 21.3263 172.282 21.2504 172.521 21.207C172.781 21.1637 172.911 21.2938 172.911 21.5974C172.911 22.2045 173.041 22.6382 173.302 22.8984C173.584 23.1369 173.909 23.2562 174.277 23.2562C174.473 23.2562 174.646 23.2345 174.798 23.1911C174.95 23.1261 175.112 23.0394 175.286 22.9309L175.448 23.5164H167.805ZM175.286 1.33352C175.112 1.2251 174.95 1.1492 174.798 1.10584C174.646 1.04078 174.473 1.00826 174.277 1.00826C173.844 1.00826 173.508 1.16005 173.269 1.46362C173.031 1.74552 172.911 2.14668 172.911 2.66709C172.911 2.75383 172.77 2.81888 172.488 2.86225C172.228 2.90562 171.936 2.9273 171.61 2.9273C171.307 2.9273 171.014 2.90562 170.732 2.86225C170.472 2.81888 170.342 2.75383 170.342 2.66709C170.342 2.27678 170.353 1.98404 170.374 1.78889C170.418 1.59373 170.439 1.44194 170.439 1.33352C170.461 1.20341 170.461 1.10584 170.439 1.04078C170.439 0.975731 170.407 0.878153 170.342 0.748047H175.448L175.286 1.33352Z" fill="white"/>
<path id="Vector_5" d="M150.201 23.5164V0.748047H152.771V22.9635V23.5164H150.201ZM147.827 1.33352L147.664 0.748047H152.771V2.69962C152.771 2.89478 152.63 3.02488 152.348 3.08994C152.088 3.1333 151.795 3.14415 151.47 3.12246C151.166 3.07909 150.873 3.01404 150.591 2.9273C150.331 2.84057 150.201 2.75383 150.201 2.66709C150.201 2.14668 150.082 1.74552 149.843 1.46362C149.605 1.16005 149.269 1.00826 148.835 1.00826C148.64 1.00826 148.466 1.04078 148.315 1.10584C148.163 1.1492 148 1.2251 147.827 1.33352ZM147.664 23.5164L147.827 22.9309C148 23.0394 148.163 23.1261 148.315 23.1911C148.466 23.2345 148.64 23.2562 148.835 23.2562C149.29 23.2562 149.626 23.0827 149.843 22.7358C150.082 22.3671 150.201 21.9877 150.201 21.5974C150.201 21.2938 150.342 21.1203 150.624 21.0769C150.906 21.0336 151.231 21.0119 151.6 21.0119C151.968 21.0119 152.25 21.0336 152.445 21.0769C152.662 21.1203 152.771 21.2938 152.771 21.5974C152.771 22.2045 152.901 22.6382 153.161 22.8984C153.443 23.1369 153.768 23.2562 154.137 23.2562C154.332 23.2562 154.505 23.2345 154.657 23.1911C154.809 23.1261 154.972 23.0394 155.145 22.9309L155.308 23.5164H147.664ZM155.08 0.748047L154.137 1.30099C153.703 1.30099 153.367 1.40941 153.128 1.62626C152.89 1.82141 152.771 2.1792 152.771 2.69962C152.662 2.67794 152.543 2.56952 152.413 2.37436C152.283 2.15752 152.218 1.96236 152.218 1.78889C152.218 1.61541 152.25 1.39857 152.315 1.13836C152.38 0.878152 152.532 0.748047 152.771 0.748047H155.08ZM164.545 6.0173C164.545 7.20992 164.252 8.15318 163.667 8.84708C163.081 9.54097 162.355 10.0939 161.488 10.5059C160.62 10.8962 159.677 11.2215 158.658 11.4817C157.639 11.7202 156.696 12.013 155.828 12.3599C154.961 12.6852 154.234 13.1189 153.649 13.661C153.063 14.1814 152.771 14.9403 152.771 15.9378C152.771 16.0679 152.76 16.0679 152.738 15.9378C152.716 15.786 152.695 15.6017 152.673 15.3848C152.651 15.1463 152.641 14.9186 152.641 14.7018C152.662 14.4633 152.706 14.3115 152.771 14.2464C153.009 13.5959 153.389 13.0863 153.909 12.7177C154.43 12.3274 155.015 11.9913 155.666 11.7094C156.316 11.4058 156.988 11.1239 157.682 10.8637C158.376 10.6035 159.005 10.2782 159.569 9.88792C160.154 9.4976 160.631 8.99887 161 8.39171C161.368 7.78455 161.553 6.99308 161.553 6.0173C161.553 4.34762 160.989 3.14415 159.861 2.40688C158.734 1.66962 156.826 1.30099 154.137 1.30099C154.289 1.19257 154.43 1.09499 154.56 1.00826C154.668 0.943204 154.766 0.888994 154.852 0.845626C154.961 0.780573 155.037 0.748047 155.08 0.748047C156.793 0.748047 158.246 0.856468 159.439 1.07331C160.631 1.26847 161.607 1.58289 162.366 2.01657C163.125 2.42857 163.678 2.97067 164.025 3.64288C164.372 4.29341 164.545 5.08488 164.545 6.0173Z" fill="white"/>
<path id="Vector_6" d="M136.165 22.6383C137.271 22.7033 138.355 22.5732 139.418 22.2479C140.48 21.901 141.315 21.3806 141.922 20.6867C142.378 20.1879 142.66 19.6458 142.768 19.0604C142.876 18.4749 142.855 17.9003 142.703 17.3365C142.573 16.7727 142.324 16.2414 141.955 15.7427C141.608 15.244 141.196 14.8211 140.719 14.4742C140.242 14.1272 139.656 13.7586 138.962 13.3683C138.29 12.9563 137.596 12.5226 136.881 12.0672C136.187 11.6119 135.526 11.1457 134.897 10.6686C134.268 10.1699 133.758 9.67113 133.368 9.1724C132.631 8.21829 132.23 7.20998 132.164 6.14746C132.099 5.06325 132.295 4.06578 132.75 3.15504C133.227 2.24431 133.91 1.49621 134.799 0.910734C135.71 0.303578 136.762 0 137.954 0C138.691 0 139.342 0.0867368 139.906 0.26021C140.491 0.433684 140.979 0.617999 141.369 0.813156C141.846 1.05168 142.269 1.32273 142.638 1.62631L141.077 8.42429L140.361 8.09903C140.491 7.96893 140.61 7.78461 140.719 7.54608C140.827 7.28587 140.925 7.02567 141.012 6.76546C141.12 6.48356 141.207 6.21251 141.272 5.9523C141.337 5.67041 141.38 5.45356 141.402 5.30178C141.532 4.5862 141.521 3.9682 141.369 3.44778C141.218 2.90568 140.968 2.46115 140.621 2.1142C140.274 1.74557 139.862 1.47452 139.385 1.30105C138.908 1.10589 138.41 0.98663 137.889 0.943262C137.434 0.899893 136.978 0.910735 136.523 0.975788C136.089 1.04084 135.677 1.17094 135.287 1.3661C134.897 1.53957 134.55 1.78894 134.246 2.1142C133.943 2.43947 133.715 2.86231 133.563 3.38273C133.303 4.29346 133.27 5.10662 133.466 5.8222C133.661 6.51609 133.997 7.14493 134.474 7.70872C134.973 8.2725 135.569 8.77124 136.263 9.20492C136.957 9.63861 137.661 10.0398 138.377 10.4084C139.114 10.777 139.808 11.124 140.459 11.4492C141.131 11.7745 141.673 12.0998 142.085 12.425C142.649 12.8587 143.137 13.39 143.549 14.0188C143.982 14.6476 144.253 15.3415 144.362 16.1005C144.492 16.8594 144.427 17.6726 144.167 18.5399C143.906 19.3856 143.364 20.253 142.54 21.142C141.803 21.9227 140.882 22.5407 139.776 22.996C138.691 23.4514 137.455 23.6791 136.068 23.6791C135.222 23.6791 134.485 23.614 133.856 23.4839C133.227 23.3538 132.707 23.202 132.295 23.0286C131.818 22.8551 131.406 22.6491 131.059 22.4106L132.587 15.8403L133.303 16.1655C133.173 16.2956 133.054 16.4908 132.945 16.751C132.837 16.9895 132.728 17.2497 132.62 17.5316C132.533 17.7918 132.457 18.0629 132.392 18.3448C132.327 18.605 132.284 18.811 132.262 18.9628C132.132 19.6784 132.164 20.2747 132.36 20.7517C132.576 21.2071 132.88 21.5757 133.27 21.8576C133.661 22.1178 134.116 22.3022 134.636 22.4106C135.157 22.519 135.666 22.5949 136.165 22.6383Z" fill="white"/>
<path id="Vector_7" d="M125.26 23.5164L108.639 0.748047H111.209L125.26 20.4589V23.5164ZM125.26 23.5164L124.577 22.1828V0.748047H125.26V23.5164ZM127.635 1.33352C127.461 1.2251 127.299 1.1492 127.147 1.10584C126.995 1.04078 126.821 1.00826 126.626 1.00826C126.193 1.00826 125.857 1.16005 125.618 1.46362C125.379 1.74552 125.26 2.14668 125.26 2.66709C125.26 2.68878 125.228 2.69962 125.163 2.69962C125.119 2.69962 125.065 2.64541 125 2.53699C124.935 2.40688 124.87 2.21173 124.805 1.95152C124.761 1.66962 124.74 1.26847 124.74 0.748047H127.797L127.635 1.33352ZM122.203 1.33352L122.04 0.748047H125.098C125.098 1.26847 125.065 1.66962 125 1.95152C124.957 2.21173 124.902 2.40688 124.837 2.53699C124.772 2.64541 124.707 2.69962 124.642 2.69962C124.599 2.69962 124.577 2.68878 124.577 2.66709C124.577 2.14668 124.458 1.74552 124.219 1.46362C123.981 1.16005 123.645 1.00826 123.211 1.00826C123.016 1.00826 122.842 1.04078 122.691 1.10584C122.539 1.1492 122.376 1.2251 122.203 1.33352ZM110.233 0.748047V23.5164H109.55V0.748047H110.233ZM112.608 22.9309L112.77 23.5164H109.713C109.713 22.996 109.734 22.6057 109.778 22.3455C109.843 22.0636 109.908 21.8684 109.973 21.76C110.038 21.6299 110.092 21.5648 110.136 21.5648C110.201 21.5648 110.233 21.5757 110.233 21.5974C110.233 22.1178 110.352 22.5298 110.591 22.8334C110.829 23.1152 111.166 23.2562 111.599 23.2562C111.794 23.2562 111.968 23.2345 112.12 23.1911C112.271 23.1261 112.434 23.0394 112.608 22.9309ZM107.176 22.9309C107.349 23.0394 107.512 23.1261 107.664 23.1911C107.815 23.2345 107.989 23.2562 108.184 23.2562C108.618 23.2562 108.954 23.1152 109.192 22.8334C109.431 22.5298 109.55 22.1178 109.55 21.5974C109.55 21.5757 109.572 21.5648 109.615 21.5648C109.68 21.5648 109.745 21.6299 109.81 21.76C109.875 21.8684 109.93 22.0636 109.973 22.3455C110.038 22.6057 110.07 22.996 110.07 23.5164H107.013L107.176 22.9309ZM107.143 1.33352L106.98 0.748047H110.038C110.038 1.26847 110.027 1.64794 110.005 1.88647C109.984 2.12499 109.973 2.28762 109.973 2.37436C109.93 2.4611 109.897 2.48278 109.875 2.43941C109.789 2.33099 109.691 2.20089 109.583 2.0491C109.474 1.87562 109.344 1.71299 109.192 1.5612C109.062 1.40941 108.91 1.27931 108.737 1.17089C108.563 1.06247 108.368 1.00826 108.151 1.00826C107.956 1.00826 107.783 1.04078 107.631 1.10584C107.479 1.1492 107.317 1.2251 107.143 1.33352ZM125.26 23.5164L108.639 0.748047H111.209L125.26 20.4589V23.5164ZM125.26 23.5164L124.577 22.1828V0.748047H125.26V23.5164ZM127.635 1.33352C127.461 1.2251 127.299 1.1492 127.147 1.10584C126.995 1.04078 126.821 1.00826 126.626 1.00826C126.193 1.00826 125.857 1.16005 125.618 1.46362C125.379 1.74552 125.26 2.14668 125.26 2.66709C125.26 2.68878 125.228 2.69962 125.163 2.69962C125.119 2.69962 125.065 2.64541 125 2.53699C124.935 2.40688 124.87 2.21173 124.805 1.95152C124.761 1.66962 124.74 1.26847 124.74 0.748047H127.797L127.635 1.33352ZM122.203 1.33352L122.04 0.748047H125.098C125.098 1.26847 125.065 1.66962 125 1.95152C124.957 2.21173 124.902 2.40688 124.837 2.53699C124.772 2.64541 124.707 2.69962 124.642 2.69962C124.599 2.69962 124.577 2.68878 124.577 2.66709C124.577 2.14668 124.458 1.74552 124.219 1.46362C123.981 1.16005 123.645 1.00826 123.211 1.00826C123.016 1.00826 122.842 1.04078 122.691 1.10584C122.539 1.1492 122.376 1.2251 122.203 1.33352ZM110.233 0.748047V23.5164H109.55V0.748047H110.233ZM112.608 22.9309L112.77 23.5164H109.713C109.713 22.996 109.734 22.6057 109.778 22.3455C109.843 22.0636 109.908 21.8684 109.973 21.76C110.038 21.6299 110.092 21.5648 110.136 21.5648C110.201 21.5648 110.233 21.5757 110.233 21.5974C110.233 22.1178 110.352 22.5298 110.591 22.8334C110.829 23.1152 111.166 23.2562 111.599 23.2562C111.794 23.2562 111.968 23.2345 112.12 23.1911C112.271 23.1261 112.434 23.0394 112.608 22.9309ZM107.176 22.9309C107.349 23.0394 107.512 23.1261 107.664 23.1911C107.815 23.2345 107.989 23.2562 108.184 23.2562C108.618 23.2562 108.954 23.1152 109.192 22.8334C109.431 22.5298 109.55 22.1178 109.55 21.5974C109.55 21.5757 109.572 21.5648 109.615 21.5648C109.68 21.5648 109.745 21.6299 109.81 21.76C109.875 21.8684 109.93 22.0636 109.973 22.3455C110.038 22.6057 110.07 22.996 110.07 23.5164H107.013L107.176 22.9309ZM107.143 1.33352L106.98 0.748047H110.038C110.038 1.26847 110.027 1.64794 110.005 1.88647C109.984 2.12499 109.973 2.28762 109.973 2.37436C109.93 2.4611 109.897 2.48278 109.875 2.43941C109.789 2.33099 109.691 2.20089 109.583 2.0491C109.474 1.87562 109.344 1.71299 109.192 1.5612C109.062 1.40941 108.91 1.27931 108.737 1.17089C108.563 1.06247 108.368 1.00826 108.151 1.00826C107.956 1.00826 107.783 1.04078 107.631 1.10584C107.479 1.1492 107.317 1.2251 107.143 1.33352Z" fill="white"/>
<path id="Vector_8" d="M98.6269 23.5164V3.12246V0.748047H101.196V22.9635V23.5164H98.6269ZM96.2525 1.33352L96.0898 0.748047H101.196C101.131 0.878153 101.088 0.975731 101.066 1.04078C101.066 1.10584 101.066 1.20341 101.066 1.33352C101.088 1.44194 101.11 1.59373 101.131 1.78889C101.175 1.98404 101.196 2.27678 101.196 2.66709C101.196 2.75383 101.056 2.81888 100.774 2.86225C100.513 2.90562 100.221 2.9273 99.8954 2.9273C99.5918 2.9273 99.2991 2.90562 99.0172 2.86225C98.757 2.81888 98.6269 2.75383 98.6269 2.66709C98.6269 2.14668 98.5076 1.74552 98.2691 1.46362C98.0306 1.16005 97.6945 1.00826 97.2608 1.00826C97.0656 1.00826 96.8922 1.04078 96.7404 1.10584C96.5886 1.1492 96.4259 1.2251 96.2525 1.33352ZM96.0898 23.5164L96.2525 22.9309C96.4259 23.0394 96.5886 23.1261 96.7404 23.1911C96.8922 23.2345 97.0656 23.2562 97.2608 23.2562C97.4559 23.2562 97.6403 23.2237 97.8137 23.1586C97.9872 23.0936 98.139 22.9743 98.2691 22.8008C98.3775 22.6707 98.4643 22.5081 98.5293 22.3129C98.5944 22.1178 98.6269 21.8793 98.6269 21.5974C98.6269 21.2938 98.7461 21.1637 98.9847 21.207C99.2449 21.2504 99.5485 21.3263 99.8954 21.4347C100.264 21.3263 100.568 21.2504 100.806 21.207C101.066 21.1637 101.196 21.2938 101.196 21.5974C101.196 22.2045 101.327 22.6382 101.587 22.8984C101.869 23.1369 102.194 23.2562 102.563 23.2562C102.758 23.2562 102.931 23.2345 103.083 23.1911C103.235 23.1261 103.397 23.0394 103.571 22.9309L103.734 23.5164H96.0898ZM103.571 1.33352C103.397 1.2251 103.235 1.1492 103.083 1.10584C102.931 1.04078 102.758 1.00826 102.563 1.00826C102.129 1.00826 101.793 1.16005 101.554 1.46362C101.316 1.74552 101.196 2.14668 101.196 2.66709C101.196 2.75383 101.056 2.81888 100.774 2.86225C100.513 2.90562 100.221 2.9273 99.8954 2.9273C99.5918 2.9273 99.2991 2.90562 99.0172 2.86225C98.757 2.81888 98.6269 2.75383 98.6269 2.66709C98.6269 2.27678 98.6377 1.98404 98.6594 1.78889C98.7028 1.59373 98.7245 1.44194 98.7245 1.33352C98.7461 1.20341 98.7461 1.10584 98.7245 1.04078C98.7245 0.975731 98.6919 0.878153 98.6269 0.748047H103.734L103.571 1.33352Z" fill="white"/>
<path id="Vector_9" d="M70.6738 0.748047H73.2433V1.30099V23.5164H70.6738V0.748047ZM68.1367 0.748047H75.7804L75.6177 1.33352C75.4443 1.2251 75.2816 1.1492 75.1299 1.10584C74.9781 1.04078 74.8046 1.00826 74.6094 1.00826C74.2408 1.00826 73.9155 1.13836 73.6337 1.39857C73.3734 1.6371 73.2433 2.05994 73.2433 2.66709C73.2433 2.97067 73.1132 3.10078 72.853 3.05741C72.6145 3.01404 72.3109 2.93815 71.9423 2.82973C71.5953 2.93815 71.2918 3.01404 71.0316 3.05741C70.793 3.10078 70.6738 2.97067 70.6738 2.66709C70.6738 2.3852 70.6412 2.14667 70.5762 1.95152C70.5111 1.75636 70.4244 1.59373 70.316 1.46362C70.1859 1.29015 70.0341 1.17089 69.8606 1.10584C69.6871 1.04078 69.5028 1.00826 69.3077 1.00826C69.1125 1.00826 68.939 1.04078 68.7872 1.10584C68.6355 1.1492 68.4728 1.2251 68.2993 1.33352L68.1367 0.748047ZM70.6738 0.748047H73.2433V1.30099V23.5164H70.6738V0.748047ZM68.1367 0.748047H75.7804L75.6177 1.33352C75.4443 1.2251 75.2816 1.1492 75.1299 1.10584C74.9781 1.04078 74.8046 1.00826 74.6094 1.00826C74.2408 1.00826 73.9155 1.13836 73.6337 1.39857C73.3734 1.6371 73.2433 2.05994 73.2433 2.66709C73.2433 2.97067 73.1132 3.10078 72.853 3.05741C72.6145 3.01404 72.3109 2.93815 71.9423 2.82973C71.5953 2.93815 71.2918 3.01404 71.0316 3.05741C70.793 3.10078 70.6738 2.97067 70.6738 2.66709C70.6738 2.3852 70.6412 2.14667 70.5762 1.95152C70.5111 1.75636 70.4244 1.59373 70.316 1.46362C70.1859 1.29015 70.0341 1.17089 69.8606 1.10584C69.6871 1.04078 69.5028 1.00826 69.3077 1.00826C69.1125 1.00826 68.939 1.04078 68.7872 1.10584C68.6355 1.1492 68.4728 1.2251 68.2993 1.33352L68.1367 0.748047ZM70.6738 22.8334V23.5164V22.8334ZM70.6738 22.8334H84.0095V23.5164H70.6738V22.8334ZM81.8628 23.5164L79.0655 22.8334C79.4775 22.8334 79.9437 22.8008 80.4642 22.7358C80.9846 22.649 81.4508 22.4756 81.8628 22.2154C82.2965 21.9551 82.6326 21.5648 82.8711 21.0444C83.1096 20.524 83.1421 19.8301 82.9687 18.9627C82.947 18.8109 82.9036 18.6049 82.8386 18.3447C82.7735 18.0628 82.6868 17.7918 82.5784 17.5316C82.4916 17.2497 82.394 16.9895 82.2856 16.751C82.1772 16.4907 82.0579 16.2956 81.9278 16.1655L82.6434 15.8402L84.3998 23.5164H81.8628Z" fill="white"/>
<path id="Vector_10" d="M59.7753 23.5164V3.12246V0.748047H62.3449V22.9635V23.5164H59.7753ZM57.4009 1.33352L57.2383 0.748047H62.3449C62.2798 0.878153 62.2365 0.975731 62.2148 1.04078C62.2148 1.10584 62.2148 1.20341 62.2148 1.33352C62.2365 1.44194 62.2582 1.59373 62.2798 1.78889C62.3232 1.98404 62.3449 2.27678 62.3449 2.66709C62.3449 2.75383 62.2039 2.81888 61.9221 2.86225C61.6618 2.90562 61.3691 2.9273 61.0438 2.9273C60.7403 2.9273 60.4475 2.90562 60.1656 2.86225C59.9054 2.81888 59.7753 2.75383 59.7753 2.66709C59.7753 2.14668 59.6561 1.74552 59.4175 1.46362C59.179 1.16005 58.8429 1.00826 58.4092 1.00826C58.2141 1.00826 58.0406 1.04078 57.8888 1.10584C57.737 1.1492 57.5744 1.2251 57.4009 1.33352ZM57.2383 23.5164L57.4009 22.9309C57.5744 23.0394 57.737 23.1261 57.8888 23.1911C58.0406 23.2345 58.2141 23.2562 58.4092 23.2562C58.6044 23.2562 58.7887 23.2237 58.9622 23.1586C59.1356 23.0936 59.2874 22.9743 59.4175 22.8008C59.526 22.6707 59.6127 22.5081 59.6777 22.3129C59.7428 22.1178 59.7753 21.8793 59.7753 21.5974C59.7753 21.2938 59.8946 21.1637 60.1331 21.207C60.3933 21.2504 60.6969 21.3263 61.0438 21.4347C61.4125 21.3263 61.7161 21.2504 61.9546 21.207C62.2148 21.1637 62.3449 21.2938 62.3449 21.5974C62.3449 22.2045 62.475 22.6382 62.7352 22.8984C63.0171 23.1369 63.3424 23.2562 63.711 23.2562C63.9062 23.2562 64.0796 23.2345 64.2314 23.1911C64.3832 23.1261 64.5458 23.0394 64.7193 22.9309L64.8819 23.5164H57.2383ZM64.7193 1.33352C64.5458 1.2251 64.3832 1.1492 64.2314 1.10584C64.0796 1.04078 63.9062 1.00826 63.711 1.00826C63.2773 1.00826 62.9412 1.16005 62.7027 1.46362C62.4642 1.74552 62.3449 2.14668 62.3449 2.66709C62.3449 2.75383 62.2039 2.81888 61.9221 2.86225C61.6618 2.90562 61.3691 2.9273 61.0438 2.9273C60.7403 2.9273 60.4475 2.90562 60.1656 2.86225C59.9054 2.81888 59.7753 2.75383 59.7753 2.66709C59.7753 2.27678 59.7862 1.98404 59.8079 1.78889C59.8512 1.59373 59.8729 1.44194 59.8729 1.33352C59.8946 1.20341 59.8946 1.10584 59.8729 1.04078C59.8729 0.975731 59.8404 0.878153 59.7753 0.748047H64.8819L64.7193 1.33352Z" fill="white"/>
<path id="Vector_11" d="M29.557 9.59544C29.557 11.3302 29.8605 12.9782 30.4677 14.5394C31.0965 16.079 31.9314 17.4343 32.9722 18.6052C34.0131 19.7545 35.2057 20.676 36.5501 21.3699C37.9162 22.0421 39.3257 22.3782 40.7785 22.3782C41.841 22.3782 42.7951 22.2156 43.6408 21.8904C44.5082 21.5434 45.2671 21.088 45.9177 20.5242C46.5682 19.9605 47.1103 19.3099 47.544 18.5727C47.9776 17.8137 48.2921 17.0223 48.4872 16.1983C48.4655 16.1983 48.5198 16.1983 48.6499 16.1983C48.8017 16.1766 48.9643 16.1657 49.1378 16.1657C49.3329 16.1657 49.5606 16.1657 49.8208 16.1657C49.4088 17.2499 48.845 18.2474 48.1294 19.1581C47.4139 20.0472 46.5899 20.817 45.6574 21.4675C44.725 22.118 43.695 22.6276 42.5675 22.9962C41.4616 23.3649 40.2906 23.5492 39.0546 23.5492C37.4717 23.5492 35.9755 23.2456 34.566 22.6385C33.1565 22.0313 31.9314 21.2073 30.8905 20.1665C29.8497 19.1256 29.0257 17.9005 28.4185 16.491C27.8114 15.0815 27.5078 13.5853 27.5078 12.0024C27.5078 10.3977 27.8114 8.90154 28.4185 7.51376C29.0257 6.10429 29.8497 4.87913 30.8905 3.83829C31.9314 2.79745 33.1565 1.97346 34.566 1.3663C35.9755 0.759144 37.4717 0.455566 39.0546 0.455566C40.3123 0.455566 41.5049 0.650723 42.6325 1.04104C43.7818 1.40967 44.8226 1.93009 45.755 2.6023C46.7091 3.27451 47.544 4.08766 48.2595 5.04177C48.9751 5.97418 49.5281 6.99334 49.9184 8.09923C49.4413 7.51376 48.9209 7.06923 48.3571 6.76565C47.815 6.44039 47.2946 6.20187 46.7959 6.05008C46.2104 5.8766 45.6249 5.77903 45.0394 5.75734C44.7792 5.17187 44.4106 4.61892 43.9336 4.09851C43.4782 3.57808 42.9361 3.13356 42.3072 2.76493C41.7001 2.3963 41.017 2.10356 40.2581 1.88672C39.5208 1.64819 38.751 1.52893 37.9487 1.52893C36.8645 1.52893 35.8128 1.69156 34.7937 2.01683C33.7962 2.34209 32.9072 2.84082 32.1265 3.51303C31.3459 4.16356 30.7171 4.9984 30.24 6.01755C29.7846 7.03671 29.557 8.22933 29.557 9.59544ZM49.8208 16.1657L46.3405 20.199C46.6224 19.852 46.8718 19.4509 47.0886 18.9955C47.3054 18.5185 47.4139 18.0197 47.4139 17.4993C47.4139 17.0006 47.2621 16.5018 46.9585 16.0031C46.6549 15.5044 46.0911 15.0707 45.2671 14.7021C45.137 14.637 44.9419 14.5611 44.6817 14.4744C44.4215 14.3659 44.1504 14.2684 43.8685 14.1816C43.5866 14.0949 43.3047 14.0298 43.0228 13.9865C42.7626 13.9214 42.5458 13.9106 42.3723 13.954L42.5349 13.1733L49.8208 16.1657ZM49.8208 16.1657L53.9842 22.8336L53.2686 23.1263C53.2686 22.9529 53.2144 22.736 53.106 22.4758C53.0192 22.2156 52.9108 21.9554 52.7807 21.6952C52.6506 21.4133 52.5096 21.1639 52.3578 20.9471C52.2277 20.7086 52.1193 20.5242 52.0326 20.3941C51.5339 19.6569 51.0351 19.169 50.5364 18.9305C50.0376 18.6919 49.5389 18.616 49.0402 18.7028C48.78 18.7461 48.5631 18.8329 48.3896 18.963C48.2379 19.0714 48.0861 19.2124 47.9343 19.3858C47.7825 19.5593 47.6199 19.7436 47.4464 19.9388C47.2729 20.1339 47.0561 20.3399 46.7959 20.5568L49.8208 16.1657Z" fill="white"/>
<path id="Vector_12" d="M19.1464 23.5164V3.12246V0.748047H21.716V22.9635V23.5164H19.1464ZM16.772 1.33352L16.6094 0.748047H21.716C21.6509 0.878153 21.6076 0.975731 21.5859 1.04078C21.5859 1.10584 21.5859 1.20341 21.5859 1.33352C21.6076 1.44194 21.6293 1.59373 21.6509 1.78889C21.6943 1.98404 21.716 2.27678 21.716 2.66709C21.716 2.75383 21.575 2.81888 21.2932 2.86225C21.0329 2.90562 20.7402 2.9273 20.4149 2.9273C20.1114 2.9273 19.8186 2.90562 19.5367 2.86225C19.2765 2.81888 19.1464 2.75383 19.1464 2.66709C19.1464 2.14668 19.0272 1.74552 18.7886 1.46362C18.5501 1.16005 18.214 1.00826 17.7803 1.00826C17.5852 1.00826 17.4117 1.04078 17.2599 1.10584C17.1081 1.1492 16.9455 1.2251 16.772 1.33352ZM16.6094 23.5164L16.772 22.9309C16.9455 23.0394 17.1081 23.1261 17.2599 23.1911C17.4117 23.2345 17.5852 23.2562 17.7803 23.2562C17.9755 23.2562 18.1598 23.2237 18.3333 23.1586C18.5067 23.0936 18.6585 22.9743 18.7886 22.8008C18.8971 22.6707 18.9838 22.5081 19.0488 22.3129C19.1139 22.1178 19.1464 21.8793 19.1464 21.5974C19.1464 21.2938 19.2657 21.1637 19.5042 21.207C19.7644 21.2504 20.068 21.3263 20.4149 21.4347C20.7836 21.3263 21.0872 21.2504 21.3257 21.207C21.5859 21.1637 21.716 21.2938 21.716 21.5974C21.716 22.2045 21.8461 22.6382 22.1063 22.8984C22.3882 23.1369 22.7135 23.2562 23.0821 23.2562C23.2773 23.2562 23.4507 23.2345 23.6025 23.1911C23.7543 23.1261 23.9169 23.0394 24.0904 22.9309L24.253 23.5164H16.6094ZM24.0904 1.33352C23.9169 1.2251 23.7543 1.1492 23.6025 1.10584C23.4507 1.04078 23.2773 1.00826 23.0821 1.00826C22.6484 1.00826 22.3123 1.16005 22.0738 1.46362C21.8353 1.74552 21.716 2.14668 21.716 2.66709C21.716 2.75383 21.575 2.81888 21.2932 2.86225C21.0329 2.90562 20.7402 2.9273 20.4149 2.9273C20.1114 2.9273 19.8186 2.90562 19.5367 2.86225C19.2765 2.81888 19.1464 2.75383 19.1464 2.66709C19.1464 2.27678 19.1573 1.98404 19.1789 1.78889C19.2223 1.59373 19.244 1.44194 19.244 1.33352C19.2657 1.20341 19.2657 1.10584 19.244 1.04078C19.244 0.975731 19.2115 0.878153 19.1464 0.748047H24.253L24.0904 1.33352Z" fill="white"/>
<path id="Vector_13" d="M5.10662 22.6383C6.21251 22.7033 7.29672 22.5732 8.35924 22.2479C9.42176 21.901 10.2566 21.3806 10.8638 20.6867C11.3191 20.1879 11.601 19.6458 11.7094 19.0604C11.8179 18.4749 11.7962 17.9003 11.6444 17.3365C11.5143 16.7727 11.2649 16.2414 10.8963 15.7427C10.5493 15.244 10.1373 14.8211 9.66029 14.4742C9.18324 14.1272 8.59777 13.7586 7.90387 13.3683C7.23166 12.9563 6.53777 12.5226 5.8222 12.0672C5.1283 11.6119 4.46694 11.1457 3.83809 10.6686C3.20925 10.1699 2.69968 9.67113 2.30936 9.1724C1.5721 8.21829 1.17094 7.20998 1.10589 6.14746C1.04084 5.06325 1.236 4.06578 1.69136 3.15504C2.16842 2.24431 2.85147 1.49621 3.74052 0.910734C4.65125 0.303578 5.70293 0 6.89556 0C7.63282 0 8.28335 0.0867368 8.84713 0.26021C9.43261 0.433684 9.9205 0.617999 10.3108 0.813156C10.7879 1.05168 11.2107 1.32273 11.5793 1.62631L10.0181 8.42429L9.3025 8.09903C9.43261 7.96893 9.55187 7.78461 9.66029 7.54608C9.76871 7.28587 9.86629 7.02567 9.95303 6.76546C10.0614 6.48356 10.1482 6.21251 10.2132 5.9523C10.2783 5.67041 10.3217 5.45356 10.3433 5.30178C10.4734 4.5862 10.4626 3.9682 10.3108 3.44778C10.159 2.90568 9.90966 2.46115 9.56271 2.1142C9.21576 1.74557 8.80377 1.47452 8.32671 1.30105C7.84966 1.10589 7.35093 0.98663 6.83051 0.943262C6.37514 0.899893 5.91977 0.910735 5.46441 0.975788C5.03072 1.04084 4.61872 1.17094 4.22841 1.3661C3.83809 1.53957 3.49115 1.78894 3.18757 2.1142C2.88399 2.43947 2.65631 2.86231 2.50452 3.38273C2.24431 4.29346 2.21178 5.10662 2.40694 5.8222C2.6021 6.51609 2.9382 7.14493 3.41525 7.70872C3.91399 8.2725 4.5103 8.77124 5.2042 9.20492C5.89809 9.63861 6.60282 10.0398 7.3184 10.4084C8.05566 10.777 8.74956 11.124 9.40008 11.4492C10.0723 11.7745 10.6144 12.0998 11.0264 12.425C11.5902 12.8587 12.0781 13.39 12.4901 14.0188C12.9238 14.6476 13.1948 15.3415 13.3032 16.1005C13.4333 16.8594 13.3683 17.6726 13.1081 18.5399C12.8479 19.3856 12.3058 20.253 11.4818 21.142C10.7445 21.9227 9.82292 22.5407 8.71703 22.996C7.63282 23.4514 6.39682 23.6791 5.00904 23.6791C4.16336 23.6791 3.4261 23.614 2.79726 23.4839C2.16842 23.3538 1.648 23.202 1.236 23.0286C0.758945 22.8551 0.346946 22.6491 0 22.4106L1.52873 15.8403L2.24431 16.1655C2.1142 16.2956 1.99494 16.4908 1.88652 16.751C1.7781 16.9895 1.66968 17.2497 1.56126 17.5316C1.47452 17.7918 1.39863 18.0629 1.33358 18.3448C1.26852 18.605 1.22515 18.811 1.20347 18.9628C1.07337 19.6784 1.10589 20.2747 1.30105 20.7517C1.51789 21.2071 1.82147 21.5757 2.21178 21.8576C2.6021 22.1178 3.05747 22.3022 3.57789 22.4106C4.0983 22.519 4.60788 22.5949 5.10662 22.6383Z" fill="white"/>
</g>
<g id="TAMMY TANUKA">
<path id="Vector_14" d="M197.225 47.9314L197.323 47.5562C197.429 47.622 197.528 47.6747 197.62 47.7142C197.712 47.7537 197.824 47.7734 197.955 47.7734C198.271 47.7734 198.508 47.6747 198.666 47.4772C198.824 47.2665 198.851 46.9703 198.745 46.5885L195.171 34.5027C195.434 34.3579 195.665 34.167 195.862 33.93C196.073 33.6799 196.224 33.4034 196.316 33.1006L200.384 46.7268C200.49 47.0427 200.589 47.2994 200.681 47.4969C200.786 47.6812 200.97 47.7734 201.234 47.7734C201.352 47.7734 201.457 47.7537 201.55 47.7142C201.655 47.6747 201.76 47.622 201.866 47.5562L201.964 47.9314H197.225ZM190.273 47.9116L190.372 47.5562C190.477 47.622 190.576 47.6747 190.668 47.7142C190.761 47.7405 190.866 47.7537 190.984 47.7537C191.208 47.7537 191.386 47.6812 191.518 47.5364C191.649 47.3784 191.768 47.1283 191.873 46.786L192.386 46.5885L192.051 47.9116H191.32H190.273ZM192.11 47.7142H191.616L195.171 34.5027H195.368L192.11 47.7142ZM193.631 47.9116H191.557L191.873 46.786L192.347 46.7662C192.242 47.1085 192.255 47.3587 192.386 47.5167C192.518 47.6747 192.696 47.7537 192.92 47.7537C193.064 47.7537 193.19 47.7273 193.295 47.6747C193.4 47.622 193.479 47.5825 193.532 47.5562L193.631 47.9116ZM193.058 43.6461V43.4881L198.252 43.2313V43.6461H193.058Z" fill="white"/>
<path id="Vector_15" d="M183.986 34.4434L183.888 34.0879H186.198H187.245L187.146 34.4434C187.041 34.3775 186.929 34.3315 186.81 34.3051C186.705 34.2656 186.593 34.2459 186.475 34.2459C186.251 34.2459 186.007 34.3117 185.744 34.4434C185.494 34.575 185.237 34.7791 184.974 35.0555L184.599 34.9766C184.783 34.7922 184.901 34.6277 184.954 34.4829C185.02 34.3249 184.901 34.2459 184.599 34.2459C184.454 34.2459 184.329 34.2722 184.223 34.3249C184.118 34.3775 184.039 34.417 183.986 34.4434ZM177.865 47.9115V35.5295V34.0879H179.425V47.5758V47.9115H177.865ZM176.423 34.4434L176.324 34.0879H179.425C179.385 34.1669 179.359 34.2261 179.346 34.2656C179.346 34.3051 179.346 34.3644 179.346 34.4434C179.359 34.5092 179.372 34.6013 179.385 34.7198C179.412 34.8383 179.425 35.016 179.425 35.253C179.425 35.3057 179.339 35.3452 179.168 35.3715C179.01 35.3978 178.832 35.411 178.635 35.411C178.45 35.411 178.273 35.3978 178.102 35.3715C177.944 35.3452 177.865 35.3057 177.865 35.253C177.865 34.9371 177.792 34.6935 177.647 34.5223C177.503 34.338 177.298 34.2459 177.035 34.2459C176.917 34.2459 176.811 34.2656 176.719 34.3051C176.627 34.3315 176.528 34.3775 176.423 34.4434ZM176.324 47.9115L176.423 47.5561C176.528 47.6219 176.627 47.6746 176.719 47.7141C176.811 47.7404 176.917 47.7536 177.035 47.7536C177.154 47.7536 177.266 47.7338 177.371 47.6943C177.476 47.6548 177.568 47.5824 177.647 47.4771C177.713 47.3981 177.766 47.2993 177.805 47.1809C177.845 47.0624 177.865 46.9176 177.865 46.7464C177.865 46.5621 177.937 46.4831 178.082 46.5094C178.24 46.5358 178.424 46.5818 178.635 46.6477C178.859 46.5818 179.043 46.5358 179.188 46.5094C179.346 46.4831 179.425 46.5621 179.425 46.7464C179.425 47.115 179.504 47.3783 179.662 47.5363C179.833 47.6811 180.03 47.7536 180.254 47.7536C180.373 47.7536 180.478 47.7404 180.57 47.7141C180.662 47.6746 180.761 47.6219 180.866 47.5561L180.965 47.9115H176.324ZM180.866 34.4434C180.761 34.3775 180.662 34.3315 180.57 34.3051C180.478 34.2656 180.373 34.2459 180.254 34.2459C179.991 34.2459 179.787 34.338 179.642 34.5223C179.497 34.6935 179.425 34.9371 179.425 35.253C179.425 35.3057 179.339 35.3452 179.168 35.3715C179.01 35.3978 178.832 35.411 178.635 35.411C178.45 35.411 178.273 35.3978 178.102 35.3715C177.944 35.3452 177.865 35.3057 177.865 35.253C177.865 35.016 177.871 34.8383 177.884 34.7198C177.911 34.6013 177.924 34.5092 177.924 34.4434C177.937 34.3644 177.937 34.3051 177.924 34.2656C177.924 34.2261 177.904 34.1669 177.865 34.0879H180.965L180.866 34.4434ZM184.994 47.9115L179.978 39.8346L181.005 38.8669L186.554 47.5758V47.9115H184.994ZM183.453 47.9115L183.552 47.5561C183.657 47.6219 183.756 47.6746 183.848 47.7141C183.94 47.7404 184.046 47.7536 184.164 47.7536C184.467 47.7536 184.605 47.6548 184.579 47.4573C184.553 47.2599 184.454 47.0295 184.283 46.7661C184.243 46.7003 184.302 46.6542 184.46 46.6279C184.632 46.5884 184.822 46.5687 185.033 46.5687C185.257 46.5687 185.468 46.5818 185.665 46.6082C185.863 46.6345 185.981 46.6806 186.021 46.7464C186.205 47.0492 186.422 47.2928 186.672 47.4771C186.922 47.6614 187.159 47.7536 187.383 47.7536C187.502 47.7536 187.607 47.7404 187.699 47.7141C187.791 47.6746 187.89 47.6219 187.995 47.5561L188.094 47.9115H183.453ZM178.674 40.7627L185.507 34.0879H185.961L179.128 40.7627H178.674Z" fill="white"/>
<path id="Vector_16" d="M168.12 47.9115C167.356 47.9115 166.658 47.7996 166.026 47.5758C165.407 47.3388 164.874 47.0163 164.427 46.6082C163.992 46.1869 163.65 45.6932 163.4 45.1271C163.163 44.5609 163.044 43.9488 163.044 43.2905V34.0879H164.604V34.4236V43.4485C164.631 43.9356 164.71 44.4161 164.841 44.8901C164.986 45.364 165.197 45.7853 165.473 46.154C165.763 46.5226 166.118 46.8254 166.54 47.0624C166.974 47.2862 167.488 47.4047 168.08 47.4178C168.633 47.431 169.153 47.352 169.64 47.1809C170.127 46.9965 170.555 46.7398 170.924 46.4107C171.292 46.0684 171.589 45.6603 171.812 45.1863C172.049 44.6992 172.174 44.1594 172.188 43.567H172.602C172.602 44.0409 172.517 44.5346 172.346 45.0481C172.188 45.5484 171.931 46.0157 171.575 46.4502C171.22 46.8715 170.759 47.2204 170.193 47.4968C169.627 47.7733 168.936 47.9115 168.12 47.9115ZM161.504 34.0879H166.145L166.046 34.4434C165.941 34.3775 165.842 34.3315 165.75 34.3051C165.658 34.2656 165.552 34.2459 165.434 34.2459C165.21 34.2459 165.012 34.3249 164.841 34.4829C164.683 34.6277 164.604 34.8844 164.604 35.253C164.604 35.4373 164.525 35.5163 164.367 35.49C164.223 35.4637 164.038 35.4176 163.814 35.3518C163.604 35.4176 163.419 35.4637 163.261 35.49C163.117 35.5163 163.044 35.4373 163.044 35.253C163.044 35.0819 163.025 34.9371 162.985 34.8186C162.946 34.7001 162.893 34.6013 162.827 34.5223C162.748 34.417 162.656 34.3446 162.551 34.3051C162.445 34.2656 162.333 34.2459 162.215 34.2459C162.096 34.2459 161.991 34.2656 161.899 34.3051C161.807 34.3315 161.708 34.3775 161.603 34.4434L161.504 34.0879ZM172.188 43.567V34.0879H172.602V43.567H172.188ZM170.647 34.0879H172.583V35.2728C172.504 35.3254 172.438 35.3649 172.385 35.3913C172.332 35.4176 172.286 35.4242 172.247 35.411C172.207 35.3978 172.188 35.3452 172.188 35.253C172.188 35.0819 172.168 34.9371 172.128 34.8186C172.089 34.7001 172.036 34.6013 171.97 34.5223C171.878 34.417 171.779 34.3446 171.674 34.3051C171.582 34.2656 171.477 34.2459 171.358 34.2459C171.24 34.2459 171.134 34.2656 171.042 34.3051C170.95 34.3315 170.851 34.3775 170.746 34.4434L170.647 34.0879ZM174.143 34.0879L174.044 34.4434C173.939 34.3775 173.84 34.3315 173.748 34.3051C173.656 34.2656 173.55 34.2459 173.432 34.2459C173.313 34.2459 173.201 34.2656 173.096 34.3051C173.004 34.3446 172.912 34.417 172.82 34.5223C172.754 34.6013 172.701 34.7001 172.662 34.8186C172.622 34.9371 172.602 35.0819 172.602 35.253C172.602 35.3452 172.583 35.3978 172.543 35.411C172.504 35.4242 172.458 35.4176 172.405 35.3913C172.352 35.3649 172.286 35.3254 172.207 35.2728V34.0879H174.143Z" fill="white"/>
<path id="Vector_17" d="M157.79 47.9115L147.699 34.0879H149.259L157.79 46.0552V47.9115ZM157.79 47.9115L157.375 47.1019V34.0879H157.79V47.9115ZM159.231 34.4434C159.126 34.3775 159.027 34.3315 158.935 34.3051C158.843 34.2656 158.738 34.2459 158.619 34.2459C158.356 34.2459 158.152 34.338 158.007 34.5223C157.862 34.6935 157.79 34.9371 157.79 35.253C157.79 35.2662 157.77 35.2728 157.731 35.2728C157.704 35.2728 157.671 35.2399 157.632 35.174C157.592 35.095 157.553 34.9766 157.513 34.8186C157.487 34.6474 157.474 34.4039 157.474 34.0879H159.33L159.231 34.4434ZM155.934 34.4434L155.835 34.0879H157.691C157.691 34.4039 157.671 34.6474 157.632 34.8186C157.606 34.9766 157.573 35.095 157.533 35.174C157.494 35.2399 157.454 35.2728 157.415 35.2728C157.388 35.2728 157.375 35.2662 157.375 35.253C157.375 34.9371 157.303 34.6935 157.158 34.5223C157.013 34.338 156.809 34.2459 156.546 34.2459C156.427 34.2459 156.322 34.2656 156.23 34.3051C156.138 34.3315 156.039 34.3775 155.934 34.4434ZM148.666 34.0879V47.9115H148.252V34.0879H148.666ZM150.108 47.5561L150.207 47.9115H148.35C148.35 47.5956 148.363 47.3586 148.39 47.2006C148.429 47.0295 148.469 46.911 148.508 46.8451C148.548 46.7661 148.581 46.7267 148.607 46.7267C148.646 46.7267 148.666 46.7332 148.666 46.7464C148.666 47.0624 148.739 47.3125 148.883 47.4968C149.028 47.668 149.232 47.7536 149.496 47.7536C149.614 47.7536 149.719 47.7404 149.812 47.7141C149.904 47.6746 150.003 47.6219 150.108 47.5561ZM146.81 47.5561C146.915 47.6219 147.014 47.6746 147.106 47.7141C147.198 47.7404 147.304 47.7536 147.422 47.7536C147.685 47.7536 147.889 47.668 148.034 47.4968C148.179 47.3125 148.252 47.0624 148.252 46.7464C148.252 46.7332 148.265 46.7267 148.291 46.7267C148.33 46.7267 148.37 46.7661 148.409 46.8451C148.449 46.911 148.482 47.0295 148.508 47.2006C148.548 47.3586 148.567 47.5956 148.567 47.9115H146.711L146.81 47.5561ZM146.79 34.4434L146.691 34.0879H148.548C148.548 34.4039 148.541 34.6343 148.528 34.7791C148.515 34.9239 148.508 35.0226 148.508 35.0753C148.482 35.128 148.462 35.1411 148.449 35.1148C148.396 35.049 148.337 34.97 148.271 34.8778C148.205 34.7725 148.126 34.6737 148.034 34.5816C147.955 34.4894 147.863 34.4104 147.758 34.3446C147.652 34.2788 147.534 34.2459 147.402 34.2459C147.284 34.2459 147.179 34.2656 147.086 34.3051C146.994 34.3315 146.895 34.3775 146.79 34.4434ZM157.79 47.9115L147.699 34.0879H149.259L157.79 46.0552V47.9115ZM157.79 47.9115L157.375 47.1019V34.0879H157.79V47.9115ZM159.231 34.4434C159.126 34.3775 159.027 34.3315 158.935 34.3051C158.843 34.2656 158.738 34.2459 158.619 34.2459C158.356 34.2459 158.152 34.338 158.007 34.5223C157.862 34.6935 157.79 34.9371 157.79 35.253C157.79 35.2662 157.77 35.2728 157.731 35.2728C157.704 35.2728 157.671 35.2399 157.632 35.174C157.592 35.095 157.553 34.9766 157.513 34.8186C157.487 34.6474 157.474 34.4039 157.474 34.0879H159.33L159.231 34.4434ZM155.934 34.4434L155.835 34.0879H157.691C157.691 34.4039 157.671 34.6474 157.632 34.8186C157.606 34.9766 157.573 35.095 157.533 35.174C157.494 35.2399 157.454 35.2728 157.415 35.2728C157.388 35.2728 157.375 35.2662 157.375 35.253C157.375 34.9371 157.303 34.6935 157.158 34.5223C157.013 34.338 156.809 34.2459 156.546 34.2459C156.427 34.2459 156.322 34.2656 156.23 34.3051C156.138 34.3315 156.039 34.3775 155.934 34.4434ZM148.666 34.0879V47.9115H148.252V34.0879H148.666ZM150.108 47.5561L150.207 47.9115H148.35C148.35 47.5956 148.363 47.3586 148.39 47.2006C148.429 47.0295 148.469 46.911 148.508 46.8451C148.548 46.7661 148.581 46.7267 148.607 46.7267C148.646 46.7267 148.666 46.7332 148.666 46.7464C148.666 47.0624 148.739 47.3125 148.883 47.4968C149.028 47.668 149.232 47.7536 149.496 47.7536C149.614 47.7536 149.719 47.7404 149.812 47.7141C149.904 47.6746 150.003 47.6219 150.108 47.5561ZM146.81 47.5561C146.915 47.6219 147.014 47.6746 147.106 47.7141C147.198 47.7404 147.304 47.7536 147.422 47.7536C147.685 47.7536 147.889 47.668 148.034 47.4968C148.179 47.3125 148.252 47.0624 148.252 46.7464C148.252 46.7332 148.265 46.7267 148.291 46.7267C148.33 46.7267 148.37 46.7661 148.409 46.8451C148.449 46.911 148.482 47.0295 148.508 47.2006C148.548 47.3586 148.567 47.5956 148.567 47.9115H146.711L146.81 47.5561ZM146.79 34.4434L146.691 34.0879H148.548C148.548 34.4039 148.541 34.6343 148.528 34.7791C148.515 34.9239 148.508 35.0226 148.508 35.0753C148.482 35.128 148.462 35.1411 148.449 35.1148C148.396 35.049 148.337 34.97 148.271 34.8778C148.205 34.7725 148.126 34.6737 148.034 34.5816C147.955 34.4894 147.863 34.4104 147.758 34.3446C147.652 34.2788 147.534 34.2459 147.402 34.2459C147.284 34.2459 147.179 34.2656 147.086 34.3051C146.994 34.3315 146.895 34.3775 146.79 34.4434Z" fill="white"/>
<path id="Vector_18" d="M139.768 47.9314L139.866 47.5562C139.972 47.622 140.071 47.6747 140.163 47.7142C140.255 47.7537 140.367 47.7734 140.498 47.7734C140.814 47.7734 141.051 47.6747 141.209 47.4772C141.367 47.2665 141.394 46.9703 141.288 46.5885L137.714 34.5027C137.977 34.3579 138.208 34.167 138.405 33.93C138.616 33.6799 138.767 33.4034 138.859 33.1006L142.927 46.7268C143.033 47.0427 143.131 47.2994 143.224 47.4969C143.329 47.6812 143.513 47.7734 143.777 47.7734C143.895 47.7734 144 47.7537 144.093 47.7142C144.198 47.6747 144.303 47.622 144.409 47.5562L144.507 47.9314H139.768ZM132.816 47.9116L132.915 47.5562C133.02 47.622 133.119 47.6747 133.211 47.7142C133.304 47.7405 133.409 47.7537 133.527 47.7537C133.751 47.7537 133.929 47.6812 134.061 47.5364C134.192 47.3784 134.311 47.1283 134.416 46.786L134.929 46.5885L134.594 47.9116H133.863H132.816ZM134.653 47.7142H134.159L137.714 34.5027H137.911L134.653 47.7142ZM136.174 47.9116H134.1L134.416 46.786L134.89 46.7662C134.785 47.1085 134.798 47.3587 134.929 47.5167C135.061 47.6747 135.239 47.7537 135.463 47.7537C135.607 47.7537 135.733 47.7273 135.838 47.6747C135.943 47.622 136.022 47.5825 136.075 47.5562L136.174 47.9116ZM135.601 43.6461V43.4881L140.795 43.2313V43.6461H135.601Z" fill="white"/>
<path id="Vector_19" d="M123.568 47.9115V34.0879H125.128V47.5758V47.9115H123.568ZM122.028 47.9115L122.126 47.5561C122.232 47.6219 122.331 47.6746 122.423 47.7141C122.515 47.7404 122.62 47.7536 122.739 47.7536C122.857 47.7536 122.969 47.7338 123.074 47.6943C123.18 47.6548 123.272 47.5824 123.351 47.4771C123.417 47.3981 123.469 47.2993 123.509 47.1809C123.548 47.0624 123.568 46.9176 123.568 46.7464C123.568 46.5621 123.64 46.4831 123.785 46.5094C123.943 46.5358 124.128 46.5818 124.338 46.6477C124.562 46.5818 124.746 46.5358 124.891 46.5094C125.049 46.4831 125.128 46.5621 125.128 46.7464C125.128 47.115 125.207 47.3783 125.365 47.5363C125.536 47.6811 125.734 47.7536 125.958 47.7536C126.076 47.7536 126.181 47.7404 126.274 47.7141C126.366 47.6746 126.464 47.6219 126.57 47.5561L126.669 47.9115H122.028ZM118.572 34.5026V34.0879H130.401V34.5026H126.629H118.572ZM119.618 34.0879L121.317 34.5026C121.067 34.5026 120.784 34.5289 120.468 34.5816C120.152 34.6211 119.862 34.7198 119.599 34.8778C119.349 35.0358 119.151 35.2728 119.006 35.5887C118.875 35.8915 118.855 36.3128 118.947 36.8526C118.96 36.9448 118.987 37.0764 119.026 37.2476C119.066 37.4056 119.112 37.5701 119.164 37.7413C119.23 37.8993 119.296 38.0573 119.362 38.2152C119.428 38.3601 119.5 38.472 119.579 38.551L119.145 38.7484L118.078 34.0879H119.618ZM129.098 34.0879H130.638L129.572 38.7484L129.137 38.551C129.216 38.472 129.288 38.3601 129.354 38.2152C129.42 38.0573 129.479 37.8993 129.532 37.7413C129.598 37.5701 129.65 37.4056 129.69 37.2476C129.729 37.0764 129.756 36.9448 129.769 36.8526C129.874 36.3128 129.855 35.8915 129.71 35.5887C129.565 35.2728 129.361 35.0358 129.098 34.8778C128.847 34.7198 128.564 34.6211 128.248 34.5816C127.932 34.5289 127.649 34.5026 127.399 34.5026L129.098 34.0879Z" fill="white"/>
<path id="Vector_20" d="M105.728 34.1076L105.629 34.4829C105.524 34.417 105.425 34.3644 105.333 34.3249C105.241 34.2854 105.129 34.2656 104.997 34.2656C104.681 34.2656 104.438 34.3709 104.266 34.5816C104.095 34.7791 104.076 35.0687 104.207 35.4505L106.557 42.4808L105.787 44.8901L102.568 35.3123C102.463 34.9963 102.357 34.7462 102.252 34.5618C102.16 34.3644 101.982 34.2656 101.719 34.2656C101.6 34.2656 101.489 34.2854 101.383 34.3249C101.291 34.3644 101.192 34.417 101.087 34.4829L100.988 34.1076H105.728ZM110.586 34.0879L110.487 34.4829C110.382 34.417 110.283 34.3709 110.191 34.3446C110.099 34.3051 109.993 34.2854 109.875 34.2854C109.651 34.2854 109.46 34.3578 109.302 34.5026C109.157 34.6474 109.032 34.891 108.927 35.2333L108.473 35.4505L108.809 34.0879H109.539H110.586ZM108.512 35.2728L109.223 34.3249L105.708 45.1073L105.471 45.0876L108.512 35.2728ZM107.229 34.0879H109.302L108.848 35.4308L108.512 35.2728C108.618 34.9305 108.604 34.6803 108.473 34.5223C108.341 34.3644 108.163 34.2854 107.94 34.2854C107.795 34.2854 107.67 34.3117 107.564 34.3644C107.459 34.417 107.38 34.4565 107.327 34.4829L107.229 34.0879ZM104.997 47.9115V42.5401H106.557V47.5758V47.9115H104.997ZM103.457 47.9115L103.556 47.5561C103.661 47.6219 103.76 47.6746 103.852 47.7141C103.944 47.7404 104.049 47.7536 104.168 47.7536C104.286 47.7536 104.398 47.7338 104.503 47.6943C104.609 47.6548 104.701 47.5824 104.78 47.4771C104.846 47.3981 104.898 47.2993 104.938 47.1809C104.977 47.0624 104.997 46.9176 104.997 46.7464C104.997 46.5621 105.07 46.4831 105.214 46.5094C105.372 46.5358 105.557 46.5818 105.767 46.6477C105.991 46.5818 106.175 46.5358 106.32 46.5094C106.478 46.4831 106.557 46.5621 106.557 46.7464C106.557 47.115 106.636 47.3783 106.794 47.5363C106.965 47.6811 107.163 47.7536 107.387 47.7536C107.505 47.7536 107.61 47.7404 107.703 47.7141C107.795 47.6746 107.894 47.6219 107.999 47.5561L108.098 47.9115H103.457ZM110.586 34.0879L110.487 34.4829C110.382 34.417 110.283 34.3709 110.191 34.3446C110.099 34.3051 109.993 34.2854 109.875 34.2854C109.651 34.2854 109.46 34.3578 109.302 34.5026C109.157 34.6474 109.032 34.891 108.927 35.2333L108.473 35.4505L108.809 34.0879H109.539H110.586ZM108.512 35.2728L109.223 34.3249L105.708 45.1073L105.471 45.0876L108.512 35.2728ZM107.229 34.0879H109.302L108.848 35.4308L108.512 35.2728C108.618 34.9305 108.604 34.6803 108.473 34.5223C108.341 34.3644 108.163 34.2854 107.94 34.2854C107.795 34.2854 107.67 34.3117 107.564 34.3644C107.459 34.417 107.38 34.4565 107.327 34.4829L107.229 34.0879Z" fill="white"/>
<path id="Vector_21" d="M85.7324 34.0684L86.2853 35.4112L91.1434 46.0159C90.9854 46.4109 90.8537 46.7598 90.7484 47.0626C90.6431 47.3259 90.5509 47.5563 90.4719 47.7538C90.3929 47.9513 90.3666 48.0302 90.3929 47.9907L84.6463 35.273C84.5014 34.9702 84.3895 34.72 84.3105 34.5226C84.2315 34.3251 84.0604 34.2263 83.7971 34.2263C83.6786 34.2263 83.5667 34.2461 83.4614 34.2856C83.3692 34.3251 83.2705 34.3777 83.1651 34.4436L83.0664 34.0684H85.7324ZM96.2186 34.0881H96.5148L90.9261 46.4899L90.6497 46.5096L96.2186 34.0881ZM95.7052 47.9118V35.5297L96.3964 34.0881H97.2653V47.576V47.9118H95.7052ZM95.7052 35.2532L97.2653 34.0881V35.2532C97.2653 35.3059 97.1797 35.3454 97.0085 35.3717C96.8506 35.3981 96.6728 35.4112 96.4753 35.4112C96.291 35.4112 96.1133 35.3981 95.9421 35.3717C95.7842 35.3454 95.7052 35.3059 95.7052 35.2532ZM94.1648 47.9118L94.2636 47.5563C94.3689 47.6221 94.4676 47.6748 94.5598 47.7143C94.6519 47.7406 94.7573 47.7538 94.8757 47.7538C94.9942 47.7538 95.1061 47.734 95.2115 47.6945C95.3168 47.655 95.4089 47.5826 95.4879 47.4773C95.5538 47.3983 95.6064 47.2996 95.6459 47.1811C95.6854 47.0626 95.7052 46.9178 95.7052 46.7466C95.7052 46.5623 95.7776 46.4833 95.9224 46.5096C96.0804 46.536 96.2647 46.5821 96.4753 46.6479C96.6992 46.5821 96.8835 46.536 97.0283 46.5096C97.1863 46.4833 97.2653 46.5623 97.2653 46.7466C97.2653 47.1152 97.3443 47.3786 97.5022 47.5365C97.6734 47.6814 97.8709 47.7538 98.0947 47.7538C98.2132 47.7538 98.3185 47.7406 98.4107 47.7143C98.5028 47.6748 98.6016 47.6221 98.7069 47.5563L98.8056 47.9118H94.1648ZM98.7069 34.4436C98.6016 34.3777 98.5028 34.3317 98.4107 34.3053C98.3185 34.2658 98.2132 34.2461 98.0947 34.2461C97.8314 34.2461 97.6273 34.3382 97.4825 34.5226C97.3377 34.6937 97.2653 34.9373 97.2653 35.2532C97.2653 35.3059 97.1797 35.3454 97.0085 35.3717C96.8506 35.3981 96.6728 35.4112 96.4753 35.4112C96.291 35.4112 96.1133 35.3981 95.9421 35.3717C95.7842 35.3454 95.7052 35.3059 95.7052 35.2532L96.3174 34.0881H98.8056L98.7069 34.4436ZM84.6068 34.0684H85.0215V47.9315H84.6068V34.0684ZM83.0664 47.9315L83.1651 47.576C83.2705 47.6419 83.3692 47.6945 83.4614 47.734C83.5535 47.7604 83.6589 47.7735 83.7773 47.7735C83.8958 47.7735 84.0012 47.7538 84.0933 47.7143C84.1986 47.6748 84.2974 47.6024 84.3895 47.497C84.4554 47.4181 84.508 47.3193 84.5475 47.2008C84.587 47.0823 84.6068 46.9375 84.6068 46.7664C84.6068 46.6742 84.6265 46.6215 84.666 46.6084C84.7055 46.5952 84.7516 46.6018 84.8042 46.6281C84.8569 46.6545 84.9227 46.694 85.0017 46.7466V47.9315H83.0664ZM86.5618 47.9315H84.6265V46.7466C84.7055 46.694 84.7713 46.6545 84.824 46.6281C84.8766 46.6018 84.9227 46.5952 84.9622 46.6084C85.0017 46.6215 85.0215 46.6742 85.0215 46.7664C85.0215 46.9375 85.0412 47.0823 85.0807 47.2008C85.1202 47.3193 85.1729 47.4181 85.2387 47.497C85.3309 47.6024 85.423 47.6748 85.5152 47.7143C85.6205 47.7538 85.7324 47.7735 85.8509 47.7735C85.9694 47.7735 86.0747 47.7604 86.1669 47.734C86.259 47.6945 86.3578 47.6419 86.4631 47.576L86.5618 47.9315Z" fill="white"/>
<path id="Vector_22" d="M67.8066 34.0684L68.3596 35.4112L73.2176 46.0159C73.0596 46.4109 72.9279 46.7598 72.8226 47.0626C72.7173 47.3259 72.6251 47.5563 72.5461 47.7538C72.4672 47.9513 72.4408 48.0302 72.4672 47.9907L66.7205 35.273C66.5757 34.9702 66.4637 34.72 66.3848 34.5226C66.3058 34.3251 66.1346 34.2263 65.8713 34.2263C65.7528 34.2263 65.6409 34.2461 65.5356 34.2856C65.4434 34.3251 65.3447 34.3777 65.2394 34.4436L65.1406 34.0684H67.8066ZM78.2928 34.0881H78.5891L73.0004 46.4899L72.7239 46.5096L78.2928 34.0881ZM77.7794 47.9118V35.5297L78.4706 34.0881H79.3395V47.576V47.9118H77.7794ZM77.7794 35.2532L79.3395 34.0881V35.2532C79.3395 35.3059 79.2539 35.3454 79.0828 35.3717C78.9248 35.3981 78.747 35.4112 78.5496 35.4112C78.3652 35.4112 78.1875 35.3981 78.0164 35.3717C77.8584 35.3454 77.7794 35.3059 77.7794 35.2532ZM76.239 47.9118L76.3378 47.5563C76.4431 47.6221 76.5418 47.6748 76.634 47.7143C76.7262 47.7406 76.8315 47.7538 76.95 47.7538C77.0685 47.7538 77.1804 47.734 77.2857 47.6945C77.391 47.655 77.4832 47.5826 77.5622 47.4773C77.628 47.3983 77.6806 47.2996 77.7201 47.1811C77.7596 47.0626 77.7794 46.9178 77.7794 46.7466C77.7794 46.5623 77.8518 46.4833 77.9966 46.5096C78.1546 46.536 78.3389 46.5821 78.5496 46.6479C78.7734 46.5821 78.9577 46.536 79.1025 46.5096C79.2605 46.4833 79.3395 46.5623 79.3395 46.7466C79.3395 47.1152 79.4185 47.3786 79.5765 47.5365C79.7476 47.6814 79.9451 47.7538 80.1689 47.7538C80.2874 47.7538 80.3927 47.7406 80.4849 47.7143C80.577 47.6748 80.6758 47.6221 80.7811 47.5563L80.8798 47.9118H76.239ZM80.7811 34.4436C80.6758 34.3777 80.577 34.3317 80.4849 34.3053C80.3927 34.2658 80.2874 34.2461 80.1689 34.2461C79.9056 34.2461 79.7015 34.3382 79.5567 34.5226C79.4119 34.6937 79.3395 34.9373 79.3395 35.2532C79.3395 35.3059 79.2539 35.3454 79.0828 35.3717C78.9248 35.3981 78.747 35.4112 78.5496 35.4112C78.3652 35.4112 78.1875 35.3981 78.0164 35.3717C77.8584 35.3454 77.7794 35.3059 77.7794 35.2532L78.3916 34.0881H80.8798L80.7811 34.4436ZM66.681 34.0684H67.0957V47.9315H66.681V34.0684ZM65.1406 47.9315L65.2394 47.576C65.3447 47.6419 65.4434 47.6945 65.5356 47.734C65.6277 47.7604 65.7331 47.7735 65.8516 47.7735C65.97 47.7735 66.0754 47.7538 66.1675 47.7143C66.2728 47.6748 66.3716 47.6024 66.4637 47.497C66.5296 47.4181 66.5822 47.3193 66.6217 47.2008C66.6612 47.0823 66.681 46.9375 66.681 46.7664C66.681 46.6742 66.7007 46.6215 66.7402 46.6084C66.7797 46.5952 66.8258 46.6018 66.8785 46.6281C66.9311 46.6545 66.9969 46.694 67.0759 46.7466V47.9315H65.1406ZM68.636 47.9315H66.7007V46.7466C66.7797 46.694 66.8455 46.6545 66.8982 46.6281C66.9509 46.6018 66.9969 46.5952 67.0364 46.6084C67.0759 46.6215 67.0957 46.6742 67.0957 46.7664C67.0957 46.9375 67.1154 47.0823 67.1549 47.2008C67.1944 47.3193 67.2471 47.4181 67.3129 47.497C67.4051 47.6024 67.4972 47.6748 67.5894 47.7143C67.6947 47.7538 67.8066 47.7735 67.9251 47.7735C68.0436 47.7735 68.1489 47.7604 68.2411 47.734C68.3332 47.6945 68.432 47.6419 68.5373 47.576L68.636 47.9315Z" fill="white"/>
<path id="Vector_23" d="M58.2248 47.9314L58.3235 47.5562C58.4288 47.622 58.5276 47.6747 58.6197 47.7142C58.7119 47.7537 58.8238 47.7734 58.9554 47.7734C59.2714 47.7734 59.5084 47.6747 59.6664 47.4772C59.8244 47.2665 59.8507 46.9703 59.7454 46.5885L56.171 34.5027C56.4343 34.3579 56.6647 34.167 56.8621 33.93C57.0728 33.6799 57.2242 33.4034 57.3163 33.1006L61.3844 46.7268C61.4898 47.0427 61.5885 47.2994 61.6807 47.4969C61.786 47.6812 61.9703 47.7734 62.2336 47.7734C62.3521 47.7734 62.4574 47.7537 62.5496 47.7142C62.6549 47.6747 62.7602 47.622 62.8656 47.5562L62.9643 47.9314H58.2248ZM51.2734 47.9116L51.3722 47.5562C51.4775 47.622 51.5762 47.6747 51.6684 47.7142C51.7606 47.7405 51.8659 47.7537 51.9844 47.7537C52.2082 47.7537 52.3859 47.6812 52.5176 47.5364C52.6492 47.3784 52.7677 47.1283 52.873 46.786L53.3865 46.5885L53.0508 47.9116H52.3201H51.2734ZM53.11 47.7142H52.6163L56.171 34.5027H56.3684L53.11 47.7142ZM54.6306 47.9116H52.5571L52.873 46.786L53.347 46.7662C53.2417 47.1085 53.2548 47.3587 53.3865 47.5167C53.5181 47.6747 53.6959 47.7537 53.9197 47.7537C54.0645 47.7537 54.1896 47.7273 54.2949 47.6747C54.4002 47.622 54.4792 47.5825 54.5319 47.5562L54.6306 47.9116ZM54.0579 43.6461V43.4881L59.2517 43.2313V43.6461H54.0579Z" fill="white"/>
<path id="Vector_24" d="M42.0251 47.9115V34.0879H43.5852V47.5758V47.9115H42.0251ZM40.4848 47.9115L40.5835 47.5561C40.6888 47.6219 40.7876 47.6746 40.8797 47.7141C40.9719 47.7404 41.0772 47.7536 41.1957 47.7536C41.3142 47.7536 41.4261 47.7338 41.5314 47.6943C41.6367 47.6548 41.7289 47.5824 41.8079 47.4771C41.8737 47.3981 41.9264 47.2993 41.9659 47.1809C42.0054 47.0624 42.0251 46.9176 42.0251 46.7464C42.0251 46.5621 42.0975 46.4831 42.2423 46.5094C42.4003 46.5358 42.5846 46.5818 42.7953 46.6477C43.0191 46.5818 43.2034 46.5358 43.3482 46.5094C43.5062 46.4831 43.5852 46.5621 43.5852 46.7464C43.5852 47.115 43.6642 47.3783 43.8222 47.5363C43.9933 47.6811 44.1908 47.7536 44.4146 47.7536C44.5331 47.7536 44.6384 47.7404 44.7306 47.7141C44.8228 47.6746 44.9215 47.6219 45.0268 47.5561L45.1256 47.9115H40.4848ZM37.0289 34.5026V34.0879H48.8579V34.5026H45.0861H37.0289ZM38.0755 34.0879L39.7738 34.5026C39.5237 34.5026 39.2406 34.5289 38.9247 34.5816C38.6087 34.6211 38.3191 34.7198 38.0558 34.8778C37.8056 35.0358 37.6081 35.2728 37.4633 35.5887C37.3317 35.8915 37.3119 36.3128 37.4041 36.8526C37.4172 36.9448 37.4436 37.0764 37.4831 37.2476C37.5226 37.4056 37.5686 37.5701 37.6213 37.7413C37.6871 37.8993 37.753 38.0573 37.8188 38.2152C37.8846 38.3601 37.957 38.472 38.036 38.551L37.6016 38.7484L36.5352 34.0879H38.0755ZM47.5546 34.0879H49.0949L48.0285 38.7484L47.5941 38.551C47.6731 38.472 47.7455 38.3601 47.8113 38.2152C47.8771 38.0573 47.9364 37.8993 47.989 37.7413C48.0549 37.5701 48.1075 37.4056 48.147 37.2476C48.1865 37.0764 48.2128 36.9448 48.226 36.8526C48.3313 36.3128 48.3116 35.8915 48.1668 35.5887C48.0219 35.2728 47.8179 35.0358 47.5546 34.8778C47.3044 34.7198 47.0214 34.6211 46.7054 34.5816C46.3894 34.5289 46.1064 34.5026 45.8562 34.5026L47.5546 34.0879Z" fill="white"/>
</g>
</g>
</svg>
