<svg width="41" height="41" viewBox="0 0 41 41" fill="none" xmlns="http://www.w3.org/2000/svg">
<path id="o7qea" d="M20.4786 31.9241C21.0618 32.0982 21.5826 32.4936 22.1292 32.7942C22.1658 32.814 22.1768 32.8693 22.2135 32.9405C21.7183 33.075 21.2598 32.9445 20.8013 32.9049C20.3465 32.8654 19.888 32.8772 19.4368 32.9049C18.9783 32.9326 18.5198 33.0157 18.065 33.075L18.0283 32.8772C18.8096 32.4422 19.4809 31.6196 20.4786 31.9241ZM17.6028 29.7016C17.5882 29.9507 17.5001 30.1643 17.236 30.1761C17.0049 30.192 16.8069 29.8756 16.8032 29.5473C16.7995 29.2665 16.9096 29.1163 17.06 29.1202C17.4268 29.1242 17.6212 29.3891 17.6028 29.7016ZM22.5987 29.6818C22.5987 29.3456 22.7821 29.1202 23.0388 29.1202C23.3176 29.1242 23.4056 29.3061 23.3983 29.5711C23.391 29.8835 23.1599 30.192 22.9361 30.1801C22.7454 30.1722 22.5987 29.9547 22.5987 29.6818ZM20.2145 34.032C20.3685 34.0835 20.5152 34.1428 20.6656 34.1981C20.6143 34.3287 20.5923 34.5066 20.5042 34.5738C20.3648 34.6846 20.1741 34.7241 20.0054 34.7795C19.9724 34.7914 19.91 34.7558 19.888 34.7202C19.778 34.5541 19.6716 34.3801 19.5652 34.21L20.0127 33.945L20.0494 34.0241C20.1044 34.0241 20.1668 34.0162 20.2181 34.032H20.2145ZM16.2383 28.44C16.2053 28.5784 16.0586 28.6852 15.8899 28.8987C15.6881 28.6456 15.5304 28.4914 15.4424 28.2976C15.424 28.2581 15.6514 28.0089 15.7872 27.9773C16.0109 27.9259 16.2897 28.2225 16.2383 28.44ZM23.9705 28.4083C23.9412 28.1671 24.2089 27.91 24.4364 27.9733C24.5647 28.0129 24.7114 28.1711 24.7555 28.3095C24.8105 28.4954 24.4987 28.7445 24.1906 28.7959C24.1136 28.6694 23.9852 28.5468 23.9705 28.4083ZM25.5294 27.8863L25.8889 27.3841C26.0356 27.5976 26.2043 27.7558 26.1787 27.827C26.1236 27.9615 25.9696 28.0959 25.8375 28.1276C25.7532 28.1473 25.6358 27.9733 25.5294 27.8903V27.8863ZM14.2796 27.5502C14.419 27.5502 14.5584 27.6965 14.6978 27.7835V27.9417C14.5877 28.0089 14.463 28.1513 14.3676 28.1315C14.2319 28.0999 14.1109 27.9536 13.9898 27.8547C14.0852 27.7479 14.1842 27.5462 14.2833 27.5502H14.2796ZM20.5152 10.9005C20.5226 11.1655 20.4529 11.3909 20.1631 11.4107C19.932 11.4265 19.7229 11.1339 19.7229 10.7938C19.6973 10.5446 19.8036 10.3785 20.0787 10.3706C20.3282 10.3627 20.5116 10.5762 20.5189 10.8966L20.5152 10.9005ZM24.8435 12.0356L24.5244 12.3994L24.1796 11.9841C24.2823 11.8853 24.4143 11.6875 24.484 11.7113C24.6234 11.7548 24.7261 11.9209 24.8472 12.0356H24.8435ZM16.0513 11.996L15.6404 12.4152C15.5157 12.2175 15.369 12.0356 15.391 12.0079C15.4937 11.8813 15.6331 11.7508 15.7762 11.7113C15.8459 11.6955 15.9596 11.8932 16.0513 11.9921V11.996ZM14.2136 25.5214C14.1402 25.3394 14.0815 25.1575 14.0155 24.9756C14.1732 25.027 14.353 25.0428 14.4924 25.1338C15.2626 25.6321 16.0256 26.1383 16.9536 26.2253C17.0306 26.2332 17.1223 26.2569 17.1737 26.3084C17.247 26.3875 17.3277 26.4942 17.3314 26.5931C17.3314 26.6485 17.1993 26.7394 17.1113 26.7671C17.0086 26.7988 16.8912 26.7869 16.7665 26.7908C15.8428 26.7334 14.9691 26.3192 14.3053 25.6242C14.2686 25.5925 14.2319 25.5609 14.2136 25.5174V25.5214ZM26.329 24.9558L26.4391 25.0507C26.3547 25.2247 26.2997 25.4304 26.1823 25.5649C25.804 25.9837 25.3421 26.304 24.8317 26.5014C24.3213 26.6987 23.7759 26.768 23.2369 26.7038C23.1599 26.6959 23.0242 26.5812 23.0278 26.5259C23.0388 26.427 23.1159 26.3202 23.1966 26.249C23.2589 26.1937 23.3616 26.1779 23.4533 26.1699C24.3557 26.1106 25.1259 25.6558 25.8889 25.1812C26.0319 25.0982 26.1823 25.031 26.329 24.9558ZM21.5936 17.1254C21.6156 17.2915 21.5936 17.4615 21.5936 17.6316C21.6046 18.4977 21.4212 19.3163 21.0691 20.0835C20.6143 21.0722 19.767 21.1474 19.1617 20.2496C19.07 20.1152 18.9637 19.9728 18.927 19.8146C18.7289 18.9327 18.4611 18.0547 18.3768 17.1649C18.2667 15.8994 19.6019 14.9661 20.6876 15.4881C21.3369 15.8045 21.5056 16.4412 21.5936 17.1214V17.1254ZM21.0911 16.983C20.9297 16.2118 20.5189 15.8875 19.8807 15.9943C19.1287 16.1208 18.7362 16.5717 18.8316 17.3468C18.916 18.0508 19.103 18.7389 19.2644 19.431C19.3011 19.5773 19.3928 19.7118 19.4772 19.8383C19.8917 20.4395 20.3942 20.3999 20.7023 19.7316C20.9958 19.0988 21.1498 18.4186 21.1791 17.7028C21.1498 17.4615 21.1425 17.2163 21.0911 16.983ZM20.3208 16.6824C20.4235 17.1372 20.4676 17.6078 20.5409 18.0864C20.4859 18.5016 20.4602 18.9248 20.3648 19.3321C20.3282 19.4864 20.1191 19.5931 19.9907 19.7237C19.8953 19.5655 19.7413 19.4152 19.7229 19.2491C19.6496 18.5649 19.6202 17.8768 19.5872 17.1926C19.5762 17.0225 19.5799 16.8367 19.6459 16.6943C19.7119 16.5559 19.866 16.3779 19.9834 16.374C20.1008 16.374 20.2915 16.5519 20.3208 16.6824ZM40.2639 21.4084C40.2639 21.4084 40.1061 22.7926 39.8347 23.8683L39.5706 24.8411C38.2721 29.5671 35.6091 33.1857 31.8458 35.9106C31.5156 36.1479 31.2295 36.4642 30.9214 36.7411C30.4996 37.1247 30.1071 37.5518 29.6523 37.8721C29.2923 38.1448 28.8841 38.3347 28.4531 38.43C28.0221 38.5252 27.5775 38.5238 27.147 38.4258C27.0458 38.3972 26.9401 38.3923 26.837 38.4114C26.7338 38.4305 26.6357 38.4732 26.5491 38.5365C25.3796 39.3138 24.0818 39.8402 22.727 40.0868C22.1108 40.1936 21.4836 40.2608 20.8637 40.3478H18.8353C18.7252 40.3241 18.6189 40.2846 18.5088 40.2766C17.0027 40.1723 15.5276 39.7673 14.1586 39.0823C13.535 38.7778 12.9334 38.4891 12.1998 38.4495C10.9637 38.3942 10.0394 37.5913 9.23974 36.6224C9.1077 36.4642 8.96098 36.2981 8.79592 36.1874C7.2642 35.1601 5.8718 33.909 4.65839 32.4699C2.35487 29.7292 0.843645 26.5575 0.264098 22.8914C0.154057 22.1993 0.0880325 21.4993 0 20.8073V18.7626C0.0220081 18.6598 0.0550252 18.553 0.0623613 18.4463C0.347556 14.2027 1.98866 10.197 4.70607 7.11186C8.54648 2.65087 13.3699 0.396648 18.9563 0.0486276C23.0362 -0.241075 27.1051 0.768349 30.6573 2.95144C34.5124 5.30848 37.3808 8.63841 39.0351 13.1152C39.3542 13.9774 39.5706 14.887 39.8347 15.7728V15.7926L39.9374 16.1208C40.1208 17.2321 40.2052 17.5643 40.3005 18.5293C40.4252 19.8146 40.2639 21.4084 40.2639 21.4084ZM9.80828 6.28927C5.81014 9.00225 3.04079 12.5774 2.09811 17.5723C1.3645 21.4558 2.05042 25.0942 3.95045 28.4795C3.9908 28.3569 3.98714 28.2422 3.99081 28.1236C4.02015 27.4908 4.26957 27.2061 4.85646 27.1507L5.93119 27.0321C5.8615 26.953 5.83215 26.9055 5.79547 26.8739C5.34797 26.4745 5.20492 25.9406 5.21593 25.3434C5.22693 24.8451 5.425 24.5801 5.87616 24.4694C6.08157 24.418 6.29799 24.4022 6.50706 24.3824C6.70514 24.3626 6.90322 24.3547 7.16731 24.3349C6.8482 23.8801 6.72348 23.4332 6.88487 22.931L6.68313 22.8914C6.05957 22.7609 5.41766 22.6779 4.81244 22.4762C4.23289 22.2824 4.15954 21.6378 4.63638 21.2304C4.84915 21.0525 5.08689 20.9123 5.34064 20.8152C6.03756 20.5502 6.73448 20.3129 7.51944 20.0361C7.3177 19.8463 7.15264 19.6366 6.94723 19.5061C6.21363 19.0553 5.45802 18.6519 4.73542 18.1852C4.38247 17.9492 4.06047 17.6633 3.77806 17.335C3.42959 16.9395 3.53597 16.37 3.98714 16.109C4.16754 16.0147 4.36068 15.952 4.55935 15.9231C4.83445 15.8717 5.11322 15.8598 5.36632 15.8322C5.28195 15.1796 5.18292 14.5468 5.1279 13.9101C5.06921 13.2339 5.18658 12.6327 5.88351 12.4271C5.83582 11.9802 5.7588 11.5729 5.7588 11.1655C5.75146 10.4616 6.05957 10.0977 6.71247 10.0661C7.04993 10.0503 7.4094 10.1175 7.73953 10.2164C8.94997 10.5842 10.032 11.2604 11.1141 11.9248C11.2021 11.9802 11.2975 12.0277 11.4589 12.1186C11.3709 11.8971 11.3195 11.7785 11.2755 11.6559C10.8353 10.513 10.3878 9.37795 9.98068 8.22315C9.77527 7.64576 9.63589 7.03672 9.80828 6.28927ZM14.5767 4.12601C13.134 4.54894 11.7427 5.15426 10.4319 5.92938C12.5116 6.82712 13.5313 8.87569 14.9178 10.6435L14.6868 9.61524C14.3016 7.80395 13.7697 6.00057 14.5767 4.12601ZM26.23 7.47966C25.9733 8.48813 25.6395 9.47682 25.3167 10.5446C26.6335 8.79264 27.6862 6.85876 29.6193 5.8147C28.5268 5.18842 27.3791 4.68102 26.1933 4.30001C26.6042 5.40735 26.4904 6.45142 26.23 7.47966ZM31.589 28.2541C31.589 28.3213 31.4936 28.4004 31.4276 28.4479C31.3616 28.4874 31.2809 28.5033 31.2075 28.527C30.4996 28.7445 29.876 28.4558 29.2671 28.1315C28.827 27.8982 28.4052 27.6372 27.9723 27.388C28.1969 27.8496 28.5531 28.2211 28.9884 28.4479C29.9641 29.0174 30.9801 29.4722 32.1025 29.5275C32.7811 29.5592 33.4633 29.5315 34.1456 29.484C34.4097 29.4643 34.6701 29.314 34.7141 28.9581C34.7618 28.5705 34.6004 28.2383 34.263 28.0682C34.09 27.9811 33.9076 27.9173 33.7201 27.8784C33.1149 27.7558 32.5023 27.6649 31.8971 27.5343C30.6206 27.2654 29.4359 26.7038 28.2548 26.1502C28.0567 26.0553 27.8953 25.9999 27.8036 26.3084L28.053 26.4824C28.855 27.0199 29.7265 27.4264 30.639 27.6886C30.9177 27.7637 31.1855 27.91 31.4459 28.0445C31.5156 28.0761 31.5927 28.1829 31.5927 28.2541H31.589ZM27.4038 24.2796C27.4551 24.2993 27.5982 24.24 27.6129 24.1886C27.6495 24.0423 27.6789 23.8722 27.6495 23.7298C27.5118 23.0471 27.1577 22.4373 26.6482 22.0056C26.448 21.8169 26.2043 21.6901 25.9428 21.6386C25.6813 21.5871 25.4117 21.6128 25.1626 21.7129C24.1062 22.1044 23.1892 22.7491 22.3016 23.4649C21.7308 23.9148 21.3432 24.5849 21.2195 25.3355C21.1571 25.7033 21.1315 26.0829 21.1315 26.4547C21.1205 27.7598 21.1315 29.0569 21.1241 30.3581C21.1241 30.8603 20.9701 31.1411 20.6436 31.2123C20.4013 31.2669 20.1529 31.2829 19.9063 31.2597C19.4295 31.2083 19.1654 30.9513 19.0957 30.4372C19.048 30.1208 19.0774 29.7846 19.081 29.4603C19.092 28.3332 19.1361 27.2021 19.103 26.075C19.0847 25.3553 18.927 24.6355 18.4428 24.0976C17.6299 23.1817 16.6442 22.4643 15.5524 21.9937C14.3383 21.4796 13.3919 21.9146 12.8271 23.192C12.717 23.4372 12.6437 23.714 12.607 23.983C12.5813 24.1807 12.6803 24.3745 12.9078 24.2756C14.0815 23.7773 15.2333 23.9592 16.3484 24.4733C17.3131 24.9084 18.0283 25.636 18.3071 26.7711C18.4722 27.4394 18.2557 27.7677 17.6028 27.7993C16.3007 27.8468 15.1159 27.475 14.0632 26.6287C13.5151 26.2241 13.0506 25.7016 12.6987 25.0942C12.7537 25.7072 12.8454 26.2965 12.9444 26.8897C13.1462 28.1355 13.1498 28.1355 14.2906 28.3293C15.7028 28.5744 16.6345 29.6106 16.7555 31.1648C16.8215 31.9716 16.7739 32.7902 16.8142 33.601C16.8289 33.9055 16.8692 34.2852 17.0416 34.4789C17.4785 34.984 17.9684 35.4326 18.5015 35.8156C18.9717 36.1711 19.5315 36.3631 20.1058 36.3659C20.6801 36.3688 21.2415 36.1823 21.7147 35.8315C22.1984 35.4784 22.6503 35.0772 23.0645 34.6332C23.2222 34.475 23.3433 34.2061 23.358 33.9767C23.4093 33.0948 23.413 32.2049 23.4313 31.3191C23.455 30.5684 23.728 29.852 24.2007 29.3003C24.6733 28.7486 25.3141 28.3983 26.0063 28.3134C27.3744 28.092 27.0663 28.0761 27.2827 26.9569C27.3928 26.3677 27.4808 25.7705 27.5688 25.2208C27.1434 25.6716 26.7545 26.1462 26.3107 26.5377C25.3048 27.4213 24.03 27.8696 22.7344 27.7954C22.0411 27.7716 21.8321 27.4434 22.0044 26.7315C22.1153 26.2775 22.3165 25.8549 22.5939 25.4929C22.8713 25.131 23.2184 24.8384 23.611 24.6355C24.8215 23.9632 26.0796 23.6863 27.4038 24.2796ZM26.5418 24.5248C26.2777 24.4694 26.0099 24.4457 25.7422 24.414C24.9572 24.4338 24.2273 24.6434 23.5597 25.0863C23.2612 25.2736 23.0012 25.5245 22.7956 25.8236C22.59 26.1228 22.4431 26.464 22.3639 26.8264C22.2869 27.1784 22.3823 27.3208 22.7124 27.3801C22.8004 27.3959 22.8921 27.4038 22.9801 27.4038C24.4253 27.4078 25.6211 26.7948 26.5895 25.6519C26.7069 25.5134 26.8096 25.3394 26.8719 25.1654C26.993 24.8016 26.8866 24.5999 26.5418 24.5248ZM24.6491 31.2795C24.6491 30.9236 25.0086 30.5162 25.3754 30.4213C25.6908 30.3422 25.8669 30.4609 26.1236 30.9631C26.2557 30.7258 26.3657 30.5439 26.4611 30.3541C26.7399 29.8162 26.5088 29.3535 25.9329 29.3496C25.7004 29.3325 25.4674 29.3732 25.2519 29.4685C25.0363 29.5638 24.8439 29.7112 24.6894 29.8993C24.0732 30.71 23.9265 31.6631 24.1136 32.6795C24.1686 32.9563 24.473 33.1343 24.6198 32.9722C24.9242 32.64 25.1993 32.2722 25.4524 31.8886C25.5148 31.7936 25.4524 31.5999 25.4451 31.4535C25.335 31.4931 25.2213 31.5445 25.1076 31.5761C24.9939 31.6078 24.8472 31.671 24.7701 31.6236C24.6931 31.5722 24.6491 31.3982 24.6491 31.2795ZM15.4827 31.6117L15.0059 31.4931C14.9362 31.4733 14.8481 31.41 14.8041 31.4338C14.7528 31.4654 14.7051 31.5761 14.7124 31.6434C14.7381 31.7897 14.7711 31.9597 14.8518 32.0784C15.0242 32.3275 15.2186 32.5648 15.4277 32.7823C15.5267 32.8852 15.7211 33.0196 15.8055 32.9801C15.9412 32.9089 16.0879 32.723 16.1136 32.5648C16.1933 32.1297 16.1919 31.6818 16.1094 31.2472C16.0269 30.8126 15.865 30.4002 15.6331 30.0338C15.3066 29.5236 14.5034 29.2151 14.0192 29.401C13.645 29.5394 13.524 29.8439 13.7074 30.2157C13.8174 30.4371 13.9421 30.6507 14.0302 30.8168C14.2759 30.6547 14.463 30.4688 14.6758 30.4095C14.9509 30.3383 15.4057 30.6942 15.5047 31.0422C15.5524 31.2123 15.4937 31.4219 15.4827 31.6117ZM15.8789 34.0479C15.8312 34.4829 15.7762 34.8151 15.7688 35.1473C15.7615 35.2818 15.8128 35.4795 15.9009 35.5428C16.3557 35.8789 16.8032 36.2349 17.3021 36.4721C18.6262 37.1049 20.0384 37.0851 21.4469 36.9586C22.4336 36.8716 23.3653 36.5987 24.1906 35.9699C24.462 35.7603 24.6161 35.5507 24.5207 35.1592C24.44 34.8309 24.429 34.4868 24.3777 34.0518C24.1502 34.2416 23.9852 34.3642 23.8421 34.5066C23.3213 35.0207 22.8371 35.5902 22.2832 36.0608C20.8784 37.2591 19.3195 37.2473 17.9293 36.0371C17.3791 35.5625 16.8912 34.997 16.3704 34.4789C16.2383 34.3445 16.0879 34.2298 15.8789 34.0479ZM15.6001 36.9586C15.9155 37.1445 16.209 37.3778 16.5391 37.5241C18.5932 38.4535 20.7023 38.3981 22.8261 37.8959C23.6286 37.7215 24.3637 37.2901 24.9352 36.658L24.7518 36.2507C21.6633 37.8563 18.5969 37.8247 15.5084 36.3298C15.259 36.6026 15.325 36.7964 15.6001 36.9586ZM13.4066 25.2366C13.4653 25.379 13.5423 25.5293 13.6487 25.6281C14.1035 26.0355 14.5437 26.4784 15.0499 26.8027C15.8034 27.2757 16.677 27.4779 17.5441 27.3801C17.9183 27.3485 18.0503 27.1745 17.9109 26.8067C17.768 26.3641 17.5545 25.9519 17.28 25.5886C16.5538 24.7383 15.5781 24.4694 14.4337 24.4259C14.2686 24.4457 13.9972 24.4654 13.7367 24.5208C13.3479 24.6039 13.2415 24.8451 13.4066 25.2366ZM27.8109 22.3892C27.7853 21.3293 27.4918 20.214 26.7986 19.2768C25.8265 17.9638 24.6088 16.9434 23.2846 16.0734C22.9068 15.8242 22.7857 15.9152 22.8077 16.4016C22.8664 18.0033 22.3969 19.4587 21.7477 20.8626C21.607 21.1617 21.4033 21.4212 21.153 21.6203C20.9027 21.8194 20.6127 21.9527 20.3062 22.0095C19.5872 22.1835 18.9123 21.8711 18.6225 21.2106C18.2292 20.3131 17.844 19.4113 17.4671 18.5056C17.1624 17.8479 17.0547 17.1044 17.159 16.3779C17.1773 16.279 17.1627 16.1762 17.1627 16.0615C17.0746 16.0615 17.027 16.0576 16.9903 16.0734C16.9044 16.1026 16.8219 16.1425 16.7445 16.192C15.5707 17.0344 14.452 17.9559 13.546 19.1304C12.7317 20.1864 12.3979 21.4361 12.4309 22.9033C12.541 22.7451 12.5996 22.666 12.651 22.579C13.3846 21.44 14.8702 20.9575 16.0072 21.5903C16.9132 22.0886 17.7605 22.7135 18.6225 23.3067C19.0884 23.627 19.2864 24.149 19.3561 24.7225C19.4002 25.0586 19.4295 25.3948 19.4368 25.7389C19.4625 27.1824 19.4735 28.6259 19.4955 30.0733C19.5029 30.5677 19.7009 30.7852 20.1264 30.7773C20.5482 30.7773 20.739 30.5597 20.7463 30.0614C20.75 29.6343 20.7353 29.2112 20.7463 28.7841C20.783 27.4632 20.816 26.1383 20.8747 24.8174C20.9114 23.9632 21.2195 23.2355 21.9164 22.7609C22.8125 22.1302 23.7954 21.6564 24.8288 21.357C25.6028 21.1513 26.3511 21.2067 27.026 21.7129C27.3194 21.9304 27.5835 22.1875 27.8109 22.3852V22.3892ZM8.70054 28.2581C8.81059 28.1513 8.90228 27.997 9.03066 27.9417C9.32777 27.7993 9.63956 27.6925 9.95134 27.5976C10.8387 27.3102 11.6826 26.8853 12.4566 26.336C12.3686 26.0434 12.2255 26.0592 12.0274 26.1581C10.4685 26.9174 8.87294 27.5541 7.15631 27.7716C6.77117 27.823 6.38602 27.9338 6.01922 28.088C5.68543 28.2264 5.54971 28.5705 5.59006 28.9462C5.62674 29.3021 5.88351 29.405 6.14761 29.492C6.24297 29.5236 6.34567 29.5473 6.44104 29.5592C8.31173 29.753 10.0357 29.31 11.613 28.2225C11.8807 28.0366 12.0861 27.7558 12.3209 27.5185L12.2475 27.4276C12.1301 27.4948 12.0164 27.5699 11.8991 27.6332C11.4185 27.8903 10.9454 28.1671 10.4502 28.4004C10.01 28.614 9.54052 28.6852 9.07102 28.5191C8.9353 28.4716 8.82159 28.349 8.70054 28.2581ZM8.91696 20.3248C9.07101 20.4553 9.26909 20.5344 9.45983 20.5937C9.6579 20.657 9.76794 20.566 9.78995 20.3169C9.80829 20.0756 9.70558 19.9451 9.54418 19.8107C8.82946 19.2466 8.23488 18.5242 7.80026 17.6921C7.36565 16.8599 7.10106 15.9372 7.02426 14.9858C6.94356 14.096 7.23334 13.7322 8.05864 13.6926C9.26909 13.6372 10.4832 13.6531 11.6973 13.6333C12.0458 13.6293 12.3942 13.6333 12.739 13.5937C12.8748 13.5779 12.9995 13.4711 13.1315 13.4039L13.1278 13.2813C12.9958 13.2062 12.8711 13.1034 12.728 13.0678C12.4236 13.0005 12.1081 12.9373 11.7964 12.9254C10.0438 12.8709 8.29072 13.014 6.56575 13.3525C5.87983 13.483 5.74779 13.6452 5.73679 14.4045C5.73679 14.5389 5.73311 14.6734 5.75145 14.8039C6.10725 17.1135 7.237 18.905 8.91696 20.3248ZM6.23196 17.8333C6.11459 17.5841 5.99721 17.335 5.88717 17.0819C5.54604 16.2909 5.46535 16.2514 4.67673 16.5401C4.19988 16.7141 4.13752 16.9751 4.51166 17.3429C5.09854 17.9242 5.81014 18.2762 6.62444 18.64C6.45938 18.3039 6.342 18.0706 6.23196 17.8333ZM6.40436 12.1423C6.4117 12.2017 6.48506 12.2926 6.51807 12.2887C6.92889 12.257 7.33971 12.2096 7.75053 12.1582C7.92293 12.1384 8.09532 12.0593 8.26038 12.0751C8.93529 12.1384 9.61022 12.2293 10.2851 12.3124L10.3108 12.17C9.4048 11.5966 8.52815 10.948 7.4791 10.6949C7.19672 10.628 6.90464 10.624 6.62077 10.683C6.48506 10.7107 6.29799 10.952 6.29065 11.1022C6.27598 11.4463 6.35301 11.7983 6.40436 12.1423ZM28.3024 11.996C27.8366 12.0435 27.3781 12.1858 26.9306 12.3282C26.8132 12.3678 26.6555 12.5892 26.6665 12.7079C26.7105 13.0757 27.0627 13.3011 27.4111 13.2378C27.5578 13.2101 27.6972 13.1745 27.8329 13.1192C29.0837 12.613 30.4005 12.522 31.7137 12.4469C32.506 12.4073 32.8875 12.7791 32.8508 13.6452C32.7738 15.5395 32.2896 17.2519 30.804 18.4621C30.5473 18.6756 30.3052 18.9169 30.0704 19.1621C29.9421 19.2965 29.887 19.4587 30.0484 19.6366C30.2428 19.8502 30.4226 20.0796 30.672 20.3801C30.8627 20.2022 31.1305 20.0084 31.3359 19.7553C32.4756 18.3397 33.3333 16.6867 33.8558 14.8988C34.0686 14.1791 34.1786 13.4356 34.0356 12.6723C33.9402 12.1779 33.8045 12.0237 33.39 11.9841C31.6917 11.826 29.9971 11.8101 28.3024 11.996ZM29.821 11.1813C30.9141 11.0943 32.0108 11.0152 33.1039 10.9124C33.1919 10.9045 33.324 10.7938 33.3496 10.6988C33.5257 10.1333 33.1332 9.72202 32.5207 9.81298C31.4753 9.97117 30.5913 10.5367 29.6376 11.1576C29.755 11.1734 29.7843 11.1813 29.821 11.1813ZM34.0943 15.8203C33.8118 16.5163 33.544 17.2163 33.2726 17.9163L33.324 17.9954C33.8118 17.7225 34.307 17.4734 34.7802 17.1768C35.0508 17.0049 35.2998 16.7962 35.5211 16.5559C35.7889 16.2711 35.7412 16.018 35.3854 15.8994C35.0333 15.7886 34.6628 15.7491 34.296 15.6937C34.2336 15.6858 34.1199 15.757 34.0943 15.8203ZM29.9054 17.8412C30.3639 17.8491 30.7233 17.596 31.0241 17.2598C31.7027 16.5005 32.1245 15.5751 32.396 14.5824C32.466 14.2406 32.4735 13.8873 32.418 13.5423C32.3703 13.1034 32.1906 12.9333 31.7907 12.9491C30.9104 12.9847 30.0521 13.1706 29.2525 13.5858C29.1277 13.6491 28.959 13.8587 28.9847 13.9576C29.0324 14.1949 29.1718 14.3689 29.4762 14.2937C29.9641 14.1672 30.4666 14.092 31.0645 13.9774C31.2002 14.0446 31.501 14.096 31.578 14.2621C31.6623 14.4361 31.5486 14.7367 31.49 14.9661C31.4533 15.1005 31.3616 15.2271 31.2735 15.3299C30.8701 15.8045 30.4592 16.2632 30.0558 16.7378C29.8944 16.9355 29.7183 17.1333 29.6119 17.3626C29.4652 17.679 29.5752 17.8372 29.9054 17.8412ZM30.0521 16.2355C30.4414 15.8387 30.7817 15.3895 31.0645 14.8988C31.2589 14.5706 31.0351 14.2858 30.6977 14.4163C30.2725 14.5936 29.8626 14.8106 29.4725 15.0649C29.3625 15.1361 29.3258 15.3338 29.2818 15.4129L29.3478 15.8994C29.4102 16.3819 29.722 16.5638 30.0558 16.2355H30.0521ZM32.1319 25.4897C32.0658 25.5688 32.0108 25.6637 31.9338 25.7072C31.7267 25.8178 31.5009 25.8818 31.2701 25.8954C31.0393 25.909 30.8084 25.8719 30.5913 25.7863C30.1731 25.6558 29.766 25.5016 29.3515 25.3592L29.3295 25.4344C29.3955 25.4739 29.4579 25.5174 29.5239 25.553C30.5489 26.0604 31.6607 26.3324 32.7884 26.3519C33.0049 26.3519 33.2323 26.2965 33.4377 26.2095C33.5829 26.1394 33.7018 26.0184 33.775 25.8662C33.8483 25.7139 33.8716 25.5394 33.8412 25.3711C33.7678 25.0468 33.4927 25.0507 33.2689 25.031C32.4877 24.9677 31.699 24.9281 30.9141 24.8807L30.0814 24.8332C30.2575 24.9519 30.4409 25.0033 30.6243 25.0428C31.0535 25.1298 31.4863 25.201 31.9154 25.2999C31.9961 25.3197 32.0622 25.4264 32.1355 25.4897H32.1319ZM32.1502 22.7609C31.556 22.7807 30.9581 22.8282 30.3639 22.8321C30.0704 22.8321 30.0301 22.9903 30.0631 23.2671C30.1878 23.279 30.3088 23.2988 30.4299 23.2909C30.7784 23.2711 31.1268 23.2276 31.4716 23.2276C31.6 23.2276 31.7284 23.3225 31.8531 23.3779C31.7834 23.4965 31.732 23.631 31.644 23.7298C31.3212 24.0779 30.8994 24.0739 30.4776 24.066L30.4336 24.1649C30.5069 24.2163 30.5803 24.3033 30.6537 24.3033C31.0461 24.3191 31.4386 24.331 31.8311 24.3112C32.0289 24.2982 32.2185 24.2215 32.3754 24.0911C32.5324 23.9607 32.6494 23.7825 32.7114 23.5796C32.8471 23.1089 32.605 22.7491 32.1502 22.7649V22.7609ZM34.4721 21.6536C34.3612 21.4685 34.2068 21.3183 34.0246 21.2186C33.335 20.9338 32.6307 20.6886 31.9411 20.4197C31.6477 20.3011 31.4423 20.392 31.2956 20.6965C31.567 20.8152 31.8274 20.8943 32.0658 21.0287C32.1759 21.092 32.2492 21.2462 32.3373 21.3609L31.9888 21.6536C31.9521 21.6773 31.9008 21.6773 31.8568 21.6813C31.4313 21.705 31.0058 21.7208 30.584 21.7604C30.4849 21.7643 30.3932 21.8513 30.2978 21.9027L30.3455 22.0372C31.7284 22.1163 33.1149 22.2587 34.4721 21.6536ZM26.5931 13.6728C26.1314 13.0292 25.6569 12.3963 25.17 11.7745C24.5537 10.9915 24.5317 10.9796 23.7248 11.4938C23.2369 11.8062 22.8041 11.8022 22.3529 11.4423C21.8907 11.0746 21.4176 10.7265 20.9591 10.3587C20.3979 9.91185 19.844 9.89998 19.2828 10.3587C18.9343 10.6395 18.5528 10.8887 18.2264 11.1971C17.5625 11.818 16.9132 11.8695 16.187 11.3079C15.7762 10.9875 15.6735 11.0231 15.336 11.4423C14.8812 12.0118 14.419 12.5813 14.0155 13.1943C13.5643 13.8864 13.0325 14.3254 12.2035 14.2463C11.866 14.2146 11.6643 14.4559 11.6093 14.8158C11.5579 15.1519 11.5213 15.4881 11.4846 15.8242C11.4259 16.3502 11.3745 16.8802 11.3232 17.4062C11.5836 15.9231 12.508 15.0056 13.5974 14.2423C15.3947 12.9768 17.3754 12.2175 19.4845 11.8497C21.5826 11.4819 23.534 11.8774 25.291 13.2101C26.3584 14.0209 27.2057 15.0847 28.0567 16.1367C28.4235 16.5875 28.6069 17.1333 28.6876 17.7186C28.86 18.9525 28.7023 20.1666 28.5079 21.3768C28.3171 22.6027 28.1154 23.8327 27.9063 25.1338C28.6252 24.6988 29.3111 24.3863 29.799 23.718C29.3442 23.2592 29.3955 22.7372 29.5239 22.1598C29.6669 21.527 29.722 20.8705 29.788 20.222C29.799 20.0954 29.722 19.8858 29.6303 19.8423C29.3588 19.7039 29.2525 19.4666 29.2011 19.1898C29.1089 18.7262 29.0318 18.2592 28.97 17.7898C28.849 16.8288 28.7536 15.8638 28.6326 14.9028C28.5702 14.4084 28.4015 14.2661 27.9356 14.2344C27.8146 14.2265 27.6899 14.2107 27.5688 14.2146C27.3773 14.2186 27.1878 14.1712 27.0175 14.0766C26.8472 13.982 26.7014 13.8433 26.5931 13.6728ZM23.0865 15.3338C24.4877 16.0576 25.6064 17.1926 26.6922 18.3593C27.3663 19.1029 27.8295 20.0386 28.0273 21.0564L28.1667 21.6734L28.2951 21.6654C28.3098 20.5898 28.3685 19.514 28.3318 18.4383C28.326 17.9077 28.2157 17.3843 28.0083 16.903C27.8009 16.4217 27.5011 15.9933 27.1287 15.6463C26.7399 15.2785 26.3987 14.8514 26.0209 14.4717C25.1373 13.565 24.0622 12.904 22.8884 12.5457C21.3552 12.083 19.833 12.2293 18.3181 12.6248C16.3997 13.1192 14.584 13.8785 13.0325 15.2389C12.4529 15.7491 12.0201 16.3779 11.9357 17.1847C11.7927 18.5451 11.679 19.9135 11.6313 21.2818C11.6129 21.7485 11.822 22.2231 11.9247 22.6937L12.0531 22.67V22.314C12.062 21.5164 12.221 20.729 12.5205 19.9996C12.82 19.2702 13.2537 18.6139 13.7954 18.0706C14.3309 17.5169 14.9142 17.0186 15.4791 16.4966C16.6639 15.3944 18.1389 14.7195 19.6973 14.5666C20.8894 14.4361 22.0228 14.7881 23.0865 15.3378V15.3338ZM21.7183 15.8994C21.6675 15.7625 21.5916 15.638 21.4952 15.5334C21.3987 15.4287 21.2838 15.3461 21.1571 15.2903C20.3172 15.0135 19.4699 15.1005 18.6409 15.405C18.4548 15.4635 18.287 15.5753 18.1552 15.7285C18.0234 15.8817 17.9326 16.0706 17.8926 16.2751C17.8048 16.6237 17.796 16.9899 17.8669 17.3429C18.1897 18.4383 18.5602 19.518 18.9673 20.5818C19.2388 21.2937 19.9687 21.5231 20.5703 21.1039C20.8896 20.8814 21.162 20.589 21.3699 20.2457C21.8504 19.427 21.9788 18.4858 22.0228 17.2519C21.9641 16.9711 21.8907 16.4135 21.7183 15.8994ZM10.9821 15.0491C11.0151 14.8237 11.0407 14.6022 10.8097 14.4757C10.6929 14.4051 10.5667 14.3544 10.4355 14.3254C9.92567 14.2423 9.4158 14.1751 8.90228 14.1039L8.89862 14.1711C8.6492 14.1711 8.40343 14.1553 8.15767 14.1751C7.57813 14.2226 7.36538 14.4282 7.42407 15.057C7.58179 16.6666 8.38509 17.8649 9.61388 18.7389C9.7606 18.8457 9.97335 18.8813 10.1604 18.8971C10.4979 18.9367 10.6226 18.7785 10.4905 18.4502C10.3784 18.2036 10.2255 17.9812 10.0394 17.7937C9.53318 17.248 8.98665 16.7457 8.49881 16.1802C8.35942 16.018 8.27139 15.6542 8.34475 15.4683C8.39977 15.3101 8.73356 15.2073 8.94264 15.2033C9.50384 15.1875 10.065 15.2429 10.6263 15.2666C10.784 15.2745 10.949 15.2943 10.9821 15.0491ZM10.6483 15.8954C10.2228 15.7214 9.78261 15.587 9.35345 15.4406C9.15905 15.5276 8.91329 15.5593 8.88395 15.6621C8.83259 15.8282 8.87661 16.0932 8.97932 16.2276C9.25442 16.5875 9.56253 16.9276 9.89632 17.2282C10.043 17.3626 10.2815 17.3982 10.4832 17.4536C10.6446 17.4932 10.729 17.4141 10.7436 17.2203C10.7693 16.896 10.839 16.5717 10.8463 16.2474C10.8463 16.1288 10.7436 15.935 10.6483 15.8954ZM10.3548 23.805L12.2512 25.1496C12.2695 24.3587 12.0201 23.7338 11.7047 23.1208C11.3635 22.4643 11.0738 21.7762 11.1178 20.9931L11.1911 19.6485L11.2718 18.1773C11.1691 18.4937 11.1214 18.8141 11.0481 19.1304C10.9784 19.4231 10.9014 19.7078 10.5896 19.8423C10.5089 19.8818 10.4355 20.0796 10.4429 20.1982C10.4979 20.7835 10.5419 21.3807 10.6629 21.9541C10.7913 22.5948 10.9747 23.2118 10.3585 23.805H10.3548ZM5.16091 21.9067C6.59143 22.488 8.03297 22.2943 9.47083 22.231L9.50751 22.057C9.32044 22.0016 9.1297 21.9067 8.93896 21.8988C8.41444 21.8632 7.88258 21.8948 7.36172 21.8395C7.15264 21.8157 6.96558 21.6299 6.7675 21.5152C6.94357 21.3609 7.09762 21.1711 7.29203 21.0643C7.52311 20.9417 7.78354 20.8903 8.05497 20.7994C7.68083 20.4078 5.54605 21.2225 5.15724 21.9067H5.16091ZM7.55245 23.3225C7.53044 23.8168 7.97061 24.2875 8.49147 24.3112C8.83993 24.327 9.18839 24.3191 9.53685 24.3112C9.61755 24.3033 9.69825 24.2321 9.77894 24.1926C9.69091 24.153 9.60654 24.1016 9.52218 24.066C9.2214 23.9474 8.91329 23.8524 8.63085 23.7022C8.53915 23.6547 8.51347 23.4649 8.45478 23.3462C8.56482 23.3067 8.67853 23.2236 8.78857 23.2276C9.17005 23.2315 9.55153 23.2711 9.92933 23.2869C10.021 23.2869 10.1127 23.2395 10.2044 23.2157L10.1824 23.1089C10.1531 23.0931 10.1237 23.0654 10.0981 23.0615L7.80555 22.9824C7.57446 22.9745 7.55979 23.1485 7.55245 23.3225ZM6.98024 25.0428C6.79684 25.0745 6.53641 25.201 6.47405 25.3553C6.36768 25.6321 6.47773 25.9564 6.73082 26.1146C6.93256 26.2451 7.18932 26.344 7.42041 26.344C8.60518 26.3558 9.73126 26.0553 10.8097 25.5332C10.861 25.5095 10.9014 25.462 10.9454 25.4225C10.5052 25.5135 10.0981 25.6677 9.67991 25.7942C9.26282 25.954 8.8041 25.9299 8.40344 25.727C8.31174 25.6756 8.24204 25.5767 8.16135 25.4976C8.25305 25.4225 8.33741 25.3157 8.44012 25.2762C8.59784 25.2168 8.77023 25.1971 8.93529 25.1654L10.1788 24.9361L10.1678 24.9202C9.56253 24.9202 8.9573 24.9044 8.35575 24.9202C7.89725 24.936 7.43508 24.9677 6.98024 25.0428ZM35.4367 27.1468C36.0163 27.2061 36.2437 27.4513 36.3061 28.0841L36.3317 28.3846C38.063 25.5649 39.0608 21.0327 37.9457 16.6389C36.8013 12.1384 34.1969 8.85988 30.5803 6.39605C30.4886 8.08078 29.7 9.44123 29.0837 10.9559L29.9237 10.4418C30.6867 9.98699 31.4349 9.48078 32.3079 9.27908C33.467 9.01411 34.0649 9.65083 33.8485 10.9124C33.8412 10.9322 33.8558 10.9559 33.8668 10.9994C34.439 11.1774 34.6078 11.6599 34.6371 12.2491C34.6738 13.1192 34.6114 13.9734 34.3914 14.8118C34.3657 14.9107 34.3547 15.0135 34.329 15.144C34.5271 15.1598 34.6958 15.1598 34.8609 15.1836C35.18 15.231 35.5174 15.2389 35.8182 15.3497C36.4308 15.5751 36.5592 16.2276 36.119 16.7338C35.9943 16.8905 35.8498 17.0276 35.6898 17.1412C34.8168 17.6949 33.9585 18.2683 33.0562 18.7626C32.594 19.0157 32.3629 19.4468 32.0218 19.8581C32.1429 19.8977 32.2162 19.9135 32.2859 19.9412C33.1332 20.2536 33.9879 20.5423 34.8242 20.8864C34.9824 20.9428 35.1174 21.0571 35.2058 21.2095C35.2942 21.3618 35.3305 21.5427 35.3084 21.7208C35.2717 22.1282 34.9892 22.2587 34.6921 22.3457C34.2373 22.4762 33.7751 22.5711 33.2763 22.6937C33.6284 23.2474 33.5147 23.801 33.1369 24.327C33.5624 24.3666 33.9145 24.3745 34.2556 24.4377C34.9379 24.5643 35.158 24.9242 35.0736 25.6716C35.0477 25.9437 34.9666 26.2063 34.836 26.4407C34.7055 26.6751 34.5286 26.8757 34.318 27.0281C34.7545 27.0756 35.0956 27.1151 35.4367 27.1468ZM29.9384 6.6017C29.6779 6.66497 29.3845 6.66497 29.1571 6.79943C28.34 7.29335 27.6327 7.97358 27.0847 8.79264C26.6555 9.42541 26.285 10.1056 25.9182 10.7819C25.8632 10.8808 25.9549 11.0746 25.9806 11.2248C26.109 11.1536 26.274 11.1181 26.3621 11.0073C26.6262 10.6791 26.8389 10.3034 27.1103 9.97908C27.3524 9.68247 27.6312 9.41354 27.9173 9.15648C27.9907 9.08925 28.1741 9.06157 28.2474 9.11298C28.3135 9.16044 28.3355 9.35422 28.3061 9.461C28.2328 9.72597 28.1374 9.99094 28.0127 10.2322C27.7926 10.6672 27.5468 11.0825 27.3084 11.5135C27.6495 11.5531 27.7779 11.5135 28.0237 11.2169C28.9276 10.1307 29.5922 8.83823 29.9677 7.43615C30.0338 7.17909 29.9531 6.88248 29.9384 6.6017ZM26.0063 5.42713C25.9989 4.75482 25.4927 4.43448 24.9609 4.78645C24.7178 4.96026 24.5095 5.18483 24.3483 5.4469C23.517 6.77797 22.8857 8.2421 22.4776 9.78529C22.463 9.84461 22.4336 9.91185 22.4446 9.96326C22.4813 10.1017 22.54 10.2322 22.5913 10.3706C22.7087 10.2994 22.8591 10.252 22.9398 10.1491C23.0425 10.0147 23.0865 9.82484 23.1672 9.6627C23.4093 9.17231 23.6441 8.674 23.9045 8.19152C24.0292 7.96214 24.1759 7.73672 24.3483 7.55875C24.473 7.42429 24.6638 7.36892 24.8252 7.28192C24.8618 7.47175 24.9535 7.66553 24.9352 7.84745C24.8985 8.16779 24.8178 8.48813 24.7188 8.7966C24.5684 9.29095 24.3887 9.77343 24.2163 10.2599C24.7921 10.339 24.7958 10.339 25.0232 9.78529C25.1406 9.48473 25.258 9.18021 25.3534 8.87174C25.6981 7.75254 26.0173 6.62542 26.0063 5.43108V5.42713ZM25.247 4.01132C23.7323 3.58223 22.173 3.36295 20.6069 3.35878C20.854 3.5374 21.0642 3.76901 21.2245 4.03914C21.3848 4.30928 21.4917 4.61214 21.5386 4.92882C21.6853 5.74746 21.7917 6.57797 21.8687 7.40847C21.9311 8.13615 21.9311 8.87174 21.9604 9.60337C22.0558 9.48078 22.1035 9.35027 22.1512 9.21976C22.8848 7.29378 23.523 5.30453 25.247 4.01132ZM19.4845 4.2486C19.3532 4.50284 19.2486 4.77212 19.1727 5.05142C18.8243 6.26159 18.8536 7.51921 18.7876 8.76892C18.7729 9.01807 18.7876 9.27513 18.8316 9.52428C18.8463 9.59942 19.026 9.71806 19.07 9.69433C19.3451 9.53219 19.6092 9.36213 19.6019 8.93897C19.6084 8.00493 19.6993 7.07379 19.8733 6.15876C19.8917 6.07176 20.02 5.9452 20.1007 5.9452C20.1814 5.9452 20.2915 6.06385 20.3318 6.15481C20.3979 6.30509 20.4382 6.47514 20.4529 6.6452C20.5152 7.38079 20.5813 8.11638 20.6069 8.85987C20.6253 9.26326 20.8344 9.5045 21.1021 9.71015C21.3736 9.90789 21.5239 9.8288 21.5423 9.47287C21.557 9.10112 21.5423 8.72146 21.5423 8.34575L21.634 8.33389C21.5129 7.33729 21.4212 6.33673 21.2635 5.34803C21.2012 4.95255 21.0361 4.55708 20.838 4.21301C20.4492 3.5407 19.8477 3.56838 19.4809 4.25256L19.4845 4.2486ZM19.6532 3.32319C18.1934 3.37064 16.7995 3.53674 15.4387 3.89663C17.3461 5.54182 17.6762 7.99378 18.4025 10.252C18.4135 10.1729 18.4281 10.0938 18.4318 10.0147C18.5052 8.75705 18.5492 7.49548 18.6519 6.23786C18.7399 5.1938 18.8169 4.12601 19.6532 3.32319ZM15.1049 4.63617C14.7161 4.76272 14.6648 5.14238 14.6427 5.52204C14.5914 6.59774 14.7344 7.65367 14.9655 8.69377C15.0939 9.26722 15.2663 9.82484 15.4204 10.3943L15.9155 10.244C15.8642 9.9593 15.8018 9.71411 15.7762 9.461C15.7133 8.83645 15.6681 8.20999 15.6404 7.58248C15.6331 7.46384 15.7541 7.28192 15.8605 7.22655C15.9192 7.19491 16.1063 7.33333 16.1686 7.44011C16.3153 7.6774 16.4547 7.93841 16.5428 8.21129C16.7445 8.82824 16.9022 9.45705 17.093 10.0779C17.1737 10.3311 17.2984 10.6514 17.5845 10.5802C17.8963 10.5011 17.7862 10.157 17.7312 9.92767C17.5441 9.10507 17.3827 8.26666 17.1003 7.47966C16.7869 6.63959 16.4218 5.82308 16.0072 5.0356C15.9254 4.86425 15.7896 4.72994 15.6243 4.65674C15.4589 4.58354 15.2748 4.57625 15.1049 4.63617ZM10.3035 7.34915C10.3585 7.74463 10.4539 8.13615 10.5859 8.50395C11.0261 9.76157 11.6093 10.9361 12.4199 11.9604C12.6327 12.2293 12.8674 12.4864 13.3112 12.3836C13.1058 12.0316 12.9004 11.731 12.739 11.4028C12.5077 10.946 12.2996 10.476 12.1155 9.9949C12.0678 9.85648 12.1558 9.6627 12.1815 9.49264C12.3245 9.53219 12.4786 9.54801 12.6107 9.61919C12.7244 9.68247 12.8307 9.78925 12.9151 9.89603C13.2195 10.2757 13.513 10.6553 13.8064 11.0429C13.9422 11.2209 14.0522 11.5333 14.3126 11.3514C14.3933 11.2921 14.364 10.9085 14.2796 10.7344C13.6926 9.49916 12.8746 8.40843 11.8771 7.53107C11.5836 7.27796 11.2535 7.0565 10.916 6.87062C10.4685 6.63333 10.2301 6.81921 10.3035 7.34915ZM4.9445 30.0575C5.76613 31.2439 6.71247 32.284 7.83489 33.2371C7.85689 32.1298 7.96327 31.1174 8.61618 30.1999C7.3397 30.5242 6.12927 30.7179 4.9445 30.0575ZM14.6024 36.132C14.8115 35.4914 14.8922 34.7993 15.0352 34.1151C14.9178 33.601 14.8591 33.0869 14.6831 32.6281C14.5474 32.2722 14.2686 31.9676 14.0522 31.6473C13.4286 30.7298 12.728 30.4292 11.8367 30.7535C11.4809 30.8801 11.1251 31.0699 10.8207 31.3072C9.65056 32.2049 9.46349 33.9055 10.4172 34.8705C10.7254 35.1952 11.1036 35.4324 11.5178 35.5608C11.932 35.6892 12.3692 35.7047 12.7904 35.606C13.4139 35.4755 13.7477 35.0168 13.7147 34.3366C13.6811 33.6509 13.4132 33.0028 12.9628 32.5174C12.6033 32.1179 11.9284 32.114 11.5433 32.4778C11.2682 32.7349 11.1911 33.0631 11.2792 33.4309C11.316 33.6044 11.3992 33.7625 11.5185 33.8855C11.6378 34.0085 11.788 34.0911 11.9504 34.123C12.0458 34.1467 12.2145 34.1072 12.2439 34.0439C12.2879 33.949 12.2622 33.7868 12.2108 33.684C12.1375 33.5258 11.9834 33.4072 11.9174 33.249C11.8807 33.1462 11.8991 32.9722 11.9614 32.8812C12.0091 32.814 12.1668 32.7902 12.2622 32.81C12.618 32.8891 12.9004 33.3835 12.8968 33.9015C12.8968 34.3919 12.6583 34.7597 12.2695 34.8625C11.5506 35.0484 10.6813 34.4354 10.5602 33.6563C10.517 33.2564 10.5828 32.8515 10.7496 32.4912C10.9163 32.1309 11.1768 31.8308 11.4992 31.6275C12.1081 31.2756 12.8381 31.3982 13.3956 31.9637C13.9362 32.523 14.2885 33.2605 14.397 34.0597C14.5987 35.3411 14.0375 36.2151 12.8784 36.4959C11.1728 36.9111 9.56987 35.2303 9.32044 33.7552C9.09302 32.3592 9.90732 30.8524 11.2058 30.2908C11.7267 30.0654 12.2585 29.8716 12.7794 29.6422C12.8637 29.6066 12.9554 29.4682 12.9591 29.3694C12.9701 28.9541 12.8968 28.8671 12.508 28.8948C11.4924 28.9879 10.5239 29.3974 9.72025 30.0733C9.33475 30.3933 9.04828 30.8318 8.89862 31.3309C8.11733 33.7552 9.54419 36.8162 11.8184 37.5874C13.0875 38.0224 14.1586 37.4885 14.6024 36.132ZM25.8705 37.7614L25.4267 37.3461C25.1259 37.5122 24.8398 37.6783 24.5464 37.8207C24.2493 37.967 23.9485 38.1213 23.6367 38.2162C20.6876 39.106 17.7862 39.0625 14.9545 37.6783C14.7601 37.5834 14.5804 37.4806 14.43 37.7772C14.9778 38.2947 15.6129 38.6935 16.3007 38.9518C18.6372 39.8456 21.0178 39.7942 23.402 39.2088C24.3366 38.9918 25.1936 38.4893 25.8705 37.7614ZM27.6789 28.8908C27.4771 28.8711 27.3634 28.9699 27.3561 29.1993C27.3488 29.401 27.2901 29.5829 27.5652 29.6739C28.1337 29.8716 28.6912 30.097 29.2378 30.3541C30.5069 30.9513 31.2882 32.6044 30.9508 33.9371C30.5509 35.519 29.0837 36.6897 27.6899 36.5473C26.5235 36.4247 25.8192 35.6179 25.8779 34.4117C25.9146 33.5287 26.2515 32.691 26.8242 32.0586C27.2864 31.5405 27.8513 31.2914 28.5042 31.497C29.1644 31.7027 29.5459 32.2366 29.711 32.9405C29.9604 34.0083 29.2891 34.9021 28.2694 34.8784C27.8146 34.8744 27.4918 34.5818 27.4258 34.1111C27.3451 33.5377 27.6129 32.9366 28.0237 32.8219C28.1264 32.7902 28.2914 32.8179 28.3538 32.8891C28.4198 32.9682 28.4272 33.1501 28.3905 33.253C28.3318 33.4032 28.1887 33.514 28.1154 33.6603C28.0604 33.7671 28.0053 33.9648 28.053 34.0123C28.1264 34.0914 28.2951 34.1309 28.4015 34.1072C28.5949 34.0556 28.7661 33.934 28.8862 33.7627C29.0064 33.5913 29.0684 33.3807 29.0617 33.1659C29.0617 32.727 28.783 32.3513 28.3721 32.2563C27.9063 32.1417 27.4661 32.2247 27.2094 32.6835C26.9512 33.1209 26.7535 33.5965 26.6225 34.0953C26.4501 34.8507 26.8059 35.4399 27.4661 35.5902C28.4932 35.8156 29.3808 35.5032 30.0778 34.649C30.2409 34.4457 30.3616 34.2071 30.4319 33.9492C30.5021 33.6913 30.5202 33.4202 30.4849 33.1541C30.3382 31.7027 28.948 30.4886 27.6019 30.6507C27.4258 30.6705 27.2277 30.7179 27.0957 30.8287C26.1163 31.6473 25.258 32.5569 25.3203 34.0518L25.236 34.0716C25.3754 34.7558 25.4634 35.4558 25.6615 36.1162C25.9182 36.9625 26.4464 37.5558 27.3047 37.706C27.8333 37.7874 28.3721 37.6878 28.8453 37.4213C29.4503 37.1162 29.9896 36.6782 30.4285 36.1355C30.8675 35.5927 31.1966 34.9571 31.3946 34.2693C32.3226 31.1213 30.5069 29.1914 27.6789 28.8908ZM32.2639 31.6157C32.3813 32.11 32.3996 32.6321 32.4693 33.1818C33.5095 32.3127 34.435 31.2948 35.2203 30.1564C34.0466 30.7061 32.8801 30.5044 31.7614 30.2157C31.9301 30.6784 32.1465 31.1332 32.2602 31.6157H32.2639ZM37.9273 13.4C36.097 8.55931 32.6894 5.27684 28.2878 3.21245C24.448 1.3955 20.178 0.915762 16.0733 1.84014C11.4259 2.83675 7.51578 5.23334 4.57769 9.27908C1.29115 13.8113 0.21274 18.9367 1.49655 24.5445C2.43189 28.6298 4.5887 31.8925 7.61481 34.5027C7.79821 34.6609 7.99628 34.8072 8.26038 35.0168C8.16868 34.7083 8.07699 34.5066 8.05131 34.297C7.99629 33.8897 7.7762 33.6445 7.48643 33.4032C6.41272 32.5165 5.44874 31.4851 4.61804 30.3343C1.40852 25.8417 0.410823 20.8587 1.99908 15.4129C3.23887 11.1616 5.82481 7.99378 9.32777 5.72374C14.3199 2.49664 19.6973 1.74523 25.3203 3.21641C29.7366 4.37516 33.4267 6.84294 36.1117 10.8649C38.5986 14.5943 39.5082 18.7587 38.6866 23.2909C37.942 27.4038 35.8989 30.6744 32.8985 33.2569C32.3593 33.7196 32.2382 34.2931 32.0328 34.9812C32.2052 34.8467 32.3226 34.7716 32.418 34.6767C33.2029 33.9134 34.0576 33.2134 34.7508 32.3631C39.3395 26.7473 40.572 20.3881 37.9273 13.4Z" fill="url(#paint0_linear_4014_12129)"/>
<defs>
<linearGradient id="paint0_linear_4014_12129" x1="9.97615" y1="-1.92914" x2="21.5753" y2="39.9598" gradientUnits="userSpaceOnUse">
<stop stop-color="#6C4A29"/>
<stop offset="0.485" stop-color="#CDA073"/>
<stop offset="0.97" stop-color="#FFEEC1"/>
</linearGradient>
</defs>
</svg>
