<svg width="146" height="29" viewBox="0 0 146 29" fill="none" xmlns="http://www.w3.org/2000/svg">
<g id="Group 1000006639">
<g id="SIGIL INSPIRED">
<path id="Vector" d="M135.34 14.1738V0.539062H136.878V13.8427V14.1738H135.34ZM133.918 0.889671L133.82 0.539062H136.878V1.70776C136.878 1.82463 136.794 1.90254 136.625 1.9415C136.469 1.96747 136.294 1.97396 136.099 1.96098C135.917 1.93501 135.742 1.89605 135.573 1.84411C135.418 1.79216 135.34 1.74022 135.34 1.68828C135.34 1.37663 135.268 1.1364 135.125 0.967584C134.983 0.785787 134.781 0.694889 134.522 0.694889C134.405 0.694889 134.301 0.714367 134.21 0.753324C134.119 0.779295 134.022 0.824744 133.918 0.889671ZM133.82 14.1738L133.918 13.8232C134.022 13.8882 134.119 13.9401 134.21 13.9791C134.301 14.005 134.405 14.018 134.522 14.018C134.794 14.018 134.996 13.9141 135.125 13.7064C135.268 13.4856 135.34 13.2584 135.34 13.0246C135.34 12.8428 135.424 12.7389 135.593 12.713C135.762 12.687 135.956 12.674 136.177 12.674C136.398 12.674 136.567 12.687 136.684 12.713C136.813 12.7389 136.878 12.8428 136.878 13.0246C136.878 13.3882 136.956 13.6479 137.112 13.8038C137.281 13.9466 137.476 14.018 137.696 14.018C137.813 14.018 137.917 14.005 138.008 13.9791C138.099 13.9401 138.196 13.8882 138.3 13.8232L138.398 14.1738H133.82ZM138.261 0.539062L137.696 0.870193C137.437 0.870193 137.236 0.935121 137.093 1.06498C136.95 1.18185 136.878 1.39611 136.878 1.70776C136.813 1.69477 136.742 1.62985 136.664 1.51298C136.586 1.38312 136.547 1.26625 136.547 1.16237C136.547 1.05848 136.567 0.928628 136.606 0.772802C136.645 0.616976 136.736 0.539062 136.878 0.539062H137.112H138.261ZM138.261 0.539062C139.118 0.539062 139.949 0.72086 140.755 1.08445C141.573 1.43506 142.3 1.92202 142.936 2.54532C143.572 3.15564 144.079 3.87634 144.455 4.70741C144.845 5.5255 145.04 6.40202 145.04 7.33698C145.04 7.80445 144.955 8.19402 144.787 8.50567C144.631 8.80434 144.449 8.97964 144.241 9.03158C144.046 9.07054 143.865 8.96017 143.696 8.70045C143.54 8.42776 143.462 7.95379 143.462 7.27854C143.462 6.46045 143.326 5.66834 143.053 4.90219C142.78 4.12306 142.391 3.43483 141.884 2.8375C141.391 2.24016 140.787 1.76619 140.073 1.41558C139.372 1.05199 138.58 0.870193 137.696 0.870193C137.787 0.805266 137.872 0.746831 137.95 0.694889C138.015 0.655932 138.073 0.623468 138.125 0.597498C138.19 0.558541 138.235 0.539062 138.261 0.539062ZM138.261 14.1738H137.112H136.878C136.736 14.1738 136.645 14.0959 136.606 13.9401C136.567 13.7843 136.547 13.6544 136.547 13.5505C136.547 13.4467 136.586 13.3363 136.664 13.2194C136.742 13.0896 136.813 13.0181 136.878 13.0052C136.878 13.3168 136.95 13.5376 137.093 13.6674C137.236 13.7843 137.437 13.8427 137.696 13.8427L138.261 14.1738ZM138.261 14.1738C138.235 14.1738 138.19 14.1609 138.125 14.1349C138.073 14.0959 138.015 14.0505 137.95 13.9985C137.872 13.9596 137.787 13.9076 137.696 13.8427C138.58 13.8427 139.372 13.6674 140.073 13.3168C140.787 12.9532 141.391 12.4727 141.884 11.8754C142.391 11.2781 142.78 10.5963 143.053 9.83019C143.326 9.05106 143.462 8.25245 143.462 7.43437C143.462 6.74614 143.54 6.27216 143.696 6.01245C143.865 5.75274 144.046 5.64886 144.241 5.7008C144.449 5.73976 144.631 5.91506 144.787 6.22672C144.955 6.52538 145.04 6.90846 145.04 7.37593C145.04 8.31089 144.845 9.1939 144.455 10.025C144.079 10.8431 143.572 11.5638 142.936 12.1871C142.3 12.7974 141.573 13.2843 140.755 13.6479C139.949 13.9985 139.118 14.1738 138.261 14.1738Z" fill="white"/>
<path id="Vector_2" d="M123.66 14.1738V0.539062H125.199V13.8427V14.1738H123.66ZM123.66 0.948107V0.539062H130.711V0.948107H123.66ZM129.425 0.539062H130.945L129.893 5.13593L129.464 4.94115C129.542 4.86324 129.614 4.75286 129.679 4.61002C129.744 4.45419 129.802 4.29837 129.854 4.14254C129.919 3.97373 129.971 3.81141 130.01 3.65558C130.049 3.48677 130.075 3.35692 130.088 3.26602C130.192 2.73361 130.172 2.31808 130.029 2.01941C129.886 1.70776 129.685 1.47402 129.425 1.31819C129.179 1.16237 128.9 1.06498 128.588 1.02602C128.276 0.974077 127.997 0.948107 127.75 0.948107L129.425 0.539062ZM122.141 0.539062H123.154H123.426H126.718L126.64 0.948107H126.075C125.867 0.948107 125.666 0.98057 125.471 1.0455C125.29 1.11043 125.199 1.32469 125.199 1.68828C125.199 1.87008 125.121 1.94799 124.965 1.92202C124.822 1.89605 124.64 1.8506 124.42 1.78567C124.212 1.8506 124.03 1.89605 123.874 1.92202C123.731 1.94799 123.66 1.87008 123.66 1.68828C123.66 1.51947 123.64 1.37663 123.601 1.25976C123.563 1.14289 123.511 1.0455 123.446 0.967584C123.355 0.8637 123.257 0.79228 123.154 0.753324C123.063 0.714367 122.959 0.694889 122.842 0.694889C122.725 0.694889 122.621 0.714367 122.53 0.753324C122.439 0.779295 122.342 0.824744 122.238 0.889671L122.141 0.539062ZM124.575 6.63576H127.595V7.06428L124.575 6.96689V6.63576ZM127.77 4.27889L129.367 9.20689H128.977C128.952 8.7524 128.893 8.38231 128.802 8.09663C128.724 7.81095 128.607 7.59019 128.452 7.43437C128.296 7.27854 128.094 7.17466 127.848 7.12272C127.601 7.07077 127.302 7.0448 126.952 7.0448V6.63576C127.536 6.63576 127.887 6.44747 128.004 6.07089C128.12 5.69431 127.919 5.19437 127.4 4.57106L127.77 4.27889ZM123.66 13.7648H131.646V14.1738H123.66V13.7648ZM130.36 14.1738L128.685 13.7648C128.932 13.7648 129.211 13.7453 129.523 13.7064C129.835 13.6544 130.114 13.5505 130.36 13.3947C130.62 13.2389 130.821 13.0051 130.964 12.6935C131.107 12.3818 131.127 11.9663 131.023 11.4469C131.01 11.356 130.984 11.2326 130.945 11.0768C130.906 10.908 130.854 10.7457 130.789 10.5898C130.737 10.421 130.679 10.2652 130.614 10.1224C130.549 9.96654 130.477 9.84967 130.399 9.77176L130.828 9.57698L131.88 14.1738H130.36ZM122.141 14.1738L122.238 13.8232C122.342 13.8882 122.439 13.9401 122.53 13.9791C122.621 14.005 122.725 14.018 122.842 14.018C122.959 14.018 123.063 13.9985 123.154 13.9596C123.257 13.9206 123.355 13.8492 123.446 13.7453C123.511 13.6674 123.563 13.57 123.601 13.4532C123.64 13.3363 123.66 13.1934 123.66 13.0246C123.66 12.8428 123.731 12.7649 123.874 12.7909C124.03 12.8169 124.212 12.8623 124.42 12.9272C124.64 12.8623 124.822 12.8169 124.965 12.7909C125.121 12.7649 125.199 12.8428 125.199 13.0246C125.199 13.3882 125.29 13.6025 125.471 13.6674C125.666 13.7323 125.867 13.7648 126.075 13.7648H126.64L126.718 14.1738H123.426H123.154H122.141Z" fill="white"/>
<path id="Vector_3" d="M109.812 14.1738V0.539062H111.351V13.8427V14.1738H109.812ZM108.39 0.889671L108.293 0.539062H111.351V1.70776C111.351 1.82463 111.267 1.90254 111.098 1.9415C110.942 1.96747 110.767 1.97396 110.572 1.96098C110.39 1.93501 110.215 1.89605 110.046 1.84411C109.89 1.79216 109.812 1.74022 109.812 1.68828C109.812 1.37663 109.741 1.1364 109.598 0.967584C109.455 0.785787 109.254 0.694889 108.994 0.694889C108.877 0.694889 108.773 0.714367 108.683 0.753324C108.592 0.779295 108.494 0.824744 108.39 0.889671ZM108.293 14.1738L108.39 13.8232C108.494 13.8882 108.592 13.9401 108.683 13.9791C108.773 14.005 108.877 14.018 108.994 14.018C109.267 14.018 109.468 13.9141 109.598 13.7064C109.741 13.4856 109.812 13.2584 109.812 13.0246C109.812 12.8428 109.897 12.7389 110.065 12.713C110.234 12.687 110.429 12.674 110.65 12.674C110.871 12.674 111.039 12.687 111.156 12.713C111.286 12.7389 111.351 12.8428 111.351 13.0246C111.351 13.3882 111.429 13.6479 111.585 13.8038C111.754 13.9466 111.948 14.018 112.169 14.018C112.286 14.018 112.39 14.005 112.481 13.9791C112.572 13.9401 112.669 13.8882 112.773 13.8232L112.87 14.1738H108.293ZM112.734 0.539062L112.169 0.870193C111.909 0.870193 111.708 0.935121 111.565 1.06498C111.422 1.18185 111.351 1.39611 111.351 1.70776C111.286 1.69477 111.215 1.62985 111.137 1.51298C111.059 1.38312 111.02 1.26625 111.02 1.16237C111.02 1.05848 111.039 0.928628 111.078 0.772802C111.117 0.616976 111.208 0.539062 111.351 0.539062H112.734ZM118.402 3.69454C118.402 4.40874 118.227 4.97361 117.876 5.38915C117.526 5.80469 117.091 6.13582 116.571 6.38254C116.052 6.61628 115.487 6.81106 114.877 6.96689C114.266 7.10973 113.701 7.28503 113.182 7.4928C112.663 7.68759 112.228 7.9473 111.877 8.27193C111.526 8.58359 111.351 9.03808 111.351 9.63541C111.351 9.71332 111.345 9.71332 111.332 9.63541C111.319 9.54451 111.306 9.43414 111.293 9.30428C111.28 9.16144 111.273 9.02509 111.273 8.89524C111.286 8.7524 111.312 8.6615 111.351 8.62254C111.494 8.23298 111.721 7.92782 112.033 7.70706C112.344 7.47332 112.695 7.27205 113.085 7.10324C113.474 6.92144 113.877 6.75263 114.292 6.5968C114.708 6.44098 115.084 6.24619 115.422 6.01245C115.773 5.77872 116.058 5.48005 116.279 5.11645C116.5 4.75286 116.61 4.27889 116.61 3.69454C116.61 2.69466 116.273 1.97396 115.597 1.53245C114.922 1.09095 113.779 0.870193 112.169 0.870193C112.26 0.805266 112.344 0.746831 112.422 0.694889C112.487 0.655932 112.546 0.623468 112.598 0.597498C112.663 0.558541 112.708 0.539062 112.734 0.539062C113.76 0.539062 114.63 0.60399 115.344 0.733845C116.058 0.850715 116.643 1.039 117.097 1.29872C117.552 1.54544 117.883 1.87008 118.091 2.27263C118.298 2.66219 118.402 3.13616 118.402 3.69454ZM120.194 14.1738H119.162H117.195L116.747 13.161L118.071 13.0636C118.318 13.4791 118.539 13.7388 118.733 13.8427C118.928 13.9336 119.136 13.9791 119.357 13.9791C119.473 13.9791 119.59 13.9661 119.707 13.9401C119.824 13.9141 119.934 13.8687 120.038 13.8038L120.194 14.1738ZM117.195 14.1738L113.903 6.85002L114.312 6.73315L118.733 14.1738H117.195ZM115.403 14.1738L115.5 13.8232C115.552 13.8492 115.63 13.8882 115.734 13.9401C115.838 13.992 115.961 14.018 116.104 14.018C116.208 14.018 116.318 14.0115 116.435 13.9985C116.565 13.9856 116.669 13.9531 116.747 13.9011C116.824 13.8362 116.87 13.7453 116.883 13.6285C116.896 13.5116 116.85 13.3558 116.747 13.161L118.071 13.0636L118.733 14.1738H115.403Z" fill="white"/>
<path id="Vector_4" d="M103.289 14.1738V1.96098V0.539062H104.828V13.8427V14.1738H103.289ZM101.867 0.889671L101.77 0.539062H104.828C104.789 0.616976 104.763 0.675411 104.75 0.714367C104.75 0.753324 104.75 0.811759 104.75 0.889671C104.763 0.954599 104.776 1.0455 104.789 1.16237C104.815 1.27924 104.828 1.45454 104.828 1.68828C104.828 1.74022 104.743 1.77918 104.574 1.80515C104.419 1.83112 104.243 1.84411 104.048 1.84411C103.867 1.84411 103.691 1.83112 103.523 1.80515C103.367 1.77918 103.289 1.74022 103.289 1.68828C103.289 1.37663 103.217 1.1364 103.075 0.967584C102.932 0.785787 102.73 0.694889 102.471 0.694889C102.354 0.694889 102.25 0.714367 102.159 0.753324C102.068 0.779295 101.971 0.824744 101.867 0.889671ZM101.77 14.1738L101.867 13.8232C101.971 13.8882 102.068 13.9401 102.159 13.9791C102.25 14.005 102.354 14.018 102.471 14.018C102.588 14.018 102.698 13.9985 102.802 13.9596C102.906 13.9206 102.997 13.8492 103.075 13.7453C103.14 13.6674 103.191 13.57 103.23 13.4532C103.269 13.3363 103.289 13.1934 103.289 13.0246C103.289 12.8428 103.36 12.7649 103.503 12.7909C103.659 12.8169 103.841 12.8623 104.048 12.9272C104.269 12.8623 104.451 12.8169 104.594 12.7909C104.75 12.7649 104.828 12.8428 104.828 13.0246C104.828 13.3882 104.906 13.6479 105.061 13.8038C105.23 13.9466 105.425 14.018 105.646 14.018C105.763 14.018 105.866 14.005 105.957 13.9791C106.048 13.9401 106.146 13.8882 106.25 13.8232L106.347 14.1738H101.77ZM106.25 0.889671C106.146 0.824744 106.048 0.779295 105.957 0.753324C105.866 0.714367 105.763 0.694889 105.646 0.694889C105.386 0.694889 105.185 0.785787 105.042 0.967584C104.899 1.1364 104.828 1.37663 104.828 1.68828C104.828 1.74022 104.743 1.77918 104.574 1.80515C104.419 1.83112 104.243 1.84411 104.048 1.84411C103.867 1.84411 103.691 1.83112 103.523 1.80515C103.367 1.77918 103.289 1.74022 103.289 1.68828C103.289 1.45454 103.295 1.27924 103.308 1.16237C103.334 1.0455 103.347 0.954599 103.347 0.889671C103.36 0.811759 103.36 0.753324 103.347 0.714367C103.347 0.675411 103.328 0.616976 103.289 0.539062H106.347L106.25 0.889671Z" fill="white"/>
<path id="Vector_5" d="M91.2302 14.1738V0.539062H92.769V13.8427V14.1738H91.2302ZM89.8083 0.889671L89.7109 0.539062H92.769V1.70776C92.769 1.82463 92.6846 1.90254 92.5158 1.9415C92.36 1.96747 92.1847 1.97396 91.9899 1.96098C91.8081 1.93501 91.6328 1.89605 91.464 1.84411C91.3082 1.79216 91.2302 1.74022 91.2302 1.68828C91.2302 1.37663 91.1588 1.1364 91.016 0.967584C90.8731 0.785787 90.6719 0.694889 90.4122 0.694889C90.2953 0.694889 90.1914 0.714367 90.1005 0.753324C90.0096 0.779295 89.9122 0.824744 89.8083 0.889671ZM89.7109 14.1738L89.8083 13.8232C89.9122 13.8882 90.0096 13.9401 90.1005 13.9791C90.1914 14.005 90.2953 14.018 90.4122 14.018C90.6849 14.018 90.8861 13.9141 91.016 13.7064C91.1588 13.4856 91.2302 13.2584 91.2302 13.0246C91.2302 12.8428 91.3147 12.7389 91.4835 12.713C91.6523 12.687 91.8471 12.674 92.0678 12.674C92.2886 12.674 92.4574 12.687 92.5743 12.713C92.7041 12.7389 92.769 12.8428 92.769 13.0246C92.769 13.3882 92.8469 13.6479 93.0028 13.8038C93.1716 13.9466 93.3664 14.018 93.5871 14.018C93.704 14.018 93.8079 14.005 93.8988 13.9791C93.9897 13.9401 94.0871 13.8882 94.1909 13.8232L94.2883 14.1738H89.7109ZM94.152 0.539062L93.5871 0.870193C93.3274 0.870193 93.1261 0.935121 92.9833 1.06498C92.8405 1.18185 92.769 1.39611 92.769 1.70776C92.7041 1.69477 92.6327 1.62985 92.5548 1.51298C92.4769 1.38312 92.4379 1.26625 92.4379 1.16237C92.4379 1.05848 92.4574 0.928628 92.4963 0.772802C92.5353 0.616976 92.6262 0.539062 92.769 0.539062H94.152ZM99.8202 3.69454C99.8202 4.40874 99.6449 4.97361 99.2942 5.38915C98.9436 5.80469 98.5086 6.13582 97.9892 6.38254C97.4698 6.61628 96.9049 6.81106 96.2946 6.96689C95.6843 7.10973 95.1194 7.28503 94.6 7.4928C94.0806 7.68759 93.6456 7.9473 93.2949 8.27193C92.9443 8.58359 92.769 9.03808 92.769 9.63541C92.769 9.71332 92.7625 9.71332 92.7496 9.63541C92.7366 9.54451 92.7236 9.43414 92.7106 9.30428C92.6976 9.16144 92.6911 9.02509 92.6911 8.89524C92.7041 8.7524 92.7301 8.6615 92.769 8.62254C92.9119 8.23298 93.1391 7.92782 93.4508 7.70706C93.7624 7.47332 94.113 7.27205 94.5026 7.10324C94.8922 6.92144 95.2947 6.75263 95.7102 6.5968C96.1258 6.44098 96.5024 6.24619 96.84 6.01245C97.1906 5.77872 97.4763 5.48005 97.697 5.11645C97.9178 4.75286 98.0282 4.27889 98.0282 3.69454C98.0282 2.69466 97.6905 1.97396 97.0153 1.53245C96.34 1.09095 95.1973 0.870193 93.5871 0.870193C93.678 0.805266 93.7624 0.746831 93.8403 0.694889C93.9053 0.655932 93.9637 0.623468 94.0156 0.597498C94.0806 0.558541 94.126 0.539062 94.152 0.539062C95.1778 0.539062 96.0479 0.60399 96.7621 0.733845C97.4763 0.850715 98.0606 1.039 98.5151 1.29872C98.9696 1.54544 99.3007 1.87008 99.5085 2.27263C99.7163 2.66219 99.8202 3.13616 99.8202 3.69454Z" fill="white"/>
<path id="Vector_6" d="M82.8198 13.6477C83.4821 13.6866 84.1313 13.6087 84.7676 13.414C85.4039 13.2062 85.9039 12.8945 86.2675 12.479C86.5402 12.1803 86.709 11.8557 86.7739 11.5051C86.8388 11.1545 86.8258 10.8104 86.7349 10.4727C86.657 10.1351 86.5077 9.81697 86.2869 9.5183C86.0792 9.21963 85.8324 8.96642 85.5468 8.75865C85.2611 8.55088 84.9105 8.33013 84.4949 8.09639C84.0924 7.84966 83.6769 7.58995 83.2483 7.31726C82.8328 7.04456 82.4367 6.76537 82.0602 6.47969C81.6836 6.18102 81.3784 5.88236 81.1447 5.58369C80.7032 5.01233 80.4629 4.4085 80.424 3.77221C80.385 3.12294 80.5019 2.5256 80.7746 1.98021C81.0603 1.43482 81.4693 0.98682 82.0017 0.636212C82.5471 0.272617 83.1769 0.0908203 83.8911 0.0908203C84.3326 0.0908203 84.7222 0.142762 85.0598 0.246647C85.4104 0.350531 85.7026 0.460908 85.9363 0.577777C86.222 0.720618 86.4752 0.882937 86.696 1.06473L85.761 5.13569L85.3325 4.94091C85.4104 4.86299 85.4818 4.75262 85.5468 4.60978C85.6117 4.45395 85.6701 4.29813 85.7221 4.1423C85.787 3.97349 85.8389 3.81117 85.8779 3.65534C85.9168 3.48653 85.9428 3.35668 85.9558 3.26578C86.0337 2.83726 86.0272 2.46717 85.9363 2.15552C85.8454 1.83088 85.6961 1.56468 85.4883 1.35691C85.2806 1.13615 85.0338 0.973836 84.7482 0.869951C84.4625 0.753082 84.1638 0.681661 83.8522 0.655691C83.5795 0.629719 83.3068 0.636212 83.0341 0.675169C82.7744 0.714125 82.5276 0.792037 82.2939 0.908907C82.0602 1.01279 81.8524 1.16212 81.6706 1.35691C81.4888 1.55169 81.3524 1.80491 81.2615 2.11656C81.1057 2.66195 81.0862 3.14891 81.2031 3.57743C81.32 3.99297 81.5213 4.36955 81.8069 4.70717C82.1056 5.04479 82.4627 5.34346 82.8782 5.60317C83.2938 5.86288 83.7158 6.10311 84.1443 6.32386C84.5858 6.54462 85.0014 6.75239 85.3909 6.94717C85.7935 7.14195 86.1181 7.33673 86.3648 7.53152C86.7025 7.79123 86.9946 8.10937 87.2414 8.48595C87.5011 8.86253 87.6634 9.27807 87.7283 9.73256C87.8062 10.1871 87.7673 10.674 87.6115 11.1934C87.4556 11.6999 87.131 12.2193 86.6375 12.7517C86.196 13.2192 85.6442 13.5893 84.9819 13.862C84.3326 14.1346 83.5924 14.271 82.7614 14.271C82.2549 14.271 81.8134 14.232 81.4368 14.1541C81.0603 14.0762 80.7486 13.9853 80.5019 13.8814C80.2162 13.7775 79.9695 13.6542 79.7617 13.5113L80.6772 9.57673L81.1057 9.77152C81.0278 9.84943 80.9564 9.9663 80.8915 10.1221C80.8265 10.265 80.7616 10.4208 80.6967 10.5896C80.6447 10.7454 80.5993 10.9077 80.5603 11.0766C80.5214 11.2324 80.4954 11.3557 80.4824 11.4466C80.4045 11.8752 80.424 12.2323 80.5408 12.518C80.6707 12.7906 80.8525 13.0114 81.0862 13.1802C81.32 13.336 81.5927 13.4464 81.9043 13.5113C82.216 13.5763 82.5211 13.6217 82.8198 13.6477Z" fill="white"/>
<path id="Vector_7" d="M76.2905 14.1738L66.3371 0.539062H67.8759L76.2905 12.3429V14.1738ZM76.2905 14.1738L75.8815 13.3752V0.539062H76.2905V14.1738ZM77.7124 0.889671C77.6086 0.824744 77.5112 0.779295 77.4203 0.753324C77.3294 0.714367 77.2255 0.694889 77.1086 0.694889C76.8489 0.694889 76.6476 0.785787 76.5048 0.967584C76.362 1.1364 76.2905 1.37663 76.2905 1.68828C76.2905 1.70127 76.2711 1.70776 76.2321 1.70776C76.2061 1.70776 76.1737 1.67529 76.1347 1.61037C76.0958 1.53245 76.0568 1.41558 76.0178 1.25976C75.9919 1.09095 75.9789 0.850715 75.9789 0.539062H77.8098L77.7124 0.889671ZM74.4596 0.889671L74.3622 0.539062H76.1931C76.1931 0.850715 76.1737 1.09095 76.1347 1.25976C76.1087 1.41558 76.0763 1.53245 76.0373 1.61037C75.9984 1.67529 75.9594 1.70776 75.9204 1.70776C75.8945 1.70776 75.8815 1.70127 75.8815 1.68828C75.8815 1.37663 75.8101 1.1364 75.6672 0.967584C75.5244 0.785787 75.3231 0.694889 75.0634 0.694889C74.9465 0.694889 74.8426 0.714367 74.7518 0.753324C74.6609 0.779295 74.5635 0.824744 74.4596 0.889671ZM67.2916 0.539062V14.1738H66.8825V0.539062H67.2916ZM68.7135 13.8232L68.8109 14.1738H66.9799C66.9799 13.8622 66.9929 13.6285 67.0189 13.4726C67.0578 13.3038 67.0968 13.1869 67.1357 13.122C67.1747 13.0441 67.2072 13.0052 67.2331 13.0052C67.2721 13.0052 67.2916 13.0116 67.2916 13.0246C67.2916 13.3363 67.363 13.583 67.5058 13.7648C67.6487 13.9336 67.85 14.018 68.1097 14.018C68.2265 14.018 68.3304 14.005 68.4213 13.9791C68.5122 13.9401 68.6096 13.8882 68.7135 13.8232ZM65.4606 13.8232C65.5645 13.8882 65.6619 13.9401 65.7528 13.9791C65.8437 14.005 65.9476 14.018 66.0644 14.018C66.3242 14.018 66.5254 13.9336 66.6683 13.7648C66.8111 13.583 66.8825 13.3363 66.8825 13.0246C66.8825 13.0116 66.8955 13.0052 66.9215 13.0052C66.9604 13.0052 66.9994 13.0441 67.0384 13.122C67.0773 13.1869 67.1098 13.3038 67.1357 13.4726C67.1747 13.6285 67.1942 13.8622 67.1942 14.1738H65.3632L65.4606 13.8232ZM65.4411 0.889671L65.3438 0.539062H67.1747C67.1747 0.850715 67.1682 1.07796 67.1552 1.2208C67.1422 1.36364 67.1357 1.46103 67.1357 1.51298C67.1098 1.56492 67.0903 1.5779 67.0773 1.55193C67.0254 1.487 66.9669 1.40909 66.902 1.31819C66.8371 1.21431 66.7592 1.11692 66.6683 1.02602C66.5904 0.935121 66.4995 0.857208 66.3956 0.79228C66.2917 0.727353 66.1748 0.694889 66.045 0.694889C65.9281 0.694889 65.8242 0.714367 65.7333 0.753324C65.6424 0.779295 65.545 0.824744 65.4411 0.889671ZM76.2905 14.1738L66.3371 0.539062H67.8759L76.2905 12.3429V14.1738ZM76.2905 14.1738L75.8815 13.3752V0.539062H76.2905V14.1738ZM77.7124 0.889671C77.6086 0.824744 77.5112 0.779295 77.4203 0.753324C77.3294 0.714367 77.2255 0.694889 77.1086 0.694889C76.8489 0.694889 76.6476 0.785787 76.5048 0.967584C76.362 1.1364 76.2905 1.37663 76.2905 1.68828C76.2905 1.70127 76.2711 1.70776 76.2321 1.70776C76.2061 1.70776 76.1737 1.67529 76.1347 1.61037C76.0958 1.53245 76.0568 1.41558 76.0178 1.25976C75.9919 1.09095 75.9789 0.850715 75.9789 0.539062H77.8098L77.7124 0.889671ZM74.4596 0.889671L74.3622 0.539062H76.1931C76.1931 0.850715 76.1737 1.09095 76.1347 1.25976C76.1087 1.41558 76.0763 1.53245 76.0373 1.61037C75.9984 1.67529 75.9594 1.70776 75.9204 1.70776C75.8945 1.70776 75.8815 1.70127 75.8815 1.68828C75.8815 1.37663 75.8101 1.1364 75.6672 0.967584C75.5244 0.785787 75.3231 0.694889 75.0634 0.694889C74.9465 0.694889 74.8426 0.714367 74.7518 0.753324C74.6609 0.779295 74.5635 0.824744 74.4596 0.889671ZM67.2916 0.539062V14.1738H66.8825V0.539062H67.2916ZM68.7135 13.8232L68.8109 14.1738H66.9799C66.9799 13.8622 66.9929 13.6285 67.0189 13.4726C67.0578 13.3038 67.0968 13.1869 67.1357 13.122C67.1747 13.0441 67.2072 13.0052 67.2331 13.0052C67.2721 13.0052 67.2916 13.0116 67.2916 13.0246C67.2916 13.3363 67.363 13.583 67.5058 13.7648C67.6487 13.9336 67.85 14.018 68.1097 14.018C68.2265 14.018 68.3304 14.005 68.4213 13.9791C68.5122 13.9401 68.6096 13.8882 68.7135 13.8232ZM65.4606 13.8232C65.5645 13.8882 65.6619 13.9401 65.7528 13.9791C65.8437 14.005 65.9476 14.018 66.0644 14.018C66.3242 14.018 66.5254 13.9336 66.6683 13.7648C66.8111 13.583 66.8825 13.3363 66.8825 13.0246C66.8825 13.0116 66.8955 13.0052 66.9215 13.0052C66.9604 13.0052 66.9994 13.0441 67.0384 13.122C67.0773 13.1869 67.1098 13.3038 67.1357 13.4726C67.1747 13.6285 67.1942 13.8622 67.1942 14.1738H65.3632L65.4606 13.8232ZM65.4411 0.889671L65.3438 0.539062H67.1747C67.1747 0.850715 67.1682 1.07796 67.1552 1.2208C67.1422 1.36364 67.1357 1.46103 67.1357 1.51298C67.1098 1.56492 67.0903 1.5779 67.0773 1.55193C67.0254 1.487 66.9669 1.40909 66.902 1.31819C66.8371 1.21431 66.7592 1.11692 66.6683 1.02602C66.5904 0.935121 66.4995 0.857208 66.3956 0.79228C66.2917 0.727353 66.1748 0.694889 66.045 0.694889C65.9281 0.694889 65.8242 0.714367 65.7333 0.753324C65.6424 0.779295 65.545 0.824744 65.4411 0.889671Z" fill="white"/>
<path id="Vector_8" d="M60.3357 14.1738V1.96098V0.539062H61.8745V13.8427V14.1738H60.3357ZM58.9138 0.889671L58.8164 0.539062H61.8745C61.8355 0.616976 61.8096 0.675411 61.7966 0.714367C61.7966 0.753324 61.7966 0.811759 61.7966 0.889671C61.8096 0.954599 61.8225 1.0455 61.8355 1.16237C61.8615 1.27924 61.8745 1.45454 61.8745 1.68828C61.8745 1.74022 61.7901 1.77918 61.6213 1.80515C61.4654 1.83112 61.2901 1.84411 61.0954 1.84411C60.9136 1.84411 60.7383 1.83112 60.5694 1.80515C60.4136 1.77918 60.3357 1.74022 60.3357 1.68828C60.3357 1.37663 60.2643 1.1364 60.1214 0.967584C59.9786 0.785787 59.7773 0.694889 59.5176 0.694889C59.4008 0.694889 59.2969 0.714367 59.206 0.753324C59.1151 0.779295 59.0177 0.824744 58.9138 0.889671ZM58.8164 14.1738L58.9138 13.8232C59.0177 13.8882 59.1151 13.9401 59.206 13.9791C59.2969 14.005 59.4008 14.018 59.5176 14.018C59.6345 14.018 59.7449 13.9985 59.8488 13.9596C59.9526 13.9206 60.0435 13.8492 60.1214 13.7453C60.1864 13.6674 60.2383 13.57 60.2773 13.4532C60.3162 13.3363 60.3357 13.1934 60.3357 13.0246C60.3357 12.8428 60.4071 12.7649 60.55 12.7909C60.7058 12.8169 60.8876 12.8623 61.0954 12.9272C61.3161 12.8623 61.4979 12.8169 61.6408 12.7909C61.7966 12.7649 61.8745 12.8428 61.8745 13.0246C61.8745 13.3882 61.9524 13.6479 62.1082 13.8038C62.277 13.9466 62.4718 14.018 62.6926 14.018C62.8094 14.018 62.9133 14.005 63.0042 13.9791C63.0951 13.9401 63.1925 13.8882 63.2964 13.8232L63.3938 14.1738H58.8164ZM63.2964 0.889671C63.1925 0.824744 63.0951 0.779295 63.0042 0.753324C62.9133 0.714367 62.8094 0.694889 62.6926 0.694889C62.4329 0.694889 62.2316 0.785787 62.0888 0.967584C61.9459 1.1364 61.8745 1.37663 61.8745 1.68828C61.8745 1.74022 61.7901 1.77918 61.6213 1.80515C61.4654 1.83112 61.2901 1.84411 61.0954 1.84411C60.9136 1.84411 60.7383 1.83112 60.5694 1.80515C60.4136 1.77918 60.3357 1.74022 60.3357 1.68828C60.3357 1.45454 60.3422 1.27924 60.3552 1.16237C60.3812 1.0455 60.3941 0.954599 60.3941 0.889671C60.4071 0.811759 60.4071 0.753324 60.3941 0.714367C60.3941 0.675411 60.3747 0.616976 60.3357 0.539062H63.3938L63.2964 0.889671Z" fill="white"/>
<path id="Vector_9" d="M43.5974 0.539062H45.1362V0.870193V14.1738H43.5974V0.539062ZM42.0781 0.539062H46.6555L46.5581 0.889671C46.4542 0.824744 46.3568 0.779295 46.2659 0.753324C46.1751 0.714367 46.0712 0.694889 45.9543 0.694889C45.7335 0.694889 45.5388 0.772802 45.37 0.928629C45.2141 1.07147 45.1362 1.32469 45.1362 1.68828C45.1362 1.87008 45.0583 1.94799 44.9025 1.92202C44.7596 1.89605 44.5778 1.8506 44.3571 1.78567C44.1493 1.8506 43.9675 1.89605 43.8117 1.92202C43.6688 1.94799 43.5974 1.87008 43.5974 1.68828C43.5974 1.51947 43.578 1.37663 43.539 1.25976C43.5 1.14289 43.4481 1.0455 43.3832 0.967584C43.3053 0.8637 43.2144 0.79228 43.1105 0.753324C43.0066 0.714367 42.8962 0.694889 42.7793 0.694889C42.6625 0.694889 42.5586 0.714367 42.4677 0.753324C42.3768 0.779295 42.2794 0.824744 42.1755 0.889671L42.0781 0.539062ZM43.5974 0.539062H45.1362V0.870193V14.1738H43.5974V0.539062ZM42.0781 0.539062H46.6555L46.5581 0.889671C46.4542 0.824744 46.3568 0.779295 46.2659 0.753324C46.1751 0.714367 46.0712 0.694889 45.9543 0.694889C45.7335 0.694889 45.5388 0.772802 45.37 0.928629C45.2141 1.07147 45.1362 1.32469 45.1362 1.68828C45.1362 1.87008 45.0583 1.94799 44.9025 1.92202C44.7596 1.89605 44.5778 1.8506 44.3571 1.78567C44.1493 1.8506 43.9675 1.89605 43.8117 1.92202C43.6688 1.94799 43.5974 1.87008 43.5974 1.68828C43.5974 1.51947 43.578 1.37663 43.539 1.25976C43.5 1.14289 43.4481 1.0455 43.3832 0.967584C43.3053 0.8637 43.2144 0.79228 43.1105 0.753324C43.0066 0.714367 42.8962 0.694889 42.7793 0.694889C42.6625 0.694889 42.5586 0.714367 42.4677 0.753324C42.3768 0.779295 42.2794 0.824744 42.1755 0.889671L42.0781 0.539062ZM43.5974 13.7648V14.1738V13.7648ZM43.5974 13.7648H51.5835V14.1738H43.5974V13.7648ZM50.298 14.1738L48.6228 13.7648C48.8695 13.7648 49.1487 13.7453 49.4604 13.7064C49.772 13.6544 50.0512 13.5505 50.298 13.3947C50.5577 13.2389 50.7589 13.0051 50.9018 12.6935C51.0446 12.3818 51.0641 11.9663 50.9602 11.4469C50.9472 11.356 50.9213 11.2326 50.8823 11.0768C50.8433 10.908 50.7914 10.7457 50.7265 10.5898C50.6745 10.421 50.6161 10.2652 50.5512 10.1224C50.4862 9.96654 50.4148 9.84967 50.3369 9.77176L50.7654 9.57698L51.8173 14.1738H50.298Z" fill="white"/>
<path id="Vector_10" d="M37.074 14.1738V1.96098V0.539062H38.6128V13.8427V14.1738H37.074ZM35.6521 0.889671L35.5547 0.539062H38.6128C38.5738 0.616976 38.5478 0.675411 38.5349 0.714367C38.5349 0.753324 38.5349 0.811759 38.5349 0.889671C38.5478 0.954599 38.5608 1.0455 38.5738 1.16237C38.5998 1.27924 38.6128 1.45454 38.6128 1.68828C38.6128 1.74022 38.5284 1.77918 38.3596 1.80515C38.2037 1.83112 38.0284 1.84411 37.8336 1.84411C37.6518 1.84411 37.4765 1.83112 37.3077 1.80515C37.1519 1.77918 37.074 1.74022 37.074 1.68828C37.074 1.37663 37.0026 1.1364 36.8597 0.967584C36.7169 0.785787 36.5156 0.694889 36.2559 0.694889C36.139 0.694889 36.0351 0.714367 35.9443 0.753324C35.8534 0.779295 35.756 0.824744 35.6521 0.889671ZM35.5547 14.1738L35.6521 13.8232C35.756 13.8882 35.8534 13.9401 35.9443 13.9791C36.0351 14.005 36.139 14.018 36.2559 14.018C36.3728 14.018 36.4831 13.9985 36.587 13.9596C36.6909 13.9206 36.7818 13.8492 36.8597 13.7453C36.9247 13.6674 36.9766 13.57 37.0156 13.4532C37.0545 13.3363 37.074 13.1934 37.074 13.0246C37.074 12.8428 37.1454 12.7649 37.2883 12.7909C37.4441 12.8169 37.6259 12.8623 37.8336 12.9272C38.0544 12.8623 38.2362 12.8169 38.379 12.7909C38.5349 12.7649 38.6128 12.8428 38.6128 13.0246C38.6128 13.3882 38.6907 13.6479 38.8465 13.8038C39.0153 13.9466 39.2101 14.018 39.4309 14.018C39.5477 14.018 39.6516 14.005 39.7425 13.9791C39.8334 13.9401 39.9308 13.8882 40.0347 13.8232L40.1321 14.1738H35.5547ZM40.0347 0.889671C39.9308 0.824744 39.8334 0.779295 39.7425 0.753324C39.6516 0.714367 39.5477 0.694889 39.4309 0.694889C39.1712 0.694889 38.9699 0.785787 38.827 0.967584C38.6842 1.1364 38.6128 1.37663 38.6128 1.68828C38.6128 1.74022 38.5284 1.77918 38.3596 1.80515C38.2037 1.83112 38.0284 1.84411 37.8336 1.84411C37.6518 1.84411 37.4765 1.83112 37.3077 1.80515C37.1519 1.77918 37.074 1.74022 37.074 1.68828C37.074 1.45454 37.0805 1.27924 37.0935 1.16237C37.1194 1.0455 37.1324 0.954599 37.1324 0.889671C37.1454 0.811759 37.1454 0.753324 37.1324 0.714367C37.1324 0.675411 37.1129 0.616976 37.074 0.539062H40.1321L40.0347 0.889671Z" fill="white"/>
<path id="Vector_11" d="M18.9771 5.83667C18.9771 6.87551 19.1589 7.86241 19.5225 8.79737C19.8991 9.71934 20.399 10.5309 21.0223 11.2322C21.6457 11.9204 22.3599 12.4723 23.165 12.8878C23.983 13.2904 24.8271 13.4916 25.6971 13.4916C26.3334 13.4916 26.9048 13.3942 27.4112 13.1995C27.9306 12.9917 28.3851 12.719 28.7747 12.3814C29.1643 12.0437 29.4889 11.6542 29.7486 11.2127C30.0083 10.7582 30.1966 10.2842 30.3135 9.79076C30.3005 9.79076 30.333 9.79076 30.4109 9.79076C30.5018 9.77777 30.5992 9.77128 30.703 9.77128C30.8199 9.77128 30.9563 9.77128 31.1121 9.77128C30.8654 10.4206 30.5277 11.0179 30.0992 11.5633C29.6707 12.0957 29.1772 12.5567 28.6189 12.9462C28.0605 13.3358 27.4437 13.641 26.7684 13.8617C26.1062 14.0825 25.405 14.1928 24.6648 14.1928C23.7168 14.1928 22.8208 14.0111 21.9768 13.6475C21.1327 13.2839 20.399 12.7904 19.7757 12.1671C19.1524 11.5438 18.659 10.8101 18.2954 9.96606C17.9318 9.12201 17.75 8.22601 17.75 7.27806C17.75 6.31714 17.9318 5.42114 18.2954 4.59006C18.659 3.74601 19.1524 3.01233 19.7757 2.38902C20.399 1.76572 21.1327 1.27227 21.9768 0.908672C22.8208 0.545078 23.7168 0.363281 24.6648 0.363281C25.4179 0.363281 26.1321 0.480151 26.8074 0.71389C27.4956 0.934644 28.1189 1.2463 28.6773 1.64885C29.2487 2.0514 29.7486 2.53835 30.1771 3.10972C30.6057 3.66809 30.9368 4.27841 31.1705 4.94067C30.8848 4.59006 30.5732 4.32386 30.2356 4.14206C29.9109 3.94728 29.5993 3.80444 29.3006 3.71354C28.95 3.60966 28.5994 3.55122 28.2488 3.53824C28.093 3.18763 27.8722 2.8565 27.5865 2.54485C27.3138 2.23319 26.9892 1.96699 26.6126 1.74624C26.249 1.52548 25.84 1.35018 25.3855 1.22032C24.944 1.07748 24.483 1.00606 24.0025 1.00606C23.3532 1.00606 22.7235 1.10346 22.1131 1.29824C21.5158 1.49302 20.9834 1.79169 20.5159 2.19424C20.0484 2.5838 19.6719 3.08375 19.3862 3.69406C19.1135 4.30438 18.9771 5.01859 18.9771 5.83667ZM31.1121 9.77128L29.0279 12.1866C29.1967 11.9788 29.3461 11.7386 29.4759 11.4659C29.6058 11.1802 29.6707 10.8815 29.6707 10.5699C29.6707 10.2712 29.5798 9.97256 29.398 9.67389C29.2162 9.37522 28.8786 9.11551 28.3851 8.89476C28.3072 8.8558 28.1903 8.81035 28.0345 8.75841C27.8787 8.69349 27.7164 8.63505 27.5476 8.58311C27.3788 8.53117 27.2099 8.49221 27.0411 8.46624C26.8853 8.42728 26.7554 8.42079 26.6516 8.44676L26.749 7.97928L31.1121 9.77128ZM31.1121 9.77128L33.6053 13.7643L33.1768 13.9396C33.1768 13.8357 33.1443 13.7059 33.0794 13.5501C33.0275 13.3942 32.9625 13.2384 32.8846 13.0826C32.8067 12.9138 32.7223 12.7644 32.6314 12.6346C32.5535 12.4917 32.4886 12.3814 32.4366 12.3035C32.1379 11.8619 31.8393 11.5698 31.5406 11.4269C31.2419 11.2841 30.9433 11.2386 30.6446 11.2906C30.4888 11.3166 30.3589 11.3685 30.255 11.4464C30.1641 11.5113 30.0732 11.5957 29.9823 11.6996C29.8914 11.8035 29.7941 11.9139 29.6902 12.0308C29.5863 12.1476 29.4564 12.271 29.3006 12.4008L31.1121 9.77128Z" fill="white"/>
<path id="Vector_12" d="M12.7459 14.1738V1.96098V0.539062H14.2847V13.8427V14.1738H12.7459ZM11.324 0.889671L11.2266 0.539062H14.2847C14.2457 0.616976 14.2197 0.675411 14.2067 0.714367C14.2067 0.753324 14.2067 0.811759 14.2067 0.889671C14.2197 0.954599 14.2327 1.0455 14.2457 1.16237C14.2717 1.27924 14.2847 1.45454 14.2847 1.68828C14.2847 1.74022 14.2002 1.77918 14.0314 1.80515C13.8756 1.83112 13.7003 1.84411 13.5055 1.84411C13.3237 1.84411 13.1484 1.83112 12.9796 1.80515C12.8238 1.77918 12.7459 1.74022 12.7459 1.68828C12.7459 1.37663 12.6744 1.1364 12.5316 0.967584C12.3888 0.785787 12.1875 0.694889 11.9278 0.694889C11.8109 0.694889 11.707 0.714367 11.6161 0.753324C11.5252 0.779295 11.4278 0.824744 11.324 0.889671ZM11.2266 14.1738L11.324 13.8232C11.4278 13.8882 11.5252 13.9401 11.6161 13.9791C11.707 14.005 11.8109 14.018 11.9278 14.018C12.0447 14.018 12.155 13.9985 12.2589 13.9596C12.3628 13.9206 12.4537 13.8492 12.5316 13.7453C12.5965 13.6674 12.6485 13.57 12.6874 13.4532C12.7264 13.3363 12.7459 13.1934 12.7459 13.0246C12.7459 12.8428 12.8173 12.7649 12.9601 12.7909C13.116 12.8169 13.2978 12.8623 13.5055 12.9272C13.7263 12.8623 13.9081 12.8169 14.0509 12.7909C14.2067 12.7649 14.2847 12.8428 14.2847 13.0246C14.2847 13.3882 14.3626 13.6479 14.5184 13.8038C14.6872 13.9466 14.882 14.018 15.1027 14.018C15.2196 14.018 15.3235 14.005 15.4144 13.9791C15.5053 13.9401 15.6027 13.8882 15.7066 13.8232L15.804 14.1738H11.2266ZM15.7066 0.889671C15.6027 0.824744 15.5053 0.779295 15.4144 0.753324C15.3235 0.714367 15.2196 0.694889 15.1027 0.694889C14.843 0.694889 14.6418 0.785787 14.4989 0.967584C14.3561 1.1364 14.2847 1.37663 14.2847 1.68828C14.2847 1.74022 14.2002 1.77918 14.0314 1.80515C13.8756 1.83112 13.7003 1.84411 13.5055 1.84411C13.3237 1.84411 13.1484 1.83112 12.9796 1.80515C12.8238 1.77918 12.7459 1.74022 12.7459 1.68828C12.7459 1.45454 12.7524 1.27924 12.7653 1.16237C12.7913 1.0455 12.8043 0.954599 12.8043 0.889671C12.8173 0.811759 12.8173 0.753324 12.8043 0.714367C12.8043 0.675411 12.7848 0.616976 12.7459 0.539062H15.804L15.7066 0.889671Z" fill="white"/>
<path id="Vector_13" d="M4.33543 13.6477C4.99769 13.6866 5.64697 13.6087 6.28326 13.414C6.91955 13.2062 7.41949 12.8945 7.78308 12.479C8.05578 12.1803 8.22459 11.8557 8.28952 11.5051C8.35445 11.1545 8.34146 10.8104 8.25056 10.4727C8.17265 10.1351 8.02332 9.81697 7.80256 9.5183C7.59479 9.21963 7.34807 8.96642 7.06239 8.75865C6.77671 8.55088 6.4261 8.33013 6.01056 8.09639C5.60801 7.84966 5.19247 7.58995 4.76395 7.31726C4.34842 7.04456 3.95236 6.76537 3.57578 6.47969C3.1992 6.18102 2.89404 5.88236 2.6603 5.58369C2.21879 5.01233 1.97856 4.4085 1.9396 3.77221C1.90065 3.12294 2.01752 2.5256 2.29021 1.98021C2.57589 1.43482 2.98494 0.98682 3.51734 0.636212C4.06274 0.272617 4.69253 0.0908203 5.40674 0.0908203C5.84824 0.0908203 6.23781 0.142762 6.57543 0.246647C6.92604 0.350531 7.21821 0.460908 7.45195 0.577777C7.73763 0.720618 7.99085 0.882937 8.21161 1.06473L7.27665 5.13569L6.84813 4.94091C6.92604 4.86299 6.99746 4.75262 7.06239 4.60978C7.12732 4.45395 7.18575 4.29813 7.23769 4.1423C7.30262 3.97349 7.35456 3.81117 7.39352 3.65534C7.43247 3.48653 7.45845 3.35668 7.47143 3.26578C7.54934 2.83726 7.54285 2.46717 7.45195 2.15552C7.36105 1.83088 7.21172 1.56468 7.00395 1.35691C6.79618 1.13615 6.54946 0.973836 6.26378 0.869951C5.9781 0.753082 5.67943 0.681661 5.36778 0.655691C5.09508 0.629719 4.82239 0.636212 4.54969 0.675169C4.28998 0.714125 4.04326 0.792037 3.80952 0.908907C3.57578 1.01279 3.36801 1.16212 3.18621 1.35691C3.00442 1.55169 2.86807 1.80491 2.77717 2.11656C2.62134 2.66195 2.60187 3.14891 2.71874 3.57743C2.8356 3.99297 3.03688 4.36955 3.32256 4.70717C3.62123 5.04479 3.97833 5.34346 4.39387 5.60317C4.8094 5.86288 5.23143 6.10311 5.65995 6.32386C6.10146 6.54462 6.517 6.75239 6.90656 6.94717C7.30911 7.14195 7.63375 7.33673 7.88048 7.53152C8.2181 7.79123 8.51027 8.10937 8.757 8.48595C9.01671 8.86253 9.17903 9.27807 9.24395 9.73256C9.32187 10.1871 9.28291 10.674 9.12708 11.1934C8.97126 11.6999 8.64662 12.2193 8.15317 12.7517C7.71166 13.2192 7.15978 13.5893 6.49752 13.862C5.84824 14.1346 5.10807 14.271 4.277 14.271C3.77056 14.271 3.32905 14.232 2.95247 14.1541C2.57589 14.0762 2.26424 13.9853 2.01752 13.8814C1.73184 13.7775 1.48511 13.6542 1.27734 13.5113L2.19282 9.57673L2.62134 9.77152C2.54343 9.84943 2.47201 9.9663 2.40708 10.1221C2.34216 10.265 2.27723 10.4208 2.2123 10.5896C2.16036 10.7454 2.11491 10.9077 2.07595 11.0766C2.037 11.2324 2.01103 11.3557 1.99804 11.4466C1.92013 11.8752 1.9396 12.2323 2.05647 12.518C2.18633 12.7906 2.36813 13.0114 2.60187 13.1802C2.8356 13.336 3.1083 13.4464 3.41995 13.5113C3.73161 13.5763 4.03676 13.6217 4.33543 13.6477Z" fill="white"/>
</g>
<g id="TAMMY TANUKA">
<path id="Vector_14" d="M97.1198 28.7945L97.1789 28.5698C97.242 28.6092 97.3011 28.6407 97.3563 28.6644C97.4115 28.688 97.4785 28.6999 97.5574 28.6999C97.7466 28.6999 97.8885 28.6407 97.9831 28.5225C98.0777 28.3963 98.0935 28.2189 98.0304 27.9903L95.8899 20.7527C96.0476 20.666 96.1855 20.5517 96.3038 20.4098C96.43 20.26 96.5206 20.0944 96.5758 19.9131L99.012 28.0731C99.0751 28.2623 99.1342 28.416 99.1894 28.5343C99.2525 28.6447 99.3628 28.6999 99.5205 28.6999C99.5915 28.6999 99.6545 28.688 99.7097 28.6644C99.7728 28.6407 99.8359 28.6092 99.8989 28.5698L99.9581 28.7945H97.1198ZM92.957 28.7827L93.0162 28.5698C93.0792 28.6092 93.1384 28.6407 93.1936 28.6644C93.2487 28.6802 93.3118 28.688 93.3828 28.688C93.5168 28.688 93.6232 28.6447 93.7021 28.558C93.7809 28.4633 93.8519 28.3136 93.9149 28.1086L94.2224 27.9903L94.0214 28.7827H93.5838H92.957ZM94.0569 28.6644H93.7612L95.8899 20.7527H96.0082L94.0569 28.6644ZM94.9675 28.7827H93.7257L93.9149 28.1086L94.1988 28.0967C94.1357 28.3017 94.1436 28.4515 94.2224 28.5461C94.3013 28.6407 94.4077 28.688 94.5417 28.688C94.6285 28.688 94.7033 28.6723 94.7664 28.6407C94.8295 28.6092 94.8768 28.5856 94.9083 28.5698L94.9675 28.7827ZM94.6245 26.2282V26.1336L97.7348 25.9799V26.2282H94.6245Z" fill="white"/>
<path id="Vector_15" d="M89.194 20.7178L89.1349 20.5049H90.5185H91.1453L91.0862 20.7178C91.0231 20.6783 90.9561 20.6507 90.8851 20.635C90.822 20.6113 90.755 20.5995 90.6841 20.5995C90.55 20.5995 90.4042 20.6389 90.2465 20.7178C90.0967 20.7966 89.943 20.9188 89.7853 21.0844L89.5606 21.0371C89.671 20.9267 89.7419 20.8281 89.7735 20.7414C89.8129 20.6468 89.7419 20.5995 89.5606 20.5995C89.4739 20.5995 89.399 20.6153 89.3359 20.6468C89.2728 20.6783 89.2255 20.702 89.194 20.7178ZM85.5279 28.7831V21.3682V20.5049H86.4622V28.5821V28.7831H85.5279ZM84.6646 20.7178L84.6055 20.5049H86.4622C86.4385 20.5522 86.4227 20.5877 86.4149 20.6113C86.4149 20.635 86.4149 20.6704 86.4149 20.7178C86.4227 20.7572 86.4306 20.8124 86.4385 20.8833C86.4543 20.9543 86.4622 21.0607 86.4622 21.2026C86.4622 21.2342 86.4109 21.2578 86.3084 21.2736C86.2138 21.2893 86.1074 21.2972 85.9891 21.2972C85.8787 21.2972 85.7723 21.2893 85.6698 21.2736C85.5752 21.2578 85.5279 21.2342 85.5279 21.2026C85.5279 21.0134 85.4845 20.8675 85.3978 20.7651C85.3111 20.6547 85.1889 20.5995 85.0312 20.5995C84.9603 20.5995 84.8972 20.6113 84.842 20.635C84.7868 20.6507 84.7277 20.6783 84.6646 20.7178ZM84.6055 28.7831L84.6646 28.5703C84.7277 28.6097 84.7868 28.6412 84.842 28.6649C84.8972 28.6807 84.9603 28.6885 85.0312 28.6885C85.1022 28.6885 85.1692 28.6767 85.2323 28.6531C85.2953 28.6294 85.3505 28.586 85.3978 28.523C85.4372 28.4757 85.4688 28.4165 85.4924 28.3456C85.5161 28.2746 85.5279 28.1879 85.5279 28.0854C85.5279 27.975 85.5713 27.9277 85.658 27.9435C85.7526 27.9593 85.863 27.9869 85.9891 28.0263C86.1231 27.9869 86.2335 27.9593 86.3203 27.9435C86.4149 27.9277 86.4622 27.975 86.4622 28.0854C86.4622 28.3062 86.5095 28.4638 86.6041 28.5584C86.7066 28.6452 86.8248 28.6885 86.9589 28.6885C87.0298 28.6885 87.0929 28.6807 87.1481 28.6649C87.2033 28.6412 87.2624 28.6097 87.3255 28.5703L87.3846 28.7831H84.6055ZM87.3255 20.7178C87.2624 20.6783 87.2033 20.6507 87.1481 20.635C87.0929 20.6113 87.0298 20.5995 86.9589 20.5995C86.8012 20.5995 86.679 20.6547 86.5923 20.7651C86.5055 20.8675 86.4622 21.0134 86.4622 21.2026C86.4622 21.2342 86.4109 21.2578 86.3084 21.2736C86.2138 21.2893 86.1074 21.2972 85.9891 21.2972C85.8787 21.2972 85.7723 21.2893 85.6698 21.2736C85.5752 21.2578 85.5279 21.2342 85.5279 21.2026C85.5279 21.0607 85.5318 20.9543 85.5397 20.8833C85.5555 20.8124 85.5634 20.7572 85.5634 20.7178C85.5713 20.6704 85.5713 20.635 85.5634 20.6113C85.5634 20.5877 85.5516 20.5522 85.5279 20.5049H87.3846L87.3255 20.7178ZM89.7971 28.7831L86.7933 23.9463L87.4083 23.3668L90.7314 28.5821V28.7831H89.7971ZM88.8747 28.7831L88.9338 28.5703C88.9969 28.6097 89.056 28.6412 89.1112 28.6649C89.1664 28.6807 89.2295 28.6885 89.3004 28.6885C89.4818 28.6885 89.5645 28.6294 89.5488 28.5111C89.533 28.3929 89.4739 28.2549 89.3714 28.0972C89.3477 28.0578 89.3832 28.0302 89.4778 28.0144C89.5803 27.9908 89.6946 27.979 89.8208 27.979C89.9548 27.979 90.081 27.9869 90.1992 28.0026C90.3175 28.0184 90.3884 28.046 90.4121 28.0854C90.5225 28.2667 90.6525 28.4126 90.8023 28.523C90.9521 28.6333 91.094 28.6885 91.2281 28.6885C91.299 28.6885 91.3621 28.6807 91.4173 28.6649C91.4725 28.6412 91.5316 28.6097 91.5947 28.5703L91.6538 28.7831H88.8747ZM86.0128 24.5021L90.1046 20.5049H90.3766L86.2848 24.5021H86.0128Z" fill="white"/>
<path id="Vector_16" d="M79.6961 28.7831C79.2388 28.7831 78.821 28.7161 78.4426 28.5821C78.072 28.4402 77.7527 28.247 77.4846 28.0026C77.2245 27.7503 77.0195 27.4547 76.8697 27.1157C76.7278 26.7767 76.6568 26.41 76.6568 26.0158V20.5049H77.5911V20.7059V26.1104C77.6068 26.4022 77.6541 26.6899 77.733 26.9738C77.8197 27.2576 77.9459 27.5099 78.1114 27.7306C78.2849 27.9514 78.4977 28.1327 78.75 28.2746C79.0102 28.4087 79.3177 28.4796 79.6725 28.4875C80.0036 28.4954 80.315 28.4481 80.6067 28.3456C80.8984 28.2352 81.1547 28.0815 81.3754 27.8844C81.5962 27.6794 81.7736 27.435 81.9076 27.1511C82.0495 26.8594 82.1244 26.5362 82.1323 26.1814H82.3806C82.3806 26.4652 82.3294 26.7609 82.2269 27.0684C82.1323 27.368 81.9785 27.6478 81.7657 27.908C81.5528 28.1603 81.2769 28.3692 80.9379 28.5348C80.5988 28.7004 80.1849 28.7831 79.6961 28.7831ZM75.7344 20.5049H78.5135L78.4544 20.7178C78.3913 20.6783 78.3322 20.6507 78.277 20.635C78.2218 20.6113 78.1587 20.5995 78.0878 20.5995C77.9537 20.5995 77.8355 20.6468 77.733 20.7414C77.6384 20.8281 77.5911 20.9819 77.5911 21.2026C77.5911 21.313 77.5438 21.3603 77.4492 21.3445C77.3624 21.3288 77.2521 21.3012 77.118 21.2618C76.9919 21.3012 76.8815 21.3288 76.7869 21.3445C76.7002 21.3603 76.6568 21.313 76.6568 21.2026C76.6568 21.1001 76.645 21.0134 76.6213 20.9424C76.5977 20.8715 76.5661 20.8124 76.5267 20.7651C76.4794 20.702 76.4242 20.6586 76.3612 20.635C76.2981 20.6113 76.2311 20.5995 76.1601 20.5995C76.0892 20.5995 76.0261 20.6113 75.9709 20.635C75.9157 20.6507 75.8566 20.6783 75.7935 20.7178L75.7344 20.5049ZM82.1323 26.1814V20.5049H82.3806V26.1814H82.1323ZM81.2099 20.5049H82.3688V21.2144C82.3215 21.246 82.2821 21.2696 82.2506 21.2854C82.219 21.3012 82.1914 21.3051 82.1678 21.2972C82.1441 21.2893 82.1323 21.2578 82.1323 21.2026C82.1323 21.1001 82.1205 21.0134 82.0968 20.9424C82.0732 20.8715 82.0416 20.8124 82.0022 20.7651C81.947 20.702 81.8879 20.6586 81.8248 20.635C81.7696 20.6113 81.7066 20.5995 81.6356 20.5995C81.5646 20.5995 81.5016 20.6113 81.4464 20.635C81.3912 20.6507 81.3321 20.6783 81.269 20.7178L81.2099 20.5049ZM83.3031 20.5049L83.2439 20.7178C83.1809 20.6783 83.1217 20.6507 83.0665 20.635C83.0114 20.6113 82.9483 20.5995 82.8773 20.5995C82.8064 20.5995 82.7394 20.6113 82.6763 20.635C82.6211 20.6586 82.5659 20.702 82.5107 20.7651C82.4713 20.8124 82.4398 20.8715 82.4161 20.9424C82.3925 21.0134 82.3806 21.1001 82.3806 21.2026C82.3806 21.2578 82.3688 21.2893 82.3452 21.2972C82.3215 21.3051 82.2939 21.3012 82.2624 21.2854C82.2308 21.2696 82.1914 21.246 82.1441 21.2144V20.5049H83.3031Z" fill="white"/>
<path id="Vector_17" d="M73.5056 28.7831L67.4625 20.5049H68.3968L73.5056 27.6715V28.7831ZM73.5056 28.7831L73.2573 28.2983V20.5049H73.5056V28.7831ZM74.3689 20.7178C74.3059 20.6783 74.2467 20.6507 74.1915 20.635C74.1364 20.6113 74.0733 20.5995 74.0023 20.5995C73.8447 20.5995 73.7225 20.6547 73.6357 20.7651C73.549 20.8675 73.5056 21.0134 73.5056 21.2026C73.5056 21.2105 73.4938 21.2144 73.4702 21.2144C73.4544 21.2144 73.4347 21.1947 73.411 21.1553C73.3874 21.108 73.3637 21.0371 73.3401 20.9424C73.3243 20.84 73.3164 20.6941 73.3164 20.5049H74.4281L74.3689 20.7178ZM72.394 20.7178L72.3349 20.5049H73.4465C73.4465 20.6941 73.4347 20.84 73.411 20.9424C73.3953 21.0371 73.3755 21.108 73.3519 21.1553C73.3282 21.1947 73.3046 21.2144 73.2809 21.2144C73.2652 21.2144 73.2573 21.2105 73.2573 21.2026C73.2573 21.0134 73.2139 20.8675 73.1272 20.7651C73.0405 20.6547 72.9183 20.5995 72.7606 20.5995C72.6896 20.5995 72.6266 20.6113 72.5714 20.635C72.5162 20.6507 72.4571 20.6783 72.394 20.7178ZM68.042 20.5049V28.7831H67.7936V20.5049H68.042ZM68.9053 28.5703L68.9644 28.7831H67.8528C67.8528 28.5939 67.8606 28.452 67.8764 28.3574C67.9001 28.2549 67.9237 28.184 67.9474 28.1445C67.971 28.0972 67.9907 28.0736 68.0065 28.0736C68.0302 28.0736 68.042 28.0775 68.042 28.0854C68.042 28.2746 68.0853 28.4244 68.1721 28.5348C68.2588 28.6373 68.381 28.6885 68.5387 28.6885C68.6096 28.6885 68.6727 28.6807 68.7279 28.6649C68.7831 28.6412 68.8422 28.6097 68.9053 28.5703ZM66.9303 28.5703C66.9934 28.6097 67.0525 28.6412 67.1077 28.6649C67.1629 28.6807 67.226 28.6885 67.2969 28.6885C67.4546 28.6885 67.5768 28.6373 67.6635 28.5348C67.7503 28.4244 67.7936 28.2746 67.7936 28.0854C67.7936 28.0775 67.8015 28.0736 67.8173 28.0736C67.8409 28.0736 67.8646 28.0972 67.8882 28.1445C67.9119 28.184 67.9316 28.2549 67.9474 28.3574C67.971 28.452 67.9829 28.5939 67.9829 28.7831H66.8712L66.9303 28.5703ZM66.9185 20.7178L66.8594 20.5049H67.971C67.971 20.6941 67.9671 20.8321 67.9592 20.9188C67.9513 21.0055 67.9474 21.0647 67.9474 21.0962C67.9316 21.1277 67.9198 21.1356 67.9119 21.1198C67.8804 21.0804 67.8449 21.0331 67.8055 20.9779C67.766 20.9149 67.7187 20.8557 67.6635 20.8005C67.6162 20.7453 67.5611 20.698 67.498 20.6586C67.4349 20.6192 67.364 20.5995 67.2851 20.5995C67.2142 20.5995 67.1511 20.6113 67.0959 20.635C67.0407 20.6507 66.9816 20.6783 66.9185 20.7178ZM73.5056 28.7831L67.4625 20.5049H68.3968L73.5056 27.6715V28.7831ZM73.5056 28.7831L73.2573 28.2983V20.5049H73.5056V28.7831ZM74.3689 20.7178C74.3059 20.6783 74.2467 20.6507 74.1915 20.635C74.1364 20.6113 74.0733 20.5995 74.0023 20.5995C73.8447 20.5995 73.7225 20.6547 73.6357 20.7651C73.549 20.8675 73.5056 21.0134 73.5056 21.2026C73.5056 21.2105 73.4938 21.2144 73.4702 21.2144C73.4544 21.2144 73.4347 21.1947 73.411 21.1553C73.3874 21.108 73.3637 21.0371 73.3401 20.9424C73.3243 20.84 73.3164 20.6941 73.3164 20.5049H74.4281L74.3689 20.7178ZM72.394 20.7178L72.3349 20.5049H73.4465C73.4465 20.6941 73.4347 20.84 73.411 20.9424C73.3953 21.0371 73.3755 21.108 73.3519 21.1553C73.3282 21.1947 73.3046 21.2144 73.2809 21.2144C73.2652 21.2144 73.2573 21.2105 73.2573 21.2026C73.2573 21.0134 73.2139 20.8675 73.1272 20.7651C73.0405 20.6547 72.9183 20.5995 72.7606 20.5995C72.6896 20.5995 72.6266 20.6113 72.5714 20.635C72.5162 20.6507 72.4571 20.6783 72.394 20.7178ZM68.042 20.5049V28.7831H67.7936V20.5049H68.042ZM68.9053 28.5703L68.9644 28.7831H67.8528C67.8528 28.5939 67.8606 28.452 67.8764 28.3574C67.9001 28.2549 67.9237 28.184 67.9474 28.1445C67.971 28.0972 67.9907 28.0736 68.0065 28.0736C68.0302 28.0736 68.042 28.0775 68.042 28.0854C68.042 28.2746 68.0853 28.4244 68.1721 28.5348C68.2588 28.6373 68.381 28.6885 68.5387 28.6885C68.6096 28.6885 68.6727 28.6807 68.7279 28.6649C68.7831 28.6412 68.8422 28.6097 68.9053 28.5703ZM66.9303 28.5703C66.9934 28.6097 67.0525 28.6412 67.1077 28.6649C67.1629 28.6807 67.226 28.6885 67.2969 28.6885C67.4546 28.6885 67.5768 28.6373 67.6635 28.5348C67.7503 28.4244 67.7936 28.2746 67.7936 28.0854C67.7936 28.0775 67.8015 28.0736 67.8173 28.0736C67.8409 28.0736 67.8646 28.0972 67.8882 28.1445C67.9119 28.184 67.9316 28.2549 67.9474 28.3574C67.971 28.452 67.9829 28.5939 67.9829 28.7831H66.8712L66.9303 28.5703ZM66.9185 20.7178L66.8594 20.5049H67.971C67.971 20.6941 67.9671 20.8321 67.9592 20.9188C67.9513 21.0055 67.9474 21.0647 67.9474 21.0962C67.9316 21.1277 67.9198 21.1356 67.9119 21.1198C67.8804 21.0804 67.8449 21.0331 67.8055 20.9779C67.766 20.9149 67.7187 20.8557 67.6635 20.8005C67.6162 20.7453 67.5611 20.698 67.498 20.6586C67.4349 20.6192 67.364 20.5995 67.2851 20.5995C67.2142 20.5995 67.1511 20.6113 67.0959 20.635C67.0407 20.6507 66.9816 20.6783 66.9185 20.7178Z" fill="white"/>
<path id="Vector_18" d="M62.7175 28.7945L62.7766 28.5698C62.8397 28.6092 62.8988 28.6407 62.954 28.6644C63.0092 28.688 63.0762 28.6999 63.155 28.6999C63.3443 28.6999 63.4862 28.6407 63.5808 28.5225C63.6754 28.3963 63.6912 28.2189 63.6281 27.9903L61.4876 20.7527C61.6452 20.666 61.7832 20.5517 61.9015 20.4098C62.0276 20.26 62.1183 20.0944 62.1735 19.9131L64.6096 28.0731C64.6727 28.2623 64.7318 28.416 64.787 28.5343C64.8501 28.6447 64.9605 28.6999 65.1182 28.6999C65.1891 28.6999 65.2522 28.688 65.3074 28.6644C65.3705 28.6407 65.4335 28.6092 65.4966 28.5698L65.5557 28.7945H62.7175ZM58.5547 28.7827L58.6138 28.5698C58.6769 28.6092 58.736 28.6407 58.7912 28.6644C58.8464 28.6802 58.9095 28.688 58.9804 28.688C59.1145 28.688 59.2209 28.6447 59.2997 28.558C59.3786 28.4633 59.4495 28.3136 59.5126 28.1086L59.8201 27.9903L59.619 28.7827H59.1815H58.5547ZM59.6545 28.6644H59.3589L61.4876 20.7527H61.6058L59.6545 28.6644ZM60.5651 28.7827H59.3234L59.5126 28.1086L59.7964 28.0967C59.7334 28.3017 59.7412 28.4515 59.8201 28.5461C59.8989 28.6407 60.0054 28.688 60.1394 28.688C60.2261 28.688 60.301 28.6723 60.3641 28.6407C60.4271 28.6092 60.4745 28.5856 60.506 28.5698L60.5651 28.7827ZM60.2222 26.2282V26.1336L63.3324 25.9799V26.2282H60.2222Z" fill="white"/>
<path id="Vector_19" d="M53.0142 28.7831V20.5049H53.9485V28.5821V28.7831H53.0142ZM52.0918 28.7831L52.1509 28.5703C52.214 28.6097 52.2731 28.6412 52.3283 28.6649C52.3835 28.6807 52.4466 28.6885 52.5175 28.6885C52.5885 28.6885 52.6555 28.6767 52.7186 28.6531C52.7816 28.6294 52.8368 28.586 52.8841 28.523C52.9235 28.4757 52.9551 28.4165 52.9787 28.3456C53.0024 28.2746 53.0142 28.1879 53.0142 28.0854C53.0142 27.975 53.0576 27.9277 53.1443 27.9435C53.2389 27.9593 53.3493 27.9869 53.4754 28.0263C53.6095 27.9869 53.7198 27.9593 53.8066 27.9435C53.9012 27.9277 53.9485 27.975 53.9485 28.0854C53.9485 28.3062 53.9958 28.4638 54.0904 28.5584C54.1929 28.6452 54.3111 28.6885 54.4452 28.6885C54.5161 28.6885 54.5792 28.6807 54.6344 28.6649C54.6896 28.6412 54.7487 28.6097 54.8118 28.5703L54.8709 28.7831H52.0918ZM50.0222 20.7532V20.5049H57.106V20.7532H54.8473H50.0222ZM50.649 20.5049L51.666 20.7532C51.5162 20.7532 51.3467 20.769 51.1575 20.8005C50.9683 20.8242 50.7949 20.8833 50.6372 20.9779C50.4874 21.0725 50.3691 21.2144 50.2824 21.4037C50.2036 21.585 50.1917 21.8373 50.2469 22.1605C50.2548 22.2157 50.2706 22.2946 50.2942 22.3971C50.3179 22.4917 50.3455 22.5902 50.377 22.6927C50.4164 22.7873 50.4558 22.8819 50.4953 22.9765C50.5347 23.0633 50.578 23.1303 50.6253 23.1776L50.3652 23.2958L49.7266 20.5049H50.649ZM56.3255 20.5049H57.248L56.6093 23.2958L56.3492 23.1776C56.3965 23.1303 56.4398 23.0633 56.4793 22.9765C56.5187 22.8819 56.5542 22.7873 56.5857 22.6927C56.6251 22.5902 56.6567 22.4917 56.6803 22.3971C56.704 22.2946 56.7197 22.2157 56.7276 22.1605C56.7907 21.8373 56.7789 21.585 56.6921 21.4037C56.6054 21.2144 56.4832 21.0725 56.3255 20.9779C56.1757 20.8833 56.0062 20.8242 55.817 20.8005C55.6278 20.769 55.4583 20.7532 55.3085 20.7532L56.3255 20.5049Z" fill="white"/>
<path id="Vector_20" d="M42.3265 20.5167L42.2674 20.7414C42.2043 20.702 42.1452 20.6704 42.09 20.6468C42.0348 20.6231 41.9678 20.6113 41.889 20.6113C41.6998 20.6113 41.5539 20.6744 41.4514 20.8005C41.3489 20.9188 41.3371 21.0922 41.4159 21.3209L42.8232 25.531L42.362 26.9738L40.4344 21.2381C40.3713 21.0489 40.3082 20.8991 40.2452 20.7887C40.19 20.6704 40.0835 20.6113 39.9258 20.6113C39.8549 20.6113 39.7879 20.6231 39.7248 20.6468C39.6696 20.6704 39.6105 20.702 39.5474 20.7414L39.4883 20.5167H42.3265ZM45.2358 20.5049L45.1766 20.7414C45.1136 20.702 45.0544 20.6744 44.9992 20.6586C44.9441 20.635 44.881 20.6231 44.81 20.6231C44.676 20.6231 44.5617 20.6665 44.4671 20.7532C44.3803 20.84 44.3054 20.9858 44.2424 21.1908L43.9704 21.3209L44.1714 20.5049H44.609H45.2358ZM43.994 21.2144L44.4198 20.6468L42.3147 27.1038L42.1728 27.092L43.994 21.2144ZM43.2253 20.5049H44.4671L44.1951 21.3091L43.994 21.2144C44.0571 21.0095 44.0492 20.8597 43.9704 20.7651C43.8915 20.6704 43.7851 20.6231 43.6511 20.6231C43.5643 20.6231 43.4894 20.6389 43.4264 20.6704C43.3633 20.702 43.316 20.7256 43.2845 20.7414L43.2253 20.5049ZM41.889 28.7831V25.5664H42.8232V28.5821V28.7831H41.889ZM40.9665 28.7831L41.0257 28.5703C41.0887 28.6097 41.1479 28.6412 41.2031 28.6649C41.2583 28.6807 41.3213 28.6885 41.3923 28.6885C41.4632 28.6885 41.5303 28.6767 41.5933 28.6531C41.6564 28.6294 41.7116 28.586 41.7589 28.523C41.7983 28.4757 41.8298 28.4165 41.8535 28.3456C41.8772 28.2746 41.889 28.1879 41.889 28.0854C41.889 27.975 41.9323 27.9277 42.0191 27.9435C42.1137 27.9593 42.2241 27.9869 42.3502 28.0263C42.4842 27.9869 42.5946 27.9593 42.6813 27.9435C42.7759 27.9277 42.8232 27.975 42.8232 28.0854C42.8232 28.3062 42.8705 28.4638 42.9652 28.5584C43.0676 28.6452 43.1859 28.6885 43.3199 28.6885C43.3909 28.6885 43.454 28.6807 43.5092 28.6649C43.5643 28.6412 43.6235 28.6097 43.6865 28.5703L43.7457 28.7831H40.9665ZM45.2358 20.5049L45.1766 20.7414C45.1136 20.702 45.0544 20.6744 44.9992 20.6586C44.9441 20.635 44.881 20.6231 44.81 20.6231C44.676 20.6231 44.5617 20.6665 44.4671 20.7532C44.3803 20.84 44.3054 20.9858 44.2424 21.1908L43.9704 21.3209L44.1714 20.5049H44.609H45.2358ZM43.994 21.2144L44.4198 20.6468L42.3147 27.1038L42.1728 27.092L43.994 21.2144ZM43.2253 20.5049H44.4671L44.1951 21.3091L43.994 21.2144C44.0571 21.0095 44.0492 20.8597 43.9704 20.7651C43.8915 20.6704 43.7851 20.6231 43.6511 20.6231C43.5643 20.6231 43.4894 20.6389 43.4264 20.6704C43.3633 20.702 43.316 20.7256 43.2845 20.7414L43.2253 20.5049Z" fill="white"/>
<path id="Vector_21" d="M30.3543 20.4922L30.6855 21.2964L33.5947 27.647C33.5001 27.8835 33.4212 28.0924 33.3582 28.2738C33.2951 28.4314 33.2399 28.5694 33.1926 28.6877C33.1453 28.8059 33.1295 28.8532 33.1453 28.8296L29.7039 21.2136C29.6172 21.0322 29.5502 20.8824 29.5029 20.7642C29.4556 20.6459 29.3531 20.5868 29.1954 20.5868C29.1244 20.5868 29.0574 20.5986 28.9943 20.6223C28.9391 20.6459 28.88 20.6775 28.8169 20.7169L28.7578 20.4922H30.3543ZM36.634 20.504H36.8114L33.4646 27.9308L33.299 27.9426L36.634 20.504ZM36.3265 28.7823V21.3673L36.7404 20.504H37.2608V28.5812V28.7823H36.3265ZM36.3265 21.2018L37.2608 20.504V21.2018C37.2608 21.2333 37.2095 21.2569 37.107 21.2727C37.0124 21.2885 36.906 21.2964 36.7877 21.2964C36.6774 21.2964 36.5709 21.2885 36.4684 21.2727C36.3738 21.2569 36.3265 21.2333 36.3265 21.2018ZM35.4041 28.7823L35.4632 28.5694C35.5263 28.6088 35.5854 28.6404 35.6406 28.664C35.6958 28.6798 35.7589 28.6877 35.8298 28.6877C35.9008 28.6877 35.9678 28.6758 36.0309 28.6522C36.0939 28.6285 36.1491 28.5852 36.1964 28.5221C36.2358 28.4748 36.2674 28.4157 36.291 28.3447C36.3147 28.2738 36.3265 28.187 36.3265 28.0845C36.3265 27.9742 36.3699 27.9269 36.4566 27.9426C36.5512 27.9584 36.6616 27.986 36.7877 28.0254C36.9218 27.986 37.0321 27.9584 37.1189 27.9426C37.2135 27.9269 37.2608 27.9742 37.2608 28.0845C37.2608 28.3053 37.3081 28.463 37.4027 28.5576C37.5052 28.6443 37.6234 28.6877 37.7575 28.6877C37.8284 28.6877 37.8915 28.6798 37.9467 28.664C38.0019 28.6404 38.061 28.6088 38.1241 28.5694L38.1832 28.7823H35.4041ZM38.1241 20.7169C38.061 20.6775 38.0019 20.6499 37.9467 20.6341C37.8915 20.6104 37.8284 20.5986 37.7575 20.5986C37.5998 20.5986 37.4776 20.6538 37.3909 20.7642C37.3041 20.8667 37.2608 21.0125 37.2608 21.2018C37.2608 21.2333 37.2095 21.2569 37.107 21.2727C37.0124 21.2885 36.906 21.2964 36.7877 21.2964C36.6774 21.2964 36.5709 21.2885 36.4684 21.2727C36.3738 21.2569 36.3265 21.2333 36.3265 21.2018L36.6931 20.504H38.1832L38.1241 20.7169ZM29.6802 20.4922H29.9286V28.7941H29.6802V20.4922ZM28.7578 28.7941L28.8169 28.5812C28.88 28.6207 28.9391 28.6522 28.9943 28.6758C29.0495 28.6916 29.1126 28.6995 29.1836 28.6995C29.2545 28.6995 29.3176 28.6877 29.3728 28.664C29.4358 28.6404 29.495 28.597 29.5502 28.5339C29.5896 28.4866 29.6211 28.4275 29.6448 28.3565C29.6684 28.2856 29.6802 28.1989 29.6802 28.0964C29.6802 28.0412 29.6921 28.0096 29.7157 28.0018C29.7394 27.9939 29.767 27.9978 29.7985 28.0136C29.83 28.0293 29.8695 28.053 29.9168 28.0845V28.7941H28.7578ZM30.851 28.7941H29.6921V28.0845C29.7394 28.053 29.7788 28.0293 29.8103 28.0136C29.8419 27.9978 29.8695 27.9939 29.8931 28.0018C29.9168 28.0096 29.9286 28.0412 29.9286 28.0964C29.9286 28.1989 29.9404 28.2856 29.9641 28.3565C29.9877 28.4275 30.0193 28.4866 30.0587 28.5339C30.1139 28.597 30.1691 28.6404 30.2242 28.664C30.2873 28.6877 30.3543 28.6995 30.4253 28.6995C30.4962 28.6995 30.5593 28.6916 30.6145 28.6758C30.6697 28.6522 30.7288 28.6207 30.7919 28.5812L30.851 28.7941Z" fill="white"/>
<path id="Vector_22" d="M19.6239 20.4922L19.955 21.2964L22.8642 27.647C22.7696 27.8835 22.6908 28.0924 22.6277 28.2738C22.5646 28.4314 22.5094 28.5694 22.4621 28.6877C22.4148 28.8059 22.3991 28.8532 22.4148 28.8296L18.9734 21.2136C18.8867 21.0322 18.8197 20.8824 18.7724 20.7642C18.7251 20.6459 18.6226 20.5868 18.4649 20.5868C18.394 20.5868 18.3269 20.5986 18.2639 20.6223C18.2087 20.6459 18.1495 20.6775 18.0865 20.7169L18.0273 20.4922H19.6239ZM25.9035 20.504H26.0809L22.7341 27.9308L22.5686 27.9426L25.9035 20.504ZM25.596 28.7823V21.3673L26.01 20.504H26.5303V28.5812V28.7823H25.596ZM25.596 21.2018L26.5303 20.504V21.2018C26.5303 21.2333 26.4791 21.2569 26.3766 21.2727C26.282 21.2885 26.1755 21.2964 26.0573 21.2964C25.9469 21.2964 25.8404 21.2885 25.738 21.2727C25.6433 21.2569 25.596 21.2333 25.596 21.2018ZM24.6736 28.7823L24.7327 28.5694C24.7958 28.6088 24.8549 28.6404 24.9101 28.664C24.9653 28.6798 25.0284 28.6877 25.0993 28.6877C25.1703 28.6877 25.2373 28.6758 25.3004 28.6522C25.3635 28.6285 25.4186 28.5852 25.466 28.5221C25.5054 28.4748 25.5369 28.4157 25.5606 28.3447C25.5842 28.2738 25.596 28.187 25.596 28.0845C25.596 27.9742 25.6394 27.9269 25.7261 27.9426C25.8207 27.9584 25.9311 27.986 26.0573 28.0254C26.1913 27.986 26.3017 27.9584 26.3884 27.9426C26.483 27.9269 26.5303 27.9742 26.5303 28.0845C26.5303 28.3053 26.5776 28.463 26.6722 28.5576C26.7747 28.6443 26.893 28.6877 27.027 28.6877C27.098 28.6877 27.161 28.6798 27.2162 28.664C27.2714 28.6404 27.3305 28.6088 27.3936 28.5694L27.4527 28.7823H24.6736ZM27.3936 20.7169C27.3305 20.6775 27.2714 20.6499 27.2162 20.6341C27.161 20.6104 27.098 20.5986 27.027 20.5986C26.8693 20.5986 26.7471 20.6538 26.6604 20.7642C26.5737 20.8667 26.5303 21.0125 26.5303 21.2018C26.5303 21.2333 26.4791 21.2569 26.3766 21.2727C26.282 21.2885 26.1755 21.2964 26.0573 21.2964C25.9469 21.2964 25.8404 21.2885 25.738 21.2727C25.6433 21.2569 25.596 21.2333 25.596 21.2018L25.9626 20.504H27.4527L27.3936 20.7169ZM18.9498 20.4922H19.1981V28.7941H18.9498V20.4922ZM18.0273 28.7941L18.0865 28.5812C18.1495 28.6207 18.2087 28.6522 18.2639 28.6758C18.3191 28.6916 18.3821 28.6995 18.4531 28.6995C18.524 28.6995 18.5871 28.6877 18.6423 28.664C18.7054 28.6404 18.7645 28.597 18.8197 28.5339C18.8591 28.4866 18.8906 28.4275 18.9143 28.3565C18.938 28.2856 18.9498 28.1989 18.9498 28.0964C18.9498 28.0412 18.9616 28.0096 18.9853 28.0018C19.0089 27.9939 19.0365 27.9978 19.068 28.0136C19.0996 28.0293 19.139 28.053 19.1863 28.0845V28.7941H18.0273ZM20.1206 28.7941H18.9616V28.0845C19.0089 28.053 19.0483 28.0293 19.0799 28.0136C19.1114 27.9978 19.139 27.9939 19.1626 28.0018C19.1863 28.0096 19.1981 28.0412 19.1981 28.0964C19.1981 28.1989 19.21 28.2856 19.2336 28.3565C19.2573 28.4275 19.2888 28.4866 19.3282 28.5339C19.3834 28.597 19.4386 28.6404 19.4938 28.664C19.5569 28.6877 19.6239 28.6995 19.6948 28.6995C19.7658 28.6995 19.8289 28.6916 19.884 28.6758C19.9392 28.6522 19.9984 28.6207 20.0614 28.5812L20.1206 28.7941Z" fill="white"/>
<path id="Vector_23" d="M13.8815 28.7945L13.9407 28.5698C14.0037 28.6092 14.0629 28.6407 14.1181 28.6644C14.1732 28.688 14.2403 28.6999 14.3191 28.6999C14.5083 28.6999 14.6502 28.6407 14.7448 28.5225C14.8394 28.3963 14.8552 28.2189 14.7921 27.9903L12.6516 20.7527C12.8093 20.666 12.9473 20.5517 13.0655 20.4098C13.1917 20.26 13.2823 20.0944 13.3375 19.9131L15.7737 28.0731C15.8368 28.2623 15.8959 28.416 15.9511 28.5343C16.0142 28.6447 16.1245 28.6999 16.2822 28.6999C16.3532 28.6999 16.4163 28.688 16.4714 28.6644C16.5345 28.6407 16.5976 28.6092 16.6607 28.5698L16.7198 28.7945H13.8815ZM9.71875 28.7827L9.77788 28.5698C9.84095 28.6092 9.90008 28.6407 9.95527 28.6644C10.0105 28.6802 10.0735 28.688 10.1445 28.688C10.2785 28.688 10.385 28.6447 10.4638 28.558C10.5426 28.4633 10.6136 28.3136 10.6767 28.1086L10.9841 27.9903L10.7831 28.7827H10.3455H9.71875ZM10.8186 28.6644H10.5229L12.6516 20.7527H12.7699L10.8186 28.6644ZM11.7292 28.7827H10.4874L10.6767 28.1086L10.9605 28.0967C10.8974 28.3017 10.9053 28.4515 10.9841 28.5461C11.063 28.6407 11.1694 28.688 11.3034 28.688C11.3902 28.688 11.4651 28.6723 11.5281 28.6407C11.5912 28.6092 11.6385 28.5856 11.6701 28.5698L11.7292 28.7827ZM11.3862 26.2282V26.1336L14.4965 25.9799V26.2282H11.3862Z" fill="white"/>
<path id="Vector_24" d="M4.18218 28.7831V20.5049H5.11644V28.5821V28.7831H4.18218ZM3.25975 28.7831L3.31888 28.5703C3.38195 28.6097 3.44108 28.6412 3.49627 28.6649C3.55146 28.6807 3.61453 28.6885 3.68549 28.6885C3.75644 28.6885 3.82346 28.6767 3.88653 28.6531C3.9496 28.6294 4.00479 28.586 4.0521 28.523C4.09152 28.4757 4.12305 28.4165 4.14671 28.3456C4.17036 28.2746 4.18218 28.1879 4.18218 28.0854C4.18218 27.975 4.22555 27.9277 4.31227 27.9435C4.40688 27.9593 4.51726 27.9869 4.6434 28.0263C4.77743 27.9869 4.88781 27.9593 4.97453 27.9435C5.06914 27.9277 5.11644 27.975 5.11644 28.0854C5.11644 28.3062 5.16375 28.4638 5.25836 28.5584C5.36085 28.6452 5.47911 28.6885 5.61314 28.6885C5.6841 28.6885 5.74717 28.6807 5.80236 28.6649C5.85755 28.6412 5.91668 28.6097 5.97975 28.5703L6.03888 28.7831H3.25975ZM1.19018 20.7532V20.5049H8.27401V20.7532H6.01523H1.19018ZM1.81697 20.5049L2.83401 20.7532C2.68421 20.7532 2.51471 20.769 2.32549 20.8005C2.13627 20.8242 1.96282 20.8833 1.80514 20.9779C1.65534 21.0725 1.53708 21.2144 1.45036 21.4037C1.37152 21.585 1.35969 21.8373 1.41488 22.1605C1.42276 22.2157 1.43853 22.2946 1.46218 22.3971C1.48584 22.4917 1.51343 22.5902 1.54497 22.6927C1.58439 22.7873 1.62381 22.8819 1.66323 22.9765C1.70265 23.0633 1.74601 23.1303 1.79331 23.1776L1.53314 23.2958L0.894531 20.5049H1.81697ZM7.49349 20.5049H8.41592L7.77731 23.2958L7.51714 23.1776C7.56444 23.1303 7.60781 23.0633 7.64723 22.9765C7.68665 22.8819 7.72213 22.7873 7.75366 22.6927C7.79308 22.5902 7.82462 22.4917 7.84827 22.3971C7.87192 22.2946 7.88769 22.2157 7.89558 22.1605C7.95865 21.8373 7.94682 21.585 7.8601 21.4037C7.77337 21.2144 7.65117 21.0725 7.49349 20.9779C7.34369 20.8833 7.17418 20.8242 6.98497 20.8005C6.79575 20.769 6.62624 20.7532 6.47644 20.7532L7.49349 20.5049Z" fill="white"/>
</g>
</g>
</svg>
