<svg width="166" height="40" viewBox="0 0 166 40" fill="none" xmlns="http://www.w3.org/2000/svg">
<g id="logo-black 1" clip-path="url(#clip0_2294_86545)">
<g id="Group">
<path id="Vector" d="M85.2317 12.0576H79.785L75.9303 18.7717H73.946L73.8831 4.24121H68.7266V30.4838H73.8831L73.946 23.2812H75.9179L81.0358 30.4838H86.7484L80.0757 20.9387L85.2317 12.0576Z" fill="#0A2540"/>
<path id="Vector_2" d="M124.258 20.7004C123.21 20.0284 122.075 19.5016 120.883 19.1346L119.746 18.7087L119.438 18.5942C118.732 18.3317 117.989 18.0557 117.964 17.3433C117.958 17.1318 118.005 16.9221 118.102 16.7337C118.199 16.5453 118.343 16.3844 118.521 16.2661C118.894 16.011 119.331 15.8636 119.784 15.8401C120.771 15.7726 121.75 16.0619 122.539 16.6544L122.678 16.7421L125.434 13.598L125.294 13.4853C124.951 13.1822 124.579 12.9136 124.182 12.6836C123.472 12.2806 122.698 11.997 121.895 11.8443C120.736 11.6001 119.539 11.6001 118.381 11.8443C117.262 11.9912 116.199 12.4227 115.297 13.0969C114.721 13.5441 114.239 14.0995 113.879 14.7314C113.519 15.3633 113.288 16.0593 113.2 16.7796C113.042 18.0796 113.375 19.3915 114.135 20.4624C115.145 21.5706 116.465 22.3555 117.926 22.7171L118.154 22.7923L118.672 22.9676C120.542 23.594 121.073 23.8445 121.377 24.2203C121.517 24.4093 121.597 24.6366 121.604 24.8716C121.604 25.761 120.504 26.1242 119.759 26.3497C119.237 26.4468 118.702 26.4369 118.184 26.3205C117.667 26.2041 117.179 25.9839 116.751 25.6733C116.058 25.2141 115.465 24.6221 115.007 23.9322C114.931 24.0111 114.677 24.2621 114.346 24.5902C113.416 25.511 111.873 27.0393 111.911 27.0762L111.999 27.2015C113.375 28.9093 115.303 30.0948 117.458 30.5586C117.951 30.653 118.45 30.7157 118.95 30.7465H119.468C121.17 30.7818 122.838 30.2674 124.22 29.2809C125.155 28.6258 125.871 27.7101 126.28 26.6504C126.529 25.9389 126.617 25.1821 126.538 24.4333C126.46 23.6844 126.216 22.9618 125.825 22.3163C125.425 21.6726 124.891 21.1215 124.258 20.7004Z" fill="#0A2540"/>
<path id="Vector_3" d="M137.555 19.1348C138.743 19.5019 139.874 20.0287 140.917 20.7006C141.539 21.1217 142.064 21.6681 142.458 22.3039C142.849 22.9495 143.093 23.6721 143.171 24.4209C143.25 25.1698 143.162 25.9266 142.914 26.6381C142.505 27.6978 141.788 28.6134 140.853 29.2686C139.472 30.2551 137.804 30.7695 136.101 30.7341H135.583C135.083 30.7042 134.585 30.6414 134.092 30.5463C131.937 30.0826 130.009 28.897 128.632 27.1892L128.532 27.064C128.507 27.0311 129.725 25.8193 130.647 24.9037C131.13 24.4228 131.532 24.0234 131.628 23.9198C132.093 24.6043 132.685 25.1951 133.372 25.661C133.802 25.9719 134.292 26.1923 134.811 26.3087C135.331 26.425 135.869 26.4347 136.392 26.3374C137.138 26.112 138.225 25.7487 138.225 24.8593C138.231 24.6241 138.155 24.3938 138.01 24.2079C137.707 23.8322 137.176 23.5816 135.293 22.9553L134.775 22.7799L134.56 22.7048C133.098 22.3432 131.778 21.5583 130.768 20.4501C130.002 19.3823 129.668 18.0677 129.833 16.7673C129.926 16.0472 130.161 15.3521 130.525 14.7223C130.889 14.0924 131.376 13.5402 131.956 13.0972C132.86 12.4269 133.922 11.9957 135.04 11.8445C136.202 11.6 137.403 11.6 138.566 11.8445C139.366 11.9977 140.135 12.2813 140.841 12.6838C141.244 12.9107 141.62 13.1794 141.966 13.4854L142.092 13.5982L139.337 16.7423L139.211 16.6546C138.421 16.0641 137.443 15.7751 136.456 15.8404C136.002 15.8638 135.565 16.0112 135.192 16.2663C135.019 16.3894 134.877 16.551 134.778 16.738C134.679 16.9251 134.626 17.1324 134.623 17.3436C134.661 18.0575 135.394 18.3331 136.115 18.5962L136.405 18.7089L137.555 19.1348Z" fill="#0A2540"/>
<path id="Vector_4" fill-rule="evenodd" clip-rule="evenodd" d="M102.165 12.0598V13.8636H101.937C100.526 12.4628 98.6138 11.6706 96.6165 11.6589C95.3924 11.6349 94.1764 11.8668 93.0489 12.3395C91.9207 12.8121 90.9058 13.515 90.0702 14.4022C88.3848 16.2729 87.4807 18.7092 87.5424 21.2165C87.477 23.7657 88.3792 26.2466 90.0702 28.1686C90.8859 29.0564 91.8845 29.7597 92.999 30.2309C94.1135 30.7021 95.3171 30.9301 96.5281 30.8993C98.5279 30.8621 100.451 30.1306 101.962 28.8325H102.165V30.4484H107.524V12.0598H102.165ZM102.43 21.3167C102.484 22.7986 101.985 24.248 101.027 25.3877C100.568 25.8969 100.002 26.3 99.3691 26.5684C98.7359 26.8368 98.051 26.964 97.3624 26.941C96.6949 26.9521 96.0331 26.8137 95.4266 26.5361C94.8208 26.2585 94.2854 25.8488 93.8614 25.3376C92.9156 24.1743 92.4306 22.709 92.4966 21.2165C92.4536 19.7688 92.9486 18.3558 93.8869 17.2456C94.319 16.7422 94.8582 16.3396 95.4652 16.0668C96.0729 15.7939 96.7335 15.6575 97.4004 15.6674C98.084 15.6463 98.7639 15.7757 99.3915 16.0465C100.018 16.3172 100.577 16.7225 101.027 17.2331C101.984 18.3778 102.483 19.8311 102.43 21.3167Z" fill="#0A2540"/>
<path id="Vector_5" fill-rule="evenodd" clip-rule="evenodd" d="M160.458 13.8633V12.0596H165.816V30.4482H160.458V28.8323H160.255C158.744 30.1304 156.82 30.8618 154.821 30.8991C153.609 30.9298 152.406 30.7019 151.292 30.2307C150.178 29.7595 149.178 29.0562 148.363 28.1684C146.672 26.2464 145.77 23.7656 145.835 21.2163C145.774 18.7091 146.677 16.2727 148.363 14.4019C149.202 13.5156 150.219 12.8136 151.349 12.3411C152.479 11.8686 153.696 11.6361 154.922 11.6587C156.915 11.6737 158.821 12.4656 160.23 13.8633H160.458ZM159.32 25.3876C160.283 24.2508 160.783 22.7992 160.723 21.3165C160.782 19.83 160.282 18.3746 159.32 17.2329C158.87 16.7223 158.311 16.317 157.684 16.0463C157.057 15.7755 156.376 15.646 155.693 15.6671C155.026 15.6573 154.365 15.7937 153.758 16.0666C153.151 16.3394 152.611 16.742 152.179 17.2455C151.241 18.3556 150.747 19.7686 150.79 21.2163C150.723 22.7088 151.209 24.1741 152.154 25.3374C152.578 25.8486 153.113 26.2582 153.72 26.5359C154.325 26.8135 154.987 26.9519 155.655 26.9408C156.343 26.9638 157.028 26.8366 157.661 26.5682C158.295 26.2998 158.861 25.8967 159.32 25.3876Z" fill="#0A2540"/>
</g>
<path id="Vector_6" fill-rule="evenodd" clip-rule="evenodd" d="M16.655 19.7409C16.6847 8.86475 25.6772 -0.00195312 36.9772 -0.00195312C48.1674 -0.00195312 57.4282 8.89408 57.2996 19.7949C57.2996 30.6957 48.1674 39.5917 36.9772 39.5917C25.8055 39.5917 16.6849 30.8497 16.655 19.8491V34.5799H9.45223L0.191406 5.76166H16.655V19.7409ZM29.3885 19.7949C29.3885 23.8044 32.8613 27.1874 36.9772 27.1874C41.2218 27.1874 44.566 23.8044 44.566 19.7949C44.566 15.7854 41.0932 12.4024 36.9772 12.4024C32.8613 12.4024 29.3885 15.7854 29.3885 19.7949Z" fill="#0070F0"/>
</g>
<defs>
<clipPath id="clip0_2294_86545">
<rect width="165.618" height="39.8478" fill="white" transform="translate(0.191406)"/>
</clipPath>
</defs>
</svg>
